<svg width="30" height="30" viewBox="0 0 30 30" fill="none" xmlns="http://www.w3.org/2000/svg">
<path d="M24.1406 0C20.9098 0 18.2812 2.62852 18.2812 5.85938C18.2812 6.88488 18.5515 7.89521 19.0627 8.78109L23.1257 15.8202C23.335 16.1828 23.7219 16.4062 24.1406 16.4062C24.5593 16.4062 24.9463 16.1828 25.1556 15.8202L29.2185 8.78104C29.7298 7.89522 30 6.88488 30 5.85938C30 2.62852 27.3715 0 24.1406 0ZM27.1886 7.60945L24.1406 12.8902L21.0926 7.60951C20.7867 7.07936 20.625 6.4742 20.625 5.85938C20.625 3.92086 22.2021 2.34375 24.1406 2.34375C26.0791 2.34375 27.6562 3.92086 27.6562 5.85938C27.6562 6.4742 27.4945 7.07936 27.1886 7.60945ZM24.1406 4.6875C23.4934 4.6875 22.9688 5.21215 22.9688 5.85938C22.9688 6.5066 23.4934 7.03125 24.1406 7.03125C24.7879 7.03125 25.3125 6.5066 25.3125 5.85938C25.3125 5.21215 24.7879 4.6875 24.1406 4.6875ZM16.4062 18.2812H4.6875C3.39516 18.2812 2.34375 17.2298 2.34375 15.9375C2.34375 14.6452 3.39516 13.5938 4.6875 13.5938H11.9203C12.4041 14.9577 13.7067 15.9375 15.2344 15.9375C17.1729 15.9375 18.75 14.3604 18.75 12.4219C18.75 10.4834 17.1729 8.90625 15.2344 8.90625C13.7067 8.90625 12.4041 9.88605 11.9203 11.25H4.6875C2.10281 11.25 0 13.3528 0 15.9375C0 18.5222 2.10281 20.625 4.6875 20.625H16.4062C17.6986 20.625 18.75 21.6764 18.75 22.9688C18.75 24.2611 17.6986 25.3125 16.4062 25.3125H9.17344C8.68969 23.9486 7.38709 22.9688 5.85938 22.9688C3.92086 22.9688 2.34375 24.5459 2.34375 26.4844C2.34375 28.4229 3.92086 30 5.85938 30C7.38709 30 8.68963 29.0202 9.17344 27.6562H16.4062C18.9909 27.6562 21.0938 25.5534 21.0938 22.9688C21.0938 20.3841 18.9909 18.2812 16.4062 18.2812ZM15.2344 11.25C15.8805 11.25 16.4062 11.7757 16.4062 12.4219C16.4062 13.068 15.8805 13.5938 15.2344 13.5938C14.5882 13.5938 14.0625 13.068 14.0625 12.4219C14.0625 11.7757 14.5882 11.25 15.2344 11.25ZM5.85938 27.6562C5.2132 27.6562 4.6875 27.1305 4.6875 26.4844C4.6875 25.8382 5.2132 25.3125 5.85938 25.3125C6.50555 25.3125 7.03125 25.8382 7.03125 26.4844C7.03125 27.1305 6.50555 27.6562 5.85938 27.6562Z" fill="url(#paint0_linear_576_2560)"/>
<defs>
<linearGradient id="paint0_linear_576_2560" x1="0" y1="15" x2="30" y2="15" gradientUnits="userSpaceOnUse">
<stop stop-color="#FFFFFF"/>
<stop offset="0.0056" stop-color="#FFFFFF"/>
<stop offset="1" stop-color="#FFFFFF"/>
</linearGradient>
</defs>
</svg>
