<svg width="36" height="37" viewBox="0 0 36 37" fill="none" xmlns="http://www.w3.org/2000/svg">
<g clip-path="url(#clip0_846_4053)">
<path d="M30.1576 30.157C36.8717 23.4429 36.8717 12.5572 30.1576 5.84306C23.4435 -0.871042 12.5578 -0.871043 5.84366 5.84306C-0.87044 12.5572 -0.87044 23.4429 5.84366 30.157C12.5578 36.8711 23.4435 36.8711 30.1576 30.157Z" fill="#676860"/>
<path d="M18 0.807473C21.4004 0.807473 24.7244 1.81579 27.5516 3.70493C30.3789 5.59407 32.5826 8.27918 33.8838 11.4207C35.1851 14.5622 35.5255 18.0191 34.8622 21.3541C34.1988 24.6891 32.5614 27.7525 30.1569 30.1569C27.7525 32.5614 24.6891 34.1988 21.3541 34.8622C18.0191 35.5255 14.5622 35.1851 11.4207 33.8838C8.27917 32.5826 5.59407 30.379 3.70494 27.5517C1.8158 24.7244 0.807469 21.4004 0.807469 18C0.807826 13.4404 2.61929 9.06759 5.84344 5.84344C9.06758 2.6193 13.4404 0.80783 18 0.807473ZM18 -3.35079e-06C13.8356 -3.6472e-05 9.79994 1.44391 6.58078 4.08579C3.36163 6.72768 1.15811 10.404 0.34569 14.4885C-0.466727 18.5729 0.162219 22.8127 2.12537 26.4853C4.08852 30.158 7.26439 33.0364 11.1119 34.63C14.9593 36.2236 19.2403 36.4338 23.2254 35.2248C27.2105 34.0158 30.6531 31.4624 32.9666 27.9998C35.2802 24.5371 36.3215 20.3793 35.9131 16.235C35.5047 12.0906 33.672 8.21603 30.7272 5.27147C29.0595 3.59513 27.076 2.26609 24.8915 1.36126C22.7069 0.456423 20.3645 -0.00625174 18 -3.35079e-06Z" fill="white"/>
<path d="M30.1573 30.2266C36.8714 23.5125 36.8714 12.6268 30.1573 5.91273C23.4432 -0.801371 12.5575 -0.801372 5.84335 5.91273C-0.870746 12.6268 -0.870746 23.5125 5.84335 30.2266C12.5575 36.9407 23.4432 36.9407 30.1573 30.2266Z" fill="#676860"/>
<path d="M18 0.88284C21.4004 0.88284 24.7244 1.89117 27.5517 3.78031C30.379 5.66945 32.5826 8.35455 33.8838 11.4961C35.1851 14.6376 35.5256 18.0944 34.8622 21.4295C34.1988 24.7645 32.5614 27.8279 30.157 30.2323C27.7525 32.6367 24.6891 34.2742 21.3541 34.9375C18.0191 35.6009 14.5622 35.2605 11.4207 33.9592C8.2792 32.6579 5.5941 30.4543 3.70496 27.627C1.81582 24.7997 0.807492 21.4757 0.807492 18.0754C0.807849 13.5157 2.61931 9.14295 5.84346 5.91881C9.06761 2.69466 13.4404 0.883197 18 0.88284ZM18 0.0753632C13.8349 0.0747607 9.7984 1.51842 6.57837 4.16035C3.35835 6.80227 1.15403 10.479 0.341015 14.564C-0.472002 18.649 0.156589 22.8896 2.11969 26.5631C4.08279 30.2365 7.25894 33.1157 11.1069 34.7099C14.9549 36.3041 19.2366 36.5147 23.2224 35.3058C27.2083 34.097 30.6516 31.5434 32.9658 28.0803C35.2799 24.6172 36.3216 20.4588 35.9134 16.3138C35.5052 12.1687 33.6724 8.29337 30.7272 5.34819C29.0598 3.67136 27.0764 2.34192 24.8918 1.43683C22.7072 0.531744 20.3647 0.0689938 18 0.0753632Z" fill="white"/>
<path d="M35.1844 17.8062L21.8516 6.20277L15.661 13.5091L18.6217 26.6171L11.2091 26.8069L4.41016 28.617L7.64006 31.7029C14.4942 36.7954 22.1948 34.5775 22.1948 34.5775C24.4517 34.16 26.5436 33.1099 28.2267 31.5495C35.5559 26.348 35.1844 17.8062 35.1844 17.8062Z" fill="#302C2C"/>
<path d="M20.2596 28.3209C20.1379 28.3215 20.0174 28.2981 19.9049 28.2519C19.7924 28.2057 19.6902 28.1377 19.6042 28.0517C19.5369 27.9857 19.4805 27.9094 19.4373 27.8256H18.8303C18.7518 27.9754 18.6338 28.1009 18.4891 28.1884C18.3444 28.2759 18.1785 28.3222 18.0094 28.3222H17.9865C17.8198 28.3195 17.6568 28.2719 17.5148 28.1846C17.3727 28.0972 17.2567 27.9732 17.179 27.8256H16.5559C16.5127 27.9094 16.4564 27.9857 16.3891 28.0517C16.303 28.1377 16.2008 28.2057 16.0883 28.2519C15.9758 28.2981 15.8553 28.3215 15.7337 28.3209H6.54189C6.29584 28.3213 6.05971 28.2239 5.88535 28.0503C5.71099 27.8767 5.61265 27.641 5.61194 27.395V25.3521C5.61292 24.7649 5.78033 24.19 6.09475 23.6941C6.40916 23.1981 6.85772 22.8015 7.3884 22.5501C7.11156 22.1561 6.91643 21.7106 6.81453 21.24C6.71263 20.7693 6.706 20.283 6.79506 19.8097C6.88412 19.3365 7.06706 18.8859 7.33307 18.4844C7.59908 18.083 7.94278 17.7389 8.34391 17.4725C8.79079 17.1725 9.29871 16.9757 9.83097 16.896C10.3632 16.8164 10.9065 16.8559 11.4216 17.0119C11.9367 17.1678 12.4108 17.4362 12.8095 17.7977C13.2082 18.1592 13.5216 18.6048 13.7271 19.1022C13.9578 19.6629 14.0435 20.2727 13.9765 20.8752C13.9095 21.4778 13.6918 22.0538 13.3435 22.5501C13.6538 22.6988 13.9375 22.8975 14.1833 23.1382C14.4286 22.8969 14.7124 22.6981 15.0231 22.5501C14.6422 22.0055 14.4179 21.3669 14.3747 20.7037C14.3315 20.0406 14.471 19.3782 14.778 18.7888C15.085 18.1994 15.5478 17.7055 16.116 17.3608C16.6842 17.0161 17.3361 16.8338 18.0007 16.8338C18.6652 16.8338 19.3171 17.0161 19.8853 17.3608C20.4535 17.7055 20.9163 18.1994 21.2233 18.7888C21.5303 19.3782 21.6698 20.0406 21.6266 20.7037C21.5834 21.3669 21.3591 22.0055 20.9782 22.5501C21.2885 22.6988 21.5722 22.8975 21.818 23.1382C22.0633 22.8969 22.3471 22.6981 22.6578 22.5501C22.2766 22.0056 22.0522 21.3669 22.0088 20.7037C21.9654 20.0404 22.1048 19.3779 22.4117 18.7884C22.7187 18.1988 23.1815 17.7048 23.7498 17.36C24.318 17.0152 24.97 16.8329 25.6347 16.8329C26.2993 16.8329 26.9513 17.0152 27.5196 17.36C28.0878 17.7048 28.5506 18.1988 28.8576 18.7884C29.1646 19.3779 29.3039 20.0404 29.2606 20.7037C29.2172 21.3669 28.9927 22.0056 28.6116 22.5501C29.1401 22.802 29.5866 23.1982 29.8995 23.6931C30.2124 24.1879 30.379 24.7612 30.3799 25.3467V27.395C30.3799 27.5168 30.3559 27.6374 30.3092 27.7499C30.2625 27.8625 30.1941 27.9646 30.1078 28.0507C30.0215 28.1367 29.9191 28.2048 29.8065 28.2512C29.6938 28.2976 29.5732 28.3213 29.4513 28.3209H20.2596Z" fill="#EAEAEA"/>
<path fill-rule="evenodd" clip-rule="evenodd" d="M14.1833 27.356H6.5473V25.3117C6.54738 25.0256 6.60414 24.7424 6.71433 24.4783C6.82451 24.2143 6.98592 23.9747 7.18923 23.7735C7.59977 23.3643 8.15596 23.1349 8.73557 23.1356H11.9964C12.5759 23.1358 13.1317 23.3651 13.5427 23.7735C13.7458 23.9749 13.9069 24.2145 14.0168 24.4785C14.1268 24.7426 14.1834 25.0257 14.1833 25.3117V27.356Z" fill="#3CCE6C"/>
<path d="M12.275 22.3469C12.5258 22.0976 12.7248 21.8013 12.8606 21.4748C12.9964 21.1483 13.0663 20.7982 13.0663 20.4446C13.0663 20.091 12.9964 19.741 12.8606 19.4145C12.7248 19.088 12.5258 18.7916 12.275 18.5424C11.7669 18.0373 11.0797 17.7539 10.3633 17.7539C9.64696 17.7539 8.95968 18.0373 8.45161 18.5424C8.20051 18.7914 8.00121 19.0878 7.86521 19.4143C7.7292 19.7408 7.65918 20.0909 7.65918 20.4446C7.65918 20.7983 7.7292 21.1485 7.86521 21.475C8.00121 21.8015 8.20051 22.0978 8.45161 22.3469C8.96003 22.8513 9.64717 23.1343 10.3633 23.1343C11.0795 23.1343 11.7666 22.8513 12.275 22.3469Z" fill="#3CCE6C"/>
<path fill-rule="evenodd" clip-rule="evenodd" d="M14.1833 27.356V25.3117C14.1855 24.7334 14.4169 24.1795 14.8269 23.7715C15.2369 23.3635 15.7919 23.1348 16.3703 23.1356H19.6284C20.207 23.1345 20.7624 23.363 21.1727 23.771C21.5829 24.179 21.8146 24.7331 21.8167 25.3117V27.356" fill="#3CCE6C"/>
<path d="M19.9205 22.3469C20.1716 22.0977 20.3709 21.8013 20.5069 21.4747C20.643 21.1481 20.713 20.7978 20.713 20.444C20.713 20.0902 20.643 19.7399 20.5069 19.4133C20.3709 19.0867 20.1716 18.7902 19.9205 18.541C19.412 18.0362 18.7245 17.753 18.0081 17.753C17.2916 17.753 16.6042 18.0362 16.0957 18.541C15.8446 18.7902 15.6452 19.0867 15.5092 19.4133C15.3732 19.7399 15.3032 20.0902 15.3032 20.444C15.3032 20.7978 15.3732 21.1481 15.5092 21.4747C15.6452 21.8013 15.8446 22.0977 16.0957 22.3469C16.6042 22.8517 17.2916 23.1349 18.0081 23.1349C18.7245 23.1349 19.412 22.8517 19.9205 22.3469Z" fill="#3CCE6C"/>
<path fill-rule="evenodd" clip-rule="evenodd" d="M29.4527 27.356H21.8194V25.3117C21.8194 25.0257 21.876 24.7426 21.9859 24.4785C22.0959 24.2145 22.257 23.9749 22.46 23.7735C22.871 23.3651 23.4269 23.1358 24.0063 23.1356H27.2658C27.8454 23.1349 28.4016 23.3643 28.8121 23.7735C29.0158 23.9745 29.1773 24.214 29.2873 24.4781C29.3972 24.7422 29.4535 25.0256 29.4527 25.3117V27.356Z" fill="#3CCE6C"/>
<path d="M25.6414 23.1275C26.1732 23.1248 26.6922 22.9647 27.1331 22.6673C27.5739 22.37 27.9168 21.9487 28.1185 21.4566C28.3201 20.9646 28.3715 20.4238 28.2662 19.9026C28.1608 19.3814 27.9034 18.903 27.5264 18.5279C27.1495 18.1529 26.6699 17.8978 26.1481 17.7951C25.6264 17.6923 25.0859 17.7464 24.5948 17.9505C24.1038 18.1546 23.6842 18.4996 23.3891 18.9419C23.0939 19.3843 22.9363 19.9041 22.9363 20.4359C22.9363 20.7905 23.0064 21.1416 23.1425 21.469C23.2786 21.7965 23.4781 22.0938 23.7294 22.3439C23.9808 22.594 24.2791 22.792 24.6072 22.9265C24.9353 23.0609 25.2868 23.1292 25.6414 23.1275Z" fill="#3CCE6C"/>
<path d="M27.8862 22.7103C28.2235 22.3787 28.4826 21.9761 28.6446 21.5318C28.8066 21.0874 28.8674 20.6125 28.8227 20.1417C28.7779 19.6709 28.6287 19.2159 28.386 18.8101C28.1432 18.4042 27.8129 18.0576 27.4192 17.7954C26.8906 17.4436 26.2698 17.2558 25.6347 17.2558C24.9997 17.2558 24.3788 17.4436 23.8502 17.7954C23.4559 18.0571 23.1251 18.4035 22.8818 18.8094C22.6386 19.2153 22.4892 19.6704 22.4444 20.1415C22.3996 20.6125 22.4607 21.0877 22.6231 21.5321C22.7856 21.9765 23.0452 22.3791 23.3832 22.7103C22.7525 22.8611 22.197 23.2337 21.818 23.76C21.4383 23.234 20.8825 22.8615 20.2515 22.7103C20.5888 22.3787 20.8479 21.9761 21.0099 21.5318C21.1719 21.0874 21.2327 20.6125 21.188 20.1417C21.1432 19.6709 20.9941 19.2159 20.7513 18.8101C20.5085 18.4042 20.1782 18.0576 19.7846 17.7954C19.3902 17.5316 18.9423 17.3584 18.473 17.2885C18.0037 17.2186 17.5247 17.2536 17.0706 17.3911C16.6165 17.5286 16.1985 17.765 15.8468 18.0835C15.4951 18.402 15.2184 18.7945 15.0366 19.2327C14.795 19.8173 14.7337 20.4608 14.8606 21.0804C14.9874 21.7001 15.2967 22.2677 15.7485 22.7103C15.1173 22.8601 14.5615 23.2329 14.1834 23.76C13.8036 23.234 13.2478 22.8615 12.6168 22.7103C12.9541 22.3787 13.2132 21.9761 13.3752 21.5318C13.5372 21.0874 13.598 20.6125 13.5533 20.1417C13.5086 19.6709 13.3594 19.2159 13.1166 18.8101C12.8738 18.4042 12.5435 18.0576 12.1499 17.7954C11.7555 17.5316 11.3076 17.3584 10.8383 17.2885C10.369 17.2186 9.89004 17.2536 9.43591 17.3911C8.98179 17.5286 8.56382 17.765 8.2121 18.0835C7.86038 18.402 7.58366 18.7945 7.4019 19.2327C7.16032 19.8173 7.09903 20.4608 7.22588 21.0804C7.35274 21.7001 7.66195 22.2677 8.11381 22.7103C7.52897 22.8501 7.00781 23.1818 6.63344 23.6523C6.25825 24.1236 6.0538 24.708 6.05341 25.3104V27.3533C6.05333 27.4186 6.06627 27.4833 6.09145 27.5436C6.11664 27.6039 6.15356 27.6586 6.20009 27.7045C6.29385 27.7976 6.42058 27.8498 6.55269 27.8499H15.7458C15.8779 27.8498 16.0047 27.7976 16.0984 27.7045C16.1449 27.6586 16.1819 27.6039 16.2071 27.5436C16.2322 27.4833 16.2452 27.4186 16.2451 27.3533C16.2451 27.2878 16.2322 27.2229 16.2071 27.1624C16.182 27.1019 16.1452 27.047 16.0988 27.0007C16.0524 26.9544 15.9974 26.9178 15.9368 26.8928C15.8762 26.8679 15.8113 26.8551 15.7458 26.8553H14.688V25.313C14.6881 25.0924 14.7317 24.874 14.8165 24.6702C14.9013 24.4665 15.0254 24.2816 15.1819 24.1261C15.4992 23.8107 15.9283 23.6337 16.3756 23.6335H19.6284C20.075 23.6328 20.5036 23.8092 20.8202 24.1241C21.1368 24.4389 21.3156 24.8665 21.3174 25.313V26.8567H20.2596C20.1921 26.8532 20.1246 26.8634 20.0613 26.8868C19.9979 26.9102 19.9399 26.9463 19.8909 26.9928C19.8419 27.0393 19.8029 27.0953 19.7762 27.1574C19.7495 27.2195 19.7358 27.2864 19.7358 27.3539C19.7358 27.4215 19.7495 27.4884 19.7762 27.5505C19.8029 27.6125 19.8419 27.6686 19.8909 27.7151C19.9399 27.7616 19.9979 27.7977 20.0613 27.8211C20.1246 27.8445 20.1921 27.8547 20.2596 27.8512H29.4527C29.5853 27.8512 29.7124 27.799 29.8067 27.7059C29.8528 27.6597 29.8893 27.605 29.9143 27.5447C29.9392 27.4844 29.9521 27.4198 29.952 27.3546V25.313C29.9509 24.7102 29.7465 24.1254 29.3718 23.6531C28.9972 23.1808 28.4743 22.8486 27.8876 22.7103H27.8862ZM10.3653 18.2544C10.8011 18.2544 11.2271 18.3832 11.59 18.6245C11.9515 18.8651 12.2334 19.2078 12.3998 19.6089C12.5661 20.0101 12.6095 20.4517 12.5244 20.8775C12.4393 21.3034 12.2296 21.6944 11.9219 22.0008C11.6141 22.3073 11.2222 22.5153 10.796 22.5986C10.3688 22.6833 9.92602 22.6401 9.52331 22.4741C9.1206 22.3082 8.77588 22.0271 8.53237 21.6659C8.24809 21.2453 8.11943 20.7387 8.16856 20.2333C8.2177 19.728 8.44154 19.2557 8.80152 18.8976C9.21565 18.4866 9.77514 18.2555 10.3586 18.2544H10.3653ZM7.04795 25.3171C7.04973 24.8708 7.22837 24.4434 7.54471 24.1286C7.86104 23.8137 8.28928 23.6372 8.73558 23.6375H11.9964C12.4427 23.6372 12.871 23.8137 13.1873 24.1286C13.5037 24.4434 13.6823 24.8708 13.6841 25.3171V26.8567H7.04795V25.3171ZM18 18.2544C18.4345 18.2555 18.8589 18.3846 19.2204 18.6257C19.5818 18.8667 19.8642 19.2089 20.0322 19.6096C20.1991 20.0104 20.2427 20.452 20.1573 20.8777C20.072 21.3035 19.8616 21.6941 19.5531 21.9997C19.3219 22.2292 19.0429 22.4048 18.736 22.5139C18.4291 22.6231 18.1019 22.6631 17.7778 22.6311C17.4536 22.5991 17.1406 22.4958 16.8609 22.3287C16.5813 22.1617 16.3421 21.9349 16.1603 21.6646C15.9406 21.3333 15.8149 20.9486 15.7967 20.5515C15.7784 20.1543 15.8683 19.7597 16.0568 19.4097C16.2452 19.0596 16.5251 18.7673 16.8666 18.5638C17.2081 18.3604 17.5985 18.2534 17.996 18.2544H18ZM25.6347 18.2544C26.0698 18.254 26.4953 18.3824 26.8576 18.6233C27.2199 18.8642 27.5029 19.2069 27.6709 19.6082C27.8382 20.0088 27.8822 20.4502 27.7973 20.876C27.7125 21.3017 27.5026 21.6925 27.1945 21.9984C26.9634 22.2278 26.6846 22.4034 26.3778 22.5126C26.0711 22.6218 25.744 22.662 25.4199 22.6302C25.0959 22.5985 24.7828 22.4956 24.5031 22.3289C24.2234 22.1622 23.9839 21.9358 23.8017 21.6659C23.5175 21.2453 23.3888 20.7387 23.4379 20.2333C23.4871 19.728 23.7109 19.2557 24.0709 18.8976C24.485 18.4866 25.0445 18.2555 25.628 18.2544H25.6347ZM28.9521 26.8567H22.32V25.3117C22.3204 25.0912 22.3643 24.8729 22.4493 24.6694C22.5343 24.4659 22.6587 24.2813 22.8153 24.1261C23.1321 23.8108 23.5607 23.6337 24.0077 23.6335H27.2672C27.7132 23.6331 28.1413 23.8095 28.4576 24.1241C28.7739 24.4386 28.9527 24.8656 28.9548 25.3117V26.8567H28.9521Z" fill="#3B3B3B"/>
<path d="M18.4711 27.1649C18.4314 27.0702 18.3637 26.99 18.2772 26.9347C18.1896 26.8808 18.088 26.8541 17.9852 26.858C17.8823 26.8629 17.7834 26.8993 17.702 26.9624C17.6206 27.0255 17.5607 27.1122 17.5303 27.2106C17.5084 27.2841 17.5037 27.3617 17.5165 27.4373C17.5294 27.5129 17.5596 27.5845 17.6046 27.6466C17.6496 27.7087 17.7084 27.7596 17.7762 27.7953C17.8441 27.831 17.9193 27.8506 17.996 27.8526C18.0789 27.8547 18.1611 27.8361 18.235 27.7985C18.309 27.7609 18.3724 27.7055 18.4195 27.6372C18.4667 27.569 18.4961 27.49 18.5051 27.4076C18.5141 27.3251 18.5024 27.2417 18.4711 27.1649Z" fill="#3B3B3B"/>
<path d="M17.5196 17.1898C15.7544 17.1923 14.0604 16.4943 12.8093 15.2492C12.1134 14.5573 11.5803 13.7191 11.2486 12.7955C10.9169 11.872 10.795 10.8862 10.8916 9.90961C10.9883 8.93305 11.3011 7.99025 11.8073 7.14961C12.3136 6.30896 13.0006 5.59156 13.8186 5.04943C15.1003 4.19798 16.6367 3.81518 18.168 3.96574C19.6994 4.1163 21.1318 4.79098 22.2231 5.87574C22.9968 6.64532 23.5681 7.59432 23.8861 8.63819C24.2041 9.68206 24.259 10.7884 24.0458 11.8586C23.8326 12.9288 23.358 13.9297 22.6643 14.772C21.9706 15.6144 21.0793 16.2721 20.0698 16.6865C19.2619 17.0197 18.3962 17.1907 17.5223 17.1898H17.5196Z" fill="#EAEAEA"/>
<path d="M17.529 16.0728C18.6319 16.0672 19.7084 15.7351 20.6227 15.1182C21.5371 14.5014 22.2482 13.6275 22.6663 12.6069C23.0845 11.5863 23.1909 10.4647 22.9722 9.38369C22.7535 8.30265 22.2195 7.31062 21.4376 6.53279C20.6556 5.75496 19.6608 5.2262 18.5786 5.01323C17.4964 4.80027 16.3754 4.91265 15.357 5.33619C14.3386 5.75973 13.4686 6.47545 12.8566 7.39302C12.2446 8.31059 11.9181 9.38888 11.9183 10.4918C11.9203 11.2267 12.0669 11.954 12.35 12.6321C12.633 13.3103 13.0468 13.9261 13.5678 14.4443C14.0888 14.9626 14.7067 15.3731 15.3864 15.6525C16.0661 15.932 16.7941 16.0748 17.529 16.0728Z" fill="#3CCE6C"/>
<path d="M20.5812 8.50811C20.49 8.41334 20.3653 8.35824 20.2338 8.35472C20.1024 8.35119 19.9748 8.39952 19.8787 8.48927L16.7067 11.4837L15.1873 9.93735C15.0947 9.84369 14.969 9.79006 14.8374 9.78796C14.7725 9.78744 14.708 9.79932 14.6476 9.82295C14.5872 9.84745 14.532 9.88306 14.4848 9.92793C14.4379 9.97312 14.4004 10.0271 14.3744 10.0867C14.3366 10.1765 14.326 10.2753 14.344 10.3711C14.3619 10.4668 14.4076 10.5551 14.4753 10.625L16.3312 12.5199C16.376 12.5666 16.4297 12.6039 16.489 12.6295C16.5484 12.6552 16.6124 12.6687 16.677 12.6693C16.8076 12.6719 16.934 12.6236 17.0296 12.5347L20.5704 9.20658C20.6178 9.16206 20.6558 9.1086 20.6824 9.04928C20.7089 8.98996 20.7234 8.92597 20.725 8.861C20.7266 8.79604 20.7154 8.7314 20.6918 8.67082C20.6683 8.61025 20.633 8.55494 20.5879 8.50811H20.5812Z" fill="#3B3B3B"/>
<path d="M17.5196 4.4142C16.309 4.41278 15.1251 4.76991 14.1172 5.44053C13.1094 6.11116 12.3227 7.06524 11.8565 8.18243C11.3921 9.2969 11.2705 10.5245 11.5071 11.7084C11.7437 12.8923 12.3278 13.9789 13.1848 14.8293C13.8269 15.4675 14.6021 15.956 15.4549 16.2598C16.3077 16.5637 17.2171 16.6755 18.1181 16.5871C19.0191 16.4988 19.8894 16.2126 20.667 15.7489C21.4445 15.2852 22.1101 14.6555 22.6161 13.9047C23.4046 12.733 23.7596 11.3229 23.6201 9.91747C23.4806 8.51204 22.8552 7.19929 21.8517 6.20545C20.7004 5.06073 19.1431 4.41779 17.5196 4.41689V4.4142ZM17.5196 15.6233C16.5056 15.6244 15.514 15.3254 14.6696 14.7641C13.8252 14.2028 13.1657 13.4041 12.7743 12.4688C12.3858 11.535 12.2842 10.5066 12.4824 9.51479C12.6806 8.52299 13.1697 7.61268 13.8873 6.89989C14.4806 6.29978 15.2131 5.85558 16.0195 5.60679C16.8259 5.35799 17.6813 5.3123 18.5096 5.47378C19.338 5.63527 20.1135 5.99892 20.7674 6.53241C21.4214 7.06589 21.9333 7.75268 22.2578 8.53172C22.5823 9.31076 22.7093 10.1579 22.6275 10.9979C22.5457 11.8378 22.2576 12.6445 21.7888 13.3463C21.3201 14.048 20.6852 14.6231 19.9406 15.0204C19.196 15.4176 18.3648 15.6248 17.5209 15.6233H17.5196Z" fill="#3B3B3B"/>
<path d="M29.7084 23.4289C29.4138 23.0583 29.0387 22.7596 28.6116 22.5555C28.8883 22.1615 29.0833 21.7161 29.1852 21.2455C29.2871 20.7749 29.2938 20.2887 29.2049 19.8155C29.116 19.3423 28.9333 18.8917 28.6675 18.4902C28.4017 18.0887 28.0583 17.7445 27.6574 17.4778C27.2105 17.1779 26.7026 16.981 26.1703 16.9014C25.6381 16.8217 25.0948 16.8613 24.5797 17.0173C24.0646 17.1732 23.5905 17.4416 23.1918 17.8031C22.7931 18.1646 22.4797 18.6102 22.2742 19.1076C22.043 19.6682 21.957 20.278 22.024 20.8807C22.0911 21.4834 22.309 22.0594 22.6578 22.5555C22.3471 22.7035 22.0633 22.9023 21.818 23.1436C21.5714 22.9006 21.2862 22.7001 20.9742 22.5501C21.2506 22.156 21.4455 21.7105 21.5472 21.2399C21.6489 20.7693 21.6554 20.2831 21.5664 19.81C21.4773 19.3368 21.2945 18.8862 21.0287 18.4848C20.7629 18.0834 20.4195 17.7392 20.0187 17.4725C19.7142 17.2695 19.3807 17.1138 19.0295 17.0108C18.6953 17.0888 18.3556 17.141 18.0134 17.167V17.2517C18.6456 17.253 19.2634 17.4402 19.7899 17.7901C20.1842 18.0517 20.515 18.3981 20.7582 18.804C21.0014 19.2099 21.1509 19.665 21.1957 20.1361C21.2404 20.6072 21.1794 21.0823 21.0169 21.5267C20.8545 21.9712 20.5948 22.3737 20.2569 22.7049C20.8878 22.8561 21.4436 23.2286 21.8234 23.7546C22.2023 23.2283 22.7578 22.8558 23.3885 22.7049C23.0513 22.3733 22.7922 21.9707 22.6302 21.5264C22.4682 21.082 22.4074 20.6072 22.4521 20.1363C22.4968 19.6655 22.646 19.2106 22.8888 18.8047C23.1316 18.3988 23.4618 18.0522 23.8555 17.7901C24.2499 17.5262 24.6978 17.353 25.1671 17.2831C25.6364 17.2132 26.1153 17.2482 26.5695 17.3857C27.0236 17.5232 27.4416 17.7597 27.7933 18.0781C28.145 18.3966 28.4217 18.7891 28.6035 19.2274C28.8451 19.8119 28.9063 20.4554 28.7795 21.075C28.6526 21.6947 28.3434 22.2623 27.8916 22.7049C28.4783 22.8433 29.0012 23.1754 29.3758 23.6477C29.7504 24.12 29.9548 24.7048 29.956 25.3077V27.3506C29.956 27.4158 29.9432 27.4804 29.9183 27.5407C29.8933 27.6009 29.8568 27.6557 29.8107 27.7018C29.7164 27.795 29.5892 27.8472 29.4567 27.8472H20.2649C20.1994 27.8475 20.1345 27.835 20.0739 27.8102C20.0132 27.7854 19.9581 27.7489 19.9116 27.7028C19.8651 27.6566 19.8281 27.6018 19.8028 27.5413C19.7776 27.4809 19.7645 27.4161 19.7643 27.3506H18.5114C18.512 27.3993 18.5052 27.4479 18.4912 27.4946C18.4607 27.5972 18.3975 27.687 18.3113 27.7504C18.225 27.8138 18.1205 27.8473 18.0134 27.8458V28.3155C18.1825 28.3155 18.3484 28.2692 18.4931 28.1817C18.6378 28.0941 18.7558 27.9687 18.8344 27.8189H19.4413C19.4846 27.9027 19.5409 27.979 19.6082 28.045C19.6942 28.1309 19.7965 28.199 19.909 28.2452C20.0215 28.2914 20.142 28.3148 20.2636 28.3142H29.4527C29.5745 28.3145 29.6952 28.2908 29.8078 28.2445C29.9205 28.1981 30.0229 28.1299 30.1091 28.0439C30.1954 27.9579 30.2638 27.8557 30.3105 27.7432C30.3572 27.6307 30.3813 27.5101 30.3813 27.3883V25.3521C30.3794 24.6536 30.1423 23.9762 29.7084 23.4289Z" fill="#CECECE"/>
<path d="M20.2596 26.8567H21.3174V25.3131C21.3156 24.8665 21.1368 24.4389 20.8201 24.1241C20.5035 23.8092 20.0749 23.6328 19.6284 23.6335H18.0134V26.8634C18.1084 26.863 18.2016 26.8891 18.2826 26.9388C18.3691 26.994 18.4367 27.0743 18.4764 27.1689C18.5 27.2298 18.5119 27.2947 18.5114 27.36H19.763C19.763 27.2944 19.7759 27.2294 19.8011 27.1688C19.8263 27.1082 19.8632 27.0532 19.9098 27.007C19.9563 26.9607 20.0115 26.924 20.0722 26.8992C20.1329 26.8743 20.198 26.8617 20.2636 26.8621L20.2596 26.8567Z" fill="#30B255"/>
<path d="M19.557 21.9997C19.8631 21.6933 20.0717 21.3032 20.1564 20.8785C20.2411 20.4538 20.1983 20.0136 20.0332 19.6132C19.8681 19.2128 19.5882 18.8703 19.2288 18.6287C18.8694 18.3871 18.4465 18.2573 18.0134 18.2557V22.6403C18.1539 22.6396 18.294 22.6261 18.432 22.5999C18.8577 22.5144 19.2489 22.3057 19.557 21.9997Z" fill="#30B255"/>
<path d="M28.9521 25.3117C28.95 24.8656 28.7712 24.4386 28.4549 24.1241C28.1386 23.8095 27.7105 23.6331 27.2645 23.6335H24.005C23.558 23.6337 23.1294 23.8108 22.8126 24.1261C22.656 24.2813 22.5316 24.4659 22.4466 24.6694C22.3616 24.8729 22.3177 25.0912 22.3173 25.3117V26.8567H28.9521V25.3117Z" fill="#30B255"/>
<path d="M23.8003 21.666C24.0429 22.0275 24.387 22.3092 24.7893 22.4757C25.1916 22.6421 25.6341 22.6859 26.0612 22.6015C26.4883 22.517 26.8809 22.3081 27.1896 22.0011C27.4983 21.6941 27.7093 21.3026 27.796 20.876C27.88 20.4496 27.8353 20.0078 27.6675 19.6069C27.4998 19.206 27.2166 18.864 26.8539 18.6245C26.5227 18.4031 26.1377 18.2757 25.7398 18.2557C25.3419 18.2358 24.946 18.324 24.5942 18.511C24.2425 18.6981 23.948 18.977 23.7421 19.3181C23.5362 19.6591 23.4266 20.0496 23.4249 20.448C23.4262 20.8823 23.5569 21.3063 23.8003 21.666Z" fill="#30B255"/>
<path d="M18.0134 18.2557C18.5584 18.2558 19.0839 18.4588 19.4873 18.8253C19.8907 19.1917 20.1431 19.6953 20.1954 20.2378C20.2476 20.7802 20.096 21.3227 19.77 21.7595C19.4439 22.1962 18.9669 22.4958 18.432 22.5999C18.294 22.6261 18.1539 22.6396 18.0134 22.6403V23.6335H19.6284C20.0749 23.6328 20.5035 23.8092 20.8201 24.1241C21.1368 24.4389 21.3156 24.8665 21.3174 25.313V26.8567H20.2596C20.1921 26.8532 20.1246 26.8634 20.0612 26.8868C19.9978 26.9102 19.9399 26.9463 19.8909 26.9928C19.8419 27.0393 19.8028 27.0953 19.7762 27.1574C19.7495 27.2195 19.7358 27.2864 19.7358 27.3539C19.7358 27.4215 19.7495 27.4884 19.7762 27.5505C19.8028 27.6125 19.8419 27.6685 19.8909 27.7151C19.9399 27.7616 19.9978 27.7977 20.0612 27.8211C20.1246 27.8445 20.1921 27.8547 20.2596 27.8512H29.4527C29.5852 27.8512 29.7124 27.799 29.8066 27.7059C29.8527 27.6597 29.8893 27.605 29.9142 27.5447C29.9392 27.4844 29.952 27.4198 29.952 27.3546V25.313C29.9508 24.7102 29.7464 24.1254 29.3718 23.6531C28.9972 23.1808 28.4743 22.8486 27.8875 22.7103C28.2248 22.3787 28.4839 21.9761 28.6459 21.5318C28.8079 21.0874 28.8687 20.6125 28.824 20.1417C28.7792 19.6709 28.63 19.2159 28.3873 18.8101C28.1445 18.4042 27.8142 18.0575 27.4205 17.7954C26.8919 17.4436 26.2711 17.2558 25.636 17.2558C25.001 17.2558 24.3801 17.4436 23.8515 17.7954C23.4572 18.0571 23.1264 18.4035 22.8831 18.8094C22.6399 19.2153 22.4905 19.6704 22.4457 20.1415C22.4009 20.6125 22.462 21.0877 22.6244 21.5321C22.7869 21.9765 23.0466 22.3791 23.3845 22.7103C22.7538 22.8611 22.1983 23.2337 21.8194 23.76C21.4396 23.234 20.8838 22.8615 20.2528 22.7103C20.5901 22.3787 20.8492 21.9761 21.0112 21.5318C21.1732 21.0874 21.234 20.6125 21.1893 20.1417C21.1445 19.6709 20.9954 19.2159 20.7526 18.8101C20.5098 18.4042 20.1795 18.0575 19.7859 17.7954C19.2593 17.4456 18.6415 17.2584 18.0094 17.2571L18.0134 18.2557ZM22.32 25.3117C22.3203 25.0912 22.3642 24.8729 22.4492 24.6694C22.5342 24.4659 22.6586 24.2813 22.8152 24.1261C23.132 23.8108 23.5607 23.6337 24.0076 23.6335H27.2671C27.7132 23.6331 28.1412 23.8095 28.4575 24.1241C28.7738 24.4386 28.9526 24.8656 28.9548 25.3117V26.8567H22.32V25.3117ZM25.6374 18.2544C26.0725 18.254 26.4979 18.3824 26.8602 18.6233C27.2225 18.8642 27.5055 19.2069 27.6736 19.6082C27.8408 20.0088 27.8848 20.4502 27.8 20.876C27.7151 21.3017 27.5052 21.6925 27.1971 21.9984C26.9661 22.2278 26.6872 22.4034 26.3805 22.5126C26.0737 22.6218 25.7466 22.662 25.4226 22.6302C25.0985 22.5985 24.7854 22.4956 24.5057 22.3289C24.226 22.1622 23.9865 21.9358 23.8044 21.6659C23.5201 21.2453 23.3915 20.7387 23.4406 20.2333C23.4897 19.728 23.7136 19.2557 24.0736 18.8976C24.4887 18.4856 25.0498 18.2544 25.6347 18.2544H25.6374Z" fill="#232323"/>
<path d="M18.471 27.1649C18.4313 27.0702 18.3637 26.99 18.2772 26.9347C18.1962 26.8851 18.103 26.859 18.0081 26.8594V27.8512C18.1151 27.8527 18.2197 27.8192 18.3059 27.7558C18.3921 27.6924 18.4553 27.6026 18.4858 27.5C18.4998 27.4533 18.5067 27.4047 18.506 27.356C18.5065 27.2906 18.4946 27.2258 18.471 27.1649Z" fill="#3B3B3B"/>
<path d="M21.8516 6.20277C22.5634 6.91105 23.0888 7.78444 23.3811 8.74508C23.6734 9.70571 23.7234 10.7237 23.5267 11.7084C23.3301 12.6931 22.8928 13.6138 22.2539 14.3884C21.6151 15.1631 20.7945 15.7677 19.8653 16.1482C19.2729 16.3916 18.6464 16.5414 18.0081 16.5923V17.167C18.7158 17.1159 19.4109 16.9523 20.0671 16.6825C21.4484 16.1136 22.5968 15.0945 23.3259 13.7906C24.055 12.4868 24.3219 10.9749 24.0834 9.50019C23.845 8.02552 23.115 6.67476 22.0122 5.6672C20.9093 4.65965 19.4982 4.05447 18.0081 3.9499V4.4317C19.4584 4.54879 20.8203 5.17633 21.8516 6.20277Z" fill="#CECECE"/>
<path d="M22.6551 10.5133C22.6511 9.24061 22.1736 8.0149 21.3156 7.07483C20.4576 6.13475 19.2805 5.54757 18.0134 5.42759V10.255L19.8841 8.48927C19.9303 8.44026 19.9861 8.40116 20.0479 8.37438C20.1098 8.3476 20.1764 8.33369 20.2438 8.33348C20.3112 8.33328 20.3779 8.3468 20.4399 8.37321C20.5019 8.39962 20.5579 8.43838 20.6044 8.48711C20.651 8.53585 20.6871 8.59355 20.7106 8.6567C20.7342 8.71985 20.7446 8.78712 20.7413 8.85443C20.738 8.92174 20.721 8.98768 20.6914 9.04822C20.6618 9.10876 20.6202 9.16263 20.5691 9.20658L18.0121 11.6182V15.5991C19.2801 15.4804 20.4585 14.8937 21.3176 13.9535C22.1767 13.0133 22.655 11.7869 22.6591 10.5133H22.6551Z" fill="#30B255"/>
<path d="M20.7185 8.86206C20.72 8.76415 20.6927 8.66796 20.6399 8.58546C20.5872 8.50296 20.5113 8.43779 20.4218 8.39806C20.3323 8.35833 20.2331 8.34579 20.1366 8.36201C20.04 8.37823 19.9503 8.42249 19.8787 8.48928L18.0134 10.255V11.6183L20.5704 9.20658C20.6632 9.11567 20.7163 8.99189 20.7185 8.86206Z" fill="#232323"/>
<path d="M22.616 13.9021C23.4045 12.7303 23.7596 11.3202 23.6201 9.91479C23.4805 8.50935 22.8551 7.19661 21.8516 6.20277C20.8211 5.17896 19.4614 4.55298 18.0134 4.43574V5.42759C19.2698 5.56023 20.4326 6.15322 21.2778 7.09227C22.1229 8.03133 22.5905 9.24998 22.5905 10.5133C22.5905 11.7767 22.1229 12.9954 21.2778 13.9344C20.4326 14.8735 19.2698 15.4665 18.0134 15.5991V16.5923C18.9347 16.5198 19.8276 16.2401 20.6255 15.774C21.4235 15.3079 22.1058 14.6675 22.6214 13.9007L22.616 13.9021Z" fill="#232323"/>
</g>
<defs>
<clipPath id="clip0_846_4053">
<rect width="36" height="36.07" fill="white"/>
</clipPath>
</defs>
</svg>
