<svg width="31" height="31" viewBox="0 0 31 31" fill="none" xmlns="http://www.w3.org/2000/svg">
<g clip-path="url(#clip0_576_2571)">
<path d="M26.9837 21.2409C27.8591 20.577 28.4258 19.5263 28.4258 18.3454C28.4258 16.3422 26.7961 14.7125 24.793 14.7125C22.7898 14.7125 21.1602 16.3422 21.1602 18.3454C21.1602 19.5259 21.7265 20.5763 22.6014 21.2403C21.8754 21.5399 21.2148 21.9873 20.6628 22.5598C20.0439 21.3362 18.9997 20.3628 17.7259 19.835C18.6012 19.1711 19.168 18.1204 19.168 16.9395C19.168 14.9363 17.5383 13.3066 15.5352 13.3066C13.532 13.3066 11.9023 14.9363 11.9023 16.9395C11.9023 18.1204 12.4691 19.1711 13.3445 19.835C12.0706 20.3628 11.0265 21.3362 10.4076 22.5598C9.85555 21.9872 9.1949 21.5399 8.46887 21.2403C9.34379 20.5763 9.91016 19.5259 9.91016 18.3454C9.91016 16.3422 8.28049 14.7125 6.27734 14.7125C4.2742 14.7125 2.64453 16.3422 2.64453 18.3454C2.64453 19.5263 3.21125 20.577 4.08664 21.2409C2.00404 22.1037 0.535156 24.1577 0.535156 26.5485V29.9469C0.535156 30.2705 0.79748 30.5329 1.12109 30.5329H10.3789H20.6914H29.9492C30.2728 30.5329 30.5352 30.2705 30.5352 29.9469V26.5485C30.5352 24.1577 29.0663 22.1037 26.9837 21.2409ZM3.81641 18.3454C3.81641 16.9884 4.92037 15.8844 6.27734 15.8844C7.63432 15.8844 8.73828 16.9884 8.73828 18.3454C8.73828 19.7023 7.63432 20.8063 6.27734 20.8063C4.92037 20.8063 3.81641 19.7023 3.81641 18.3454ZM9.79297 25.1426V29.361H1.70703V26.5485C1.70703 24.0284 3.75729 21.9782 6.27734 21.9782C7.73088 21.9782 9.08381 22.6639 9.9459 23.8244C9.84606 24.2479 9.79297 24.6891 9.79297 25.1426ZM13.0742 16.9395C13.0742 15.5825 14.1782 14.4785 15.5352 14.4785C16.8921 14.4785 17.9961 15.5825 17.9961 16.9395C17.9961 18.2964 16.8921 19.4004 15.5352 19.4004C14.1782 19.4004 13.0742 18.2964 13.0742 16.9395ZM20.1055 29.361H18.9434V27.5137C18.9434 27.1901 18.6811 26.9278 18.3574 26.9278C18.0338 26.9278 17.7715 27.1901 17.7715 27.5137V29.361H10.9648V25.1426C10.9648 22.6225 13.0151 20.5723 15.5352 20.5723C18.0552 20.5723 20.1055 22.6225 20.1055 25.1426V29.361ZM22.332 18.3454C22.332 16.9884 23.436 15.8844 24.793 15.8844C26.1499 15.8844 27.2539 16.9884 27.2539 18.3454C27.2539 19.7023 26.1499 20.8063 24.793 20.8063C23.436 20.8063 22.332 19.7023 22.332 18.3454ZM29.3633 29.361H21.2773V25.1426C21.2773 24.6891 21.2243 24.2479 21.1244 23.8244C21.9865 22.6639 23.3394 21.9782 24.793 21.9782C27.313 21.9782 29.3633 24.0284 29.3633 26.5485V29.361Z" fill="url(#paint0_linear_576_2571)"/>
<path d="M21.3401 2.33764C21.1113 2.10878 20.7403 2.10884 20.5114 2.33764L18.5008 4.34823C18.272 4.57704 18.272 4.94805 18.5008 5.17692C18.6153 5.2913 18.7652 5.34854 18.9152 5.34854C19.0651 5.34854 19.2151 5.29135 19.3295 5.17692L21.3401 3.16634C21.5689 2.93753 21.5689 2.56651 21.3401 2.33764Z" fill="url(#paint1_linear_576_2571)"/>
<path d="M12.5694 4.34821L10.5588 2.33762C10.33 2.10881 9.95897 2.10881 9.7301 2.33762C9.50123 2.56643 9.50129 2.93745 9.7301 3.16631L11.7407 5.1769C11.8552 5.29133 12.0051 5.34852 12.1551 5.34852C12.305 5.34852 12.455 5.29133 12.5694 5.1769C12.7982 4.94809 12.7982 4.57708 12.5694 4.34821Z" fill="url(#paint2_linear_576_2571)"/>
<path d="M15.5352 0.533203C15.2115 0.533203 14.9492 0.795527 14.9492 1.11914V2.37814C14.9492 2.70176 15.2115 2.96408 15.5352 2.96408C15.8588 2.96408 16.1211 2.70176 16.1211 2.37814V1.11914C16.1211 0.795527 15.8588 0.533203 15.5352 0.533203Z" fill="url(#paint3_linear_576_2571)"/>
<path d="M20.0882 7.15166C19.9856 6.83602 19.7178 6.61037 19.3895 6.56268L17.2625 6.25359L16.3113 4.32621C16.1644 4.02861 15.8671 3.84375 15.5352 3.84375C15.2033 3.84375 14.906 4.02861 14.7591 4.32621L13.8078 6.25359L11.681 6.56268C11.3525 6.61037 11.0848 6.83607 10.9822 7.15166C10.8797 7.46725 10.9635 7.80721 11.2012 8.03889L12.7403 9.53912L12.377 11.6575C12.3209 11.9845 12.4527 12.3089 12.7212 12.504C12.8729 12.6142 13.0505 12.6703 13.2291 12.6703C13.3667 12.6703 13.505 12.6371 13.6327 12.5699L15.5352 11.5697L17.4376 12.5699C17.7313 12.7243 18.0806 12.6991 18.3492 12.504C18.6176 12.3089 18.7495 11.9845 18.6934 11.6575L18.3301 9.53912L19.8692 8.03889C20.1069 7.80721 20.1907 7.46725 20.0882 7.15166ZM17.3967 8.81244C17.1927 9.01131 17.0997 9.2976 17.1478 9.5785L17.4335 11.2438L15.938 10.4576C15.8119 10.3913 15.6735 10.3581 15.5352 10.3581C15.3968 10.3581 15.2585 10.3913 15.1324 10.4576L13.6369 11.2438L13.9226 9.57844C13.9707 9.29766 13.8776 9.01131 13.6736 8.81244L12.4637 7.63312L14.1357 7.39014C14.4177 7.34918 14.6614 7.17217 14.7874 6.91664L15.5352 5.40152L16.348 7.04842C16.4333 7.22127 16.5982 7.34109 16.7889 7.36893L18.6066 7.63307L17.3967 8.81244Z" fill="url(#paint4_linear_576_2571)"/>
<path d="M18.7719 24.8176C18.6624 24.7086 18.5118 24.6465 18.3577 24.6465C18.203 24.6465 18.0524 24.7086 17.9434 24.8176C17.8338 24.9271 17.7717 25.0777 17.7717 25.2324C17.7717 25.3865 17.8338 25.5377 17.9434 25.6466C18.0524 25.7557 18.203 25.8184 18.3577 25.8184C18.5118 25.8184 18.6624 25.7557 18.7719 25.6466C18.8809 25.5371 18.9436 25.3865 18.9436 25.2324C18.9436 25.0783 18.8809 24.9271 18.7719 24.8176Z" fill="url(#paint5_linear_576_2571)"/>
</g>
<defs>
<linearGradient id="paint0_linear_576_2571" x1="15.5352" y1="13.3066" x2="15.5352" y2="30.5329" gradientUnits="userSpaceOnUse">
<stop stop-color="#FFFFFF"/>
<stop offset="1" stop-color="#FFFFFF"/>
</linearGradient>
<linearGradient id="paint1_linear_576_2571" x1="19.9205" y1="2.16602" x2="19.9205" y2="5.34854" gradientUnits="userSpaceOnUse">
<stop stop-color="#FFFFFF"/>
<stop offset="1" stop-color="#FFFFFF"/>
</linearGradient>
<linearGradient id="paint2_linear_576_2571" x1="11.1497" y1="2.16602" x2="11.1497" y2="5.34852" gradientUnits="userSpaceOnUse">
<stop stop-color="#FFFFFF"/>
<stop offset="1" stop-color="#FFFFFF"/>
</linearGradient>
<linearGradient id="paint3_linear_576_2571" x1="15.5352" y1="0.533203" x2="15.5352" y2="2.96408" gradientUnits="userSpaceOnUse">
<stop stop-color="#FFFFFF"/>
<stop offset="1" stop-color="#FFFFFF"/>
</linearGradient>
<linearGradient id="paint4_linear_576_2571" x1="15.5352" y1="3.84375" x2="15.5352" y2="12.6703" gradientUnits="userSpaceOnUse">
<stop stop-color="#FFFFFF"/>
<stop offset="1" stop-color="#FFFFFF"/>
</linearGradient>
<linearGradient id="paint5_linear_576_2571" x1="18.3577" y1="24.6465" x2="18.3577" y2="25.8184" gradientUnits="userSpaceOnUse">
<stop stop-color="#FFFFFF"/>
<stop offset="1" stop-color="#FFFFFF"/>
</linearGradient>
<clipPath id="clip0_576_2571">
<path d="M0.535156 2.5332C0.535156 1.42863 1.43059 0.533203 2.53516 0.533203H28.5352C29.6397 0.533203 30.5352 1.42863 30.5352 2.5332V28.5332C30.5352 29.6378 29.6397 30.5332 28.5352 30.5332H2.53516C1.43059 30.5332 0.535156 29.6378 0.535156 28.5332V2.5332Z" fill="white"/>
</clipPath>
</defs>
</svg>
