<svg width="36" height="37" viewBox="0 0 36 37" fill="none" xmlns="http://www.w3.org/2000/svg">
<g clip-path="url(#clip0_817_3461)">
<path d="M30.1561 30.1572C36.8702 23.4431 36.8702 12.5574 30.1561 5.84331C23.442 -0.870789 12.5563 -0.87079 5.84219 5.84331C-0.871909 12.5574 -0.871906 23.4431 5.84219 30.1572C12.5563 36.8713 23.442 36.8713 30.1561 30.1572Z" fill="#676860"/>
<path d="M18 0.80748C21.4005 0.806682 24.7249 1.81433 27.5528 3.70298C30.3806 5.59164 32.5848 8.27646 33.8867 11.4179C35.1886 14.5594 35.5296 18.0163 34.8667 21.3516C34.2038 24.6869 32.5667 27.7507 30.1624 30.1555C27.7582 32.5603 24.6948 34.1982 21.3596 34.8619C18.0245 35.5256 14.5675 35.1854 11.4257 33.8842C8.28394 32.5831 5.59859 30.3795 3.70928 27.5521C1.81996 24.7247 0.811534 21.4005 0.811534 18C0.811891 13.4411 2.6228 9.06891 5.84607 5.84488C9.06935 2.62085 13.4411 0.808908 18 0.80748ZM18 3.7797e-06C13.8357 -2.93374e-05 9.80012 1.44386 6.581 4.08565C3.36187 6.72745 1.15832 10.4037 0.345812 14.488C-0.466697 18.5723 0.162103 22.812 2.12507 26.4847C4.08803 30.1574 7.26371 33.0359 11.111 34.6296C14.9583 36.2234 19.2392 36.4338 23.2243 35.2251C27.2094 34.0164 30.6521 31.4634 32.9659 28.001C35.2796 24.5385 36.3213 20.381 35.9133 16.2366C35.5053 12.0923 33.673 8.21764 30.7285 5.27283C29.0608 3.59614 27.0772 2.2668 24.8923 1.36173C22.7075 0.456664 20.3649 -0.00617211 18 3.7797e-06Z" fill="white"/>
<path d="M30.1581 30.2278C36.8722 23.5137 36.8722 12.628 30.1581 5.91394C23.444 -0.800161 12.5583 -0.800162 5.84417 5.91394C-0.869927 12.628 -0.869924 23.5137 5.84417 30.2278C12.5583 36.9419 23.444 36.9419 30.1581 30.2278Z" fill="#676860"/>
<path d="M18 0.878809C21.4006 0.87801 24.725 1.88565 27.5528 3.7743C30.3806 5.66296 32.5848 8.34778 33.8867 11.4892C35.1886 14.6307 35.5296 18.0877 34.8667 21.4229C34.2038 24.7582 32.5667 27.822 30.1624 30.2269C27.7582 32.6317 24.6948 34.2695 21.3596 34.9332C18.0245 35.5969 14.5675 35.2567 11.4257 33.9555C8.28395 32.6544 5.5986 30.4508 3.70928 27.6234C1.81996 24.796 0.81154 21.4719 0.811539 18.0713C0.811539 13.5123 2.62233 9.13991 5.84568 5.9158C9.06903 2.6917 13.441 0.879879 18 0.878809ZM18 0.0713322C13.8364 0.0718683 9.80169 1.51604 6.58343 4.15779C3.36517 6.79955 1.16243 10.4754 0.35052 14.5592C-0.46139 18.6429 0.167758 22.8818 2.13077 26.5537C4.09378 30.2256 7.2692 33.1032 11.116 34.6964C14.9628 36.2895 19.243 36.4996 23.2274 35.2908C27.2117 34.082 30.6536 31.5291 32.9668 28.0671C35.2799 24.6051 36.3211 20.4481 35.913 16.3045C35.5049 12.1609 33.6727 8.287 30.7285 5.34281C29.0607 3.6663 27.077 2.33717 24.8922 1.43233C22.7074 0.52749 20.3648 0.0649058 18 0.0713322Z" fill="white"/>
<path d="M35.1952 17.8991L20.7131 3.66325L15.6704 13.6073L18.6312 26.7154L11.2186 26.9051L6.77744 28.5954L7.64951 31.8011C14.5077 36.8936 22.2097 34.6757 22.2097 34.6757C24.4663 34.2576 26.558 33.2075 28.2415 31.6477C35.5667 26.4462 35.1952 17.8991 35.1952 17.8991Z" fill="#302C2C"/>
<path d="M29.5887 23.7492C29.3625 23.4601 29.0896 23.2108 28.7812 23.0117C29.2389 22.1831 29.3708 21.2134 29.151 20.2926C28.9312 19.3718 28.3755 18.5662 27.5928 18.0336C26.9744 17.6153 26.2448 17.3917 25.4981 17.3917C24.7514 17.3917 24.0219 17.6153 23.4034 18.0336C22.7835 18.4526 22.3023 19.0467 22.0212 19.7401C21.9876 19.8222 21.958 19.9043 21.9297 19.9877C21.9028 19.9043 21.8719 19.8209 21.8382 19.7388C21.4827 18.8731 20.8192 18.1697 19.9756 17.7645C20.3733 17.6732 20.7627 17.5489 21.1398 17.393C22.0234 17.0249 22.8249 16.4847 23.4976 15.8037C24.857 14.4239 25.619 12.5647 25.619 10.6277C25.619 8.69079 24.857 6.8316 23.4976 5.45182C22.825 4.7725 22.0244 4.23324 21.1421 3.86522C20.2598 3.4972 19.3133 3.3077 18.3573 3.3077C17.4014 3.3077 16.4549 3.4972 15.5726 3.86522C14.6903 4.23324 13.8897 4.7725 13.2171 5.45182C12.4568 6.21933 11.875 7.14497 11.5131 8.16287C11.1512 9.18077 11.018 10.2659 11.1231 11.3411C11.2282 12.4163 11.569 13.4551 12.1212 14.3837C12.6734 15.3122 13.4234 16.1077 14.3179 16.7134C15.0537 17.21 15.875 17.5664 16.7403 17.7645C16.5753 17.8427 16.4161 17.9327 16.2639 18.0336C15.6442 18.4523 15.1631 19.0458 14.8818 19.7388C14.8482 19.8209 14.8186 19.9043 14.7903 19.9877C14.7634 19.9043 14.7324 19.8209 14.7001 19.7388C14.4185 19.0452 13.9363 18.4515 13.3153 18.0336C12.6972 17.6144 11.9675 17.3903 11.2206 17.3903C10.4737 17.3903 9.74398 17.6144 9.12585 18.0336C8.50615 18.4523 8.02502 19.0458 7.74372 19.7388C7.52963 20.2643 7.43568 20.831 7.46874 21.3976C7.50181 21.9641 7.66104 22.516 7.93482 23.0131C7.62644 23.2122 7.35352 23.4615 7.12734 23.7506C6.67325 24.3339 6.42568 25.0515 6.42349 25.7908V27.7234C6.42349 28.05 6.55296 28.3633 6.78352 28.5946C7.01409 28.8259 7.32695 28.9564 7.65355 28.9575H16.2464C16.4617 28.9578 16.6732 28.9014 16.8596 28.7939C17.046 28.6864 17.2008 28.5316 17.3083 28.3451C17.3905 28.4882 17.5008 28.6132 17.6326 28.7125C17.8355 28.8654 18.0812 28.9506 18.3351 28.9561H18.3674C18.6133 28.9562 18.8534 28.8821 19.0565 28.7435C19.2031 28.6429 19.3266 28.5121 19.4185 28.3599C19.4696 28.4441 19.5301 28.5222 19.5988 28.5928C19.8299 28.8246 20.1435 28.9553 20.4709 28.9561H29.0638C29.2256 28.9559 29.3858 28.9239 29.5352 28.8617C29.6847 28.7996 29.8204 28.7086 29.9346 28.594C30.0488 28.4794 30.1394 28.3434 30.201 28.1938C30.2627 28.0441 30.2942 27.8838 30.2938 27.722V25.7895C30.2925 25.0498 30.0443 24.3318 29.5887 23.7492ZM21.0684 11.0894C21.0604 11.1351 21.0523 11.1809 21.0415 11.2239C20.9286 11.7405 20.6709 12.2143 20.2986 12.5899C19.9303 12.9617 19.4634 13.2204 18.9528 13.3355C18.9071 13.3462 18.86 13.3543 18.8183 13.3624L21.0684 11.0894ZM15.6476 10.1567C15.6556 10.111 15.6637 10.0665 15.6745 10.0221C15.789 9.50492 16.0485 9.03108 16.4227 8.65615C16.791 8.28432 17.258 8.02562 17.7685 7.91059C17.8143 7.89982 17.8587 7.89174 17.9031 7.88367L15.6476 10.1567ZM21.9257 22.3617C21.9996 22.5873 22.0947 22.8054 22.2097 23.0131C22.1119 23.0758 22.0176 23.1436 21.927 23.2163C21.8365 23.1436 21.7422 23.0758 21.6444 23.0131C21.7585 22.8053 21.8526 22.5872 21.9257 22.3617ZM14.793 22.3617C14.8668 22.5873 14.9619 22.8054 15.0769 23.0131C14.9792 23.0758 14.8849 23.1436 14.7943 23.2163C14.704 23.1439 14.6101 23.0761 14.5131 23.0131C14.6247 22.8053 14.7171 22.5877 14.7889 22.3631L14.793 22.3617ZM20.6997 26.4906H20.4736C20.1463 26.4916 19.8327 26.6222 19.6015 26.854C19.5325 26.9234 19.4724 27.0012 19.4225 27.0855C19.3132 26.9039 19.1589 26.7537 18.9746 26.6492C18.7902 26.5448 18.582 26.4897 18.3701 26.4893H18.3096C18.105 26.4984 17.9062 26.5593 17.7315 26.6661C17.5569 26.773 17.4122 26.9223 17.311 27.1003C17.2587 27.0094 17.195 26.9257 17.1212 26.8513C16.8901 26.6194 16.5765 26.4887 16.2491 26.4879H16.019V25.7868C16.0197 25.5662 16.1067 25.3547 16.2612 25.1973C16.3361 25.1213 16.4254 25.0608 16.5238 25.0195C16.6222 24.9781 16.7278 24.9567 16.8346 24.9564H19.8801C19.9872 24.9567 20.0931 24.9782 20.1917 25.0198C20.2904 25.0614 20.3798 25.1222 20.4547 25.1987C20.6084 25.3554 20.6948 25.5659 20.6956 25.7854L20.6997 26.4906Z" fill="#E5E5E5"/>
<path fill-rule="evenodd" clip-rule="evenodd" d="M14.7889 27.7368H7.65622V25.8002C7.65649 25.5293 7.70952 25.2609 7.81234 25.0102C7.96504 24.6353 8.22562 24.3142 8.56104 24.0875C8.89647 23.8609 9.29163 23.7389 9.69645 23.7371H12.7433C13.0122 23.7372 13.2785 23.7906 13.5266 23.8944C13.7747 23.9981 13.9998 24.15 14.1887 24.3414C14.573 24.7296 14.7883 25.254 14.7876 25.8002L14.7889 27.7368Z" fill="#FF0000"/>
<path d="M13.0058 22.9889C13.4797 22.5086 13.7455 21.8609 13.7455 21.1862C13.7455 20.5114 13.4797 19.8638 13.0058 19.3835C12.7722 19.1468 12.4939 18.9589 12.1871 18.8307C11.8803 18.7024 11.5511 18.6364 11.2186 18.6364C10.886 18.6364 10.5568 18.7024 10.25 18.8307C9.94321 18.9589 9.66494 19.1468 9.43134 19.3835C8.95737 19.8638 8.69162 20.5114 8.69162 21.1862C8.69162 21.8609 8.95737 22.5086 9.43134 22.9889C9.66494 23.2255 9.94321 23.4134 10.25 23.5417C10.5568 23.6699 10.886 23.736 11.2186 23.736C11.5511 23.736 11.8803 23.6699 12.1871 23.5417C12.4939 23.4134 12.7722 23.2255 13.0058 22.9889Z" fill="#FF0000"/>
<path fill-rule="evenodd" clip-rule="evenodd" d="M14.7889 27.7368V25.8002C14.7892 25.5293 14.8422 25.2609 14.9451 25.0102C15.0978 24.6353 15.3583 24.3142 15.6938 24.0875C16.0292 23.8609 16.4244 23.7389 16.8292 23.7371H19.8747C20.2794 23.7393 20.6744 23.8614 21.0098 24.088C21.3452 24.3146 21.6058 24.6355 21.7588 25.0102C21.8623 25.2608 21.9153 25.5292 21.9149 25.8002V27.7368" fill="#FF0000"/>
<path d="M20.1533 22.9889C20.6273 22.5083 20.8931 21.8605 20.8931 21.1855C20.8931 20.5105 20.6273 19.8626 20.1533 19.3821C19.9195 19.1456 19.641 18.9578 19.3341 18.8296C19.0272 18.7015 18.698 18.6355 18.3654 18.6355C18.0328 18.6355 17.7035 18.7015 17.3966 18.8296C17.0897 18.9578 16.8113 19.1456 16.5775 19.3821C16.1028 19.8623 15.8366 20.5103 15.8366 21.1855C15.8366 21.8607 16.1028 22.5087 16.5775 22.9889C16.8113 23.2254 17.0897 23.4132 17.3966 23.5413C17.7035 23.6695 18.0328 23.7355 18.3654 23.7355C18.698 23.7355 19.0272 23.6695 19.3341 23.5413C19.641 23.4132 19.9195 23.2254 20.1533 22.9889Z" fill="#FF0000"/>
<path fill-rule="evenodd" clip-rule="evenodd" d="M29.0625 27.7368H21.9298V25.8002C21.9291 25.254 22.1443 24.7296 22.5286 24.3414C22.7178 24.15 22.9431 23.998 23.1915 23.8943C23.4398 23.7906 23.7062 23.7372 23.9754 23.7371H27.0209C27.4256 23.7393 27.8206 23.8614 28.156 24.088C28.4913 24.3146 28.752 24.6355 28.905 25.0102C29.0085 25.2608 29.0615 25.5292 29.0611 25.8002L29.0625 27.7368Z" fill="#FF0000"/>
<path d="M25.5001 23.729C26.007 23.7347 26.5041 23.5895 26.9283 23.3119C27.3525 23.0344 27.6847 22.637 27.8825 22.1703C28.0804 21.7036 28.1351 21.1886 28.0397 20.6907C27.9442 20.1929 27.7029 19.7346 27.3465 19.3742C26.99 19.0138 26.5345 18.7674 26.0377 18.6664C25.541 18.5655 25.0254 18.6144 24.5565 18.8071C24.0876 18.9998 23.6866 19.3275 23.4044 19.7486C23.1221 20.1696 22.9714 20.6651 22.9714 21.172C22.9691 21.5061 23.0327 21.8373 23.1586 22.1468C23.2845 22.4562 23.4703 22.7377 23.7052 22.9753C23.9401 23.2128 24.2195 23.4016 24.5275 23.531C24.8356 23.6603 25.1661 23.7276 25.5001 23.729Z" fill="#FF0000"/>
<path fill-rule="evenodd" clip-rule="evenodd" d="M22.6255 6.32523C21.9964 5.68984 21.2334 5.20288 20.3922 4.89989C19.5509 4.59689 18.6527 4.4855 17.7629 4.57383C16.8731 4.66216 16.0143 4.94799 15.249 5.41047C14.4838 5.87295 13.8314 6.50042 13.3395 7.2471C12.6767 8.25074 12.3234 9.427 12.3234 10.6298C12.3234 11.8325 12.6767 13.0088 13.3395 14.0124C14.0009 15.0113 14.9437 15.7915 16.0486 16.2545C17.1517 16.7154 18.3673 16.8361 19.5394 16.6011C20.7116 16.3661 21.7867 15.7861 22.6269 14.9356C23.761 13.7892 24.3971 12.2417 24.3971 10.6291C24.3971 9.01646 23.761 7.46894 22.6269 6.32254L22.6255 6.32523ZM15.5439 7.79215C16.1625 7.16715 16.9714 6.76576 17.8433 6.65123C18.7151 6.53671 19.6002 6.71557 20.3592 7.15963L14.9168 12.6505C14.4759 11.8834 14.2985 10.9931 14.4118 10.1156C14.525 9.2382 14.9227 8.42207 15.5439 7.79215ZM21.1721 13.4687C20.5534 14.094 19.7441 14.4955 18.8719 14.6098C17.9998 14.7241 17.1144 14.5447 16.3555 14.0999L21.7979 8.61308C22.2385 9.38009 22.4158 10.2703 22.3028 11.1476C22.1898 12.0249 21.7927 12.8411 21.1721 13.4714V13.4687Z" fill="#FF0000"/>
<path d="M27.5996 23.3347C27.9161 23.0191 28.1589 22.6373 28.3107 22.2168C28.4625 21.7964 28.5194 21.3475 28.4775 20.9025C28.4356 20.4574 28.2958 20.0271 28.0682 19.6424C27.8406 19.2576 27.5307 18.928 27.1608 18.6769C26.6689 18.3436 26.0883 18.1655 25.4941 18.1655C24.8998 18.1655 24.3193 18.3436 23.8273 18.6769C23.3328 19.0112 22.9487 19.4847 22.7238 20.0375C22.498 20.5917 22.4408 21.2001 22.5593 21.7867C22.6778 22.3732 22.9667 22.9117 23.3899 23.3347C22.7976 23.4782 22.2774 23.8316 21.9257 24.3293C21.5741 23.8309 21.0532 23.4774 20.4601 23.3347C20.7763 23.0188 21.0188 22.637 21.1704 22.2165C21.322 21.796 21.379 21.3473 21.3372 20.9023C21.2954 20.4573 21.156 20.027 20.9288 19.6421C20.7015 19.2572 20.3922 18.9272 20.0227 18.6756C19.5302 18.3424 18.9492 18.1643 18.3546 18.1643C17.76 18.1643 17.179 18.3424 16.6865 18.6756C16.3172 18.9273 16.0079 19.2574 15.7808 19.6423C15.5537 20.0273 15.4144 20.4576 15.3728 20.9026C15.3311 21.3476 15.3882 21.7963 15.5399 22.2167C15.6916 22.6371 15.9342 23.0189 16.2505 23.3347C15.6582 23.4782 15.138 23.8316 14.7863 24.3293C14.4363 23.8322 13.918 23.4789 13.3274 23.3347C13.6436 23.0188 13.8861 22.637 14.0377 22.2165C14.1893 21.796 14.2463 21.3473 14.2045 20.9023C14.1627 20.4573 14.0233 20.027 13.796 19.6421C13.5688 19.2572 13.2595 18.9272 12.89 18.6756C12.3978 18.3423 11.817 18.1642 11.2226 18.1642C10.6282 18.1642 10.0474 18.3423 9.55515 18.6756C9.06057 19.0103 8.6765 19.4843 8.4516 20.0375C8.22667 20.5923 8.17054 21.2012 8.29025 21.7877C8.40995 22.3743 8.70017 22.9125 9.1245 23.3347C8.57154 23.4645 8.07901 23.7781 7.72757 24.2243C7.37788 24.6731 7.18839 25.2259 7.18925 25.7948V27.7368C7.18852 27.861 7.23689 27.9805 7.32383 28.0692C7.36718 28.1123 7.41864 28.1464 7.47523 28.1695C7.53182 28.1926 7.59243 28.2043 7.65355 28.2038H16.2464C16.3081 28.2036 16.369 28.1913 16.4259 28.1675C16.4827 28.1437 16.5343 28.109 16.5777 28.0652C16.6211 28.0215 16.6554 27.9696 16.6787 27.9125C16.702 27.8555 16.7138 27.7944 16.7134 27.7328C16.7141 27.6082 16.6657 27.4883 16.5789 27.399C16.4906 27.3122 16.3716 27.2638 16.2478 27.2645H15.2586V25.8002C15.2591 25.3789 15.4254 24.9748 15.7216 24.6751C15.8676 24.5277 16.0414 24.4105 16.2328 24.3304C16.4243 24.2502 16.6297 24.2087 16.8372 24.2082H19.8828C20.0903 24.2087 20.2957 24.2502 20.4872 24.3304C20.6786 24.4105 20.8524 24.5277 20.9984 24.6751C21.2951 24.9744 21.4615 25.3788 21.4614 25.8002V27.2645H20.4722C20.4111 27.264 20.3505 27.2757 20.2939 27.2988C20.2373 27.3219 20.1859 27.3559 20.1425 27.399C20.0558 27.4884 20.0074 27.6082 20.0079 27.7328C20.0072 27.857 20.0556 27.9765 20.1425 28.0652C20.1859 28.1083 20.2373 28.1424 20.2939 28.1655C20.3505 28.1886 20.4111 28.2002 20.4722 28.1998H29.0651C29.1268 28.1996 29.1877 28.1873 29.2446 28.1635C29.3014 28.1397 29.353 28.1049 29.3964 28.0612C29.4398 28.0174 29.4741 27.9655 29.4974 27.9085C29.5207 27.8514 29.5325 27.7904 29.5321 27.7287V25.8002C29.5331 25.2313 29.3436 24.6784 28.9938 24.2297C28.6434 23.7826 28.152 23.4671 27.5996 23.3347ZM11.2212 19.1103C11.6294 19.1101 12.0282 19.2319 12.3665 19.4602C12.7073 19.6889 12.9728 20.0133 13.1298 20.3925C13.2867 20.7717 13.3281 21.1888 13.2487 21.5915C13.1694 21.9941 12.9728 22.3643 12.6836 22.6556C12.3945 22.9468 12.0257 23.1461 11.6236 23.2284C11.2237 23.3089 10.8089 23.2676 10.4326 23.11C10.0553 22.9521 9.73345 22.6855 9.50805 22.3442C9.24312 21.9438 9.12407 21.4643 9.17088 20.9865C9.21768 20.5086 9.42751 20.0614 9.7651 19.7199C9.95556 19.5272 10.1823 19.3741 10.4322 19.2695C10.6821 19.1649 10.9503 19.1108 11.2212 19.1103ZM8.12592 25.8029C8.12587 25.3818 8.29172 24.9776 8.58753 24.6778C8.7334 24.5301 8.9071 24.4128 9.0986 24.3326C9.2901 24.2525 9.49559 24.2111 9.70319 24.2108H12.7501C12.9574 24.2113 13.1627 24.2527 13.3539 24.3329C13.5452 24.4131 13.7187 24.5303 13.8644 24.6778C14.1611 24.9771 14.3275 25.3815 14.3273 25.8029V27.2631H8.12054L8.12592 25.8029ZM18.358 19.1103C18.7657 19.1099 19.1642 19.2318 19.5019 19.4602C19.842 19.6887 20.1062 20.0134 20.261 20.3928C20.4175 20.7724 20.4588 21.1896 20.3795 21.5924C20.3003 21.9953 20.1041 22.3658 19.8155 22.6578C19.6005 22.8747 19.3398 23.0408 19.0525 23.1441C18.7651 23.2473 18.4583 23.2851 18.1545 23.2547C17.8506 23.2242 17.5574 23.1264 17.2962 22.9681C17.035 22.8099 16.8125 22.5954 16.6448 22.3402C16.3799 21.9397 16.2608 21.4603 16.3076 20.9824C16.3544 20.5046 16.5642 20.0573 16.9018 19.7159C17.0926 19.5239 17.3195 19.3716 17.5694 19.2676C17.8193 19.1637 18.0873 19.1102 18.358 19.1103ZM25.4907 19.1103C25.8984 19.1103 26.2967 19.2322 26.6346 19.4602C26.9744 19.6891 27.2385 20.0137 27.3937 20.3928C27.5502 20.7724 27.5915 21.1896 27.5123 21.5924C27.433 21.9953 27.2368 22.3658 26.9482 22.6578C26.6606 22.9477 26.2934 23.1459 25.8931 23.2271C25.4932 23.3076 25.0783 23.2664 24.7021 23.1086C24.3248 22.9508 24.0029 22.6842 23.7775 22.3429C23.5126 21.9424 23.3935 21.463 23.4403 20.9851C23.4871 20.5072 23.697 20.06 24.0346 19.7186C24.2256 19.5256 24.453 19.3725 24.7037 19.2681C24.9543 19.1637 25.2232 19.11 25.4947 19.1103H25.4907ZM28.586 27.2631H22.3927V25.8002C22.3931 25.3789 22.5595 24.9748 22.8556 24.6751C23.0017 24.5277 23.1754 24.4105 23.3669 24.3304C23.5583 24.2502 23.7638 24.2087 23.9713 24.2082H27.0168C27.2244 24.2087 27.4298 24.2502 27.6212 24.3304C27.8127 24.4105 27.9865 24.5277 28.1325 24.6751C28.4287 24.9748 28.595 25.3789 28.5955 25.8002L28.586 27.2631Z" fill="#3B3B3B"/>
<path d="M18.7981 27.5565C18.7612 27.467 18.6978 27.3909 18.6164 27.3385C18.5364 27.2868 18.4423 27.2614 18.3472 27.2658C18.2494 27.2696 18.1553 27.304 18.0781 27.364C18.0213 27.4092 17.9757 27.4666 17.9446 27.5321C17.9135 27.5976 17.8978 27.6693 17.8987 27.7418C17.8996 27.8143 17.9171 27.8856 17.9498 27.9503C17.9825 28.015 18.0296 28.0713 18.0875 28.115C18.1651 28.1735 18.2594 28.2055 18.3566 28.2065C18.4523 28.2088 18.5463 28.1816 18.6258 28.1285C18.7148 28.0666 18.7802 27.9765 18.8115 27.8727C18.8435 27.7689 18.8388 27.6572 18.7981 27.5565Z" fill="#3B3B3B"/>
<path d="M14.8576 13.1188C14.8773 13.1202 14.8971 13.1202 14.9168 13.1188C14.9782 13.1195 15.039 13.108 15.0959 13.0849C15.1527 13.0617 15.2044 13.0275 15.2479 12.9842L20.6889 7.49608C20.7402 7.44512 20.7789 7.38291 20.802 7.31439C20.837 7.21161 20.8357 7.09991 20.7982 6.998C20.7607 6.89608 20.6893 6.81013 20.5961 6.75455C19.7484 6.25607 18.7587 6.05464 17.7836 6.18212C16.8085 6.30961 15.9039 6.75874 15.2129 7.45839C14.5182 8.16263 14.0737 9.07529 13.9475 10.0564C13.8214 11.0375 14.0205 12.033 14.5144 12.89C14.5503 12.9522 14.6 13.0052 14.6598 13.0449C14.7196 13.0846 14.7877 13.1099 14.8589 13.1188H14.8576ZM15.8737 8.12994C16.3448 7.65418 16.9425 7.32356 17.5958 7.17733C18.2492 7.0311 18.9308 7.07541 19.5598 7.30498L15.0568 11.843C14.8282 11.2095 14.7836 10.5242 14.9282 9.86643C15.0727 9.20865 15.4005 8.60522 15.8737 8.12591V8.12994Z" fill="#3B3B3B"/>
<path d="M15.8925 14.1618C15.9019 14.2333 15.9271 14.3019 15.9665 14.3623C16.0063 14.4223 16.0592 14.4725 16.1213 14.509C16.9691 15.0076 17.9591 15.2089 18.9343 15.0809C19.9095 14.9529 20.814 14.503 21.5045 13.8025C22.1987 13.0992 22.6432 12.1876 22.7699 11.2076C22.8965 10.2275 22.6983 9.23289 22.2056 8.37622C22.1698 8.31406 22.12 8.26105 22.0602 8.22136C22.0005 8.18166 21.9323 8.15636 21.8611 8.14744C21.7901 8.13846 21.718 8.14593 21.6503 8.16926C21.5826 8.1926 21.5212 8.23117 21.4708 8.28202L16.0298 13.7702C15.979 13.8211 15.9404 13.883 15.9171 13.9511C15.8938 14.0192 15.8863 14.0917 15.8952 14.1631L15.8925 14.1618ZM21.6592 9.42056C21.888 10.0542 21.9325 10.7396 21.7877 11.3974C21.6429 12.0553 21.3146 12.6587 20.841 13.1376C20.3706 13.614 19.7731 13.9451 19.1198 14.0913C18.4665 14.2376 17.7848 14.1929 17.1562 13.9626L21.6592 9.42056Z" fill="#3B3B3B"/>
<path d="M18.358 17.1898C19.2134 17.1903 20.0604 17.021 20.8498 16.6915C21.6392 16.3621 22.3553 15.8791 22.9566 15.2707C24.1744 14.0341 24.8569 12.3681 24.8569 10.6325C24.8569 8.89683 24.1744 7.23083 22.9566 5.99417C22.3549 5.38634 21.6387 4.90383 20.8493 4.57453C20.06 4.24523 19.2132 4.07567 18.358 4.07567C17.5027 4.07567 16.6559 4.24523 15.8666 4.57453C15.0773 4.90383 14.3611 5.38634 13.7594 5.99417C13.0787 6.68238 12.5579 7.512 12.2339 8.42414C11.9099 9.33627 11.7907 10.3086 11.8847 11.2719C11.9788 12.2353 12.2837 13.1662 12.778 13.9985C13.2722 14.8308 13.9436 15.544 14.7445 16.0876C15.8125 16.8064 17.0707 17.1901 18.358 17.1898ZM14.4202 6.66034C15.3271 5.74262 16.5262 5.17056 17.8101 5.04303C19.0941 4.91549 20.3822 5.2405 21.452 5.96187C22.2531 6.50502 22.901 7.24515 23.3334 8.11108C23.7658 8.97702 23.9681 9.93963 23.921 10.9064C23.8738 11.8731 23.5787 12.8115 23.064 13.6312C22.5494 14.4509 21.8325 15.1244 20.9823 15.587C19.8461 16.1986 18.5321 16.3944 17.267 16.1406C16.0019 15.8868 14.8651 15.1993 14.0528 14.1968C13.4123 13.4069 12.9962 12.4591 12.8482 11.453C12.7002 10.4468 12.8258 9.41941 13.2117 8.47851C13.4911 7.79893 13.9018 7.1811 14.4202 6.66034Z" fill="#3B3B3B"/>
<g style="mix-blend-mode:darken">
<g style="mix-blend-mode:darken">
<path d="M29.5496 23.8946C29.3238 23.6051 29.0508 23.3558 28.7421 23.1571C29.2 22.328 29.3317 21.3578 29.1114 20.4366C28.8911 19.5155 28.3346 18.7098 27.5511 18.1776C27.088 17.8657 26.5611 17.6611 26.0088 17.5788C25.4565 17.4966 24.8929 17.5388 24.359 17.7024C23.8251 17.8659 23.3345 18.1467 22.9231 18.5242C22.5116 18.9016 22.1897 19.3663 21.9809 19.8841C21.9472 19.9649 21.9163 20.0483 21.8894 20.1317C21.8611 20.0483 21.8315 19.9649 21.7978 19.8828C21.5163 19.1896 21.0353 18.5956 20.4157 18.1763C20.2634 18.0748 20.1037 17.9848 19.938 17.9071C21.2748 17.6016 22.497 16.9214 23.4612 15.9463C24.8203 14.5664 25.5821 12.7072 25.5821 10.7704C25.5821 8.83355 24.8203 6.97442 23.4612 5.59447C22.7901 4.913 21.9897 4.37235 21.1069 4.00422C20.2241 3.63609 19.2768 3.44788 18.3203 3.45062V25.1058H19.8411C19.948 25.1059 20.0539 25.1272 20.1526 25.1686C20.2512 25.2099 20.3407 25.2705 20.4157 25.3467C20.5697 25.5038 20.6562 25.7148 20.6566 25.9348V26.6373H20.4319C20.2697 26.6376 20.1093 26.6698 19.9596 26.7321C19.81 26.7945 19.6741 26.8857 19.5598 27.0007C19.4908 27.0701 19.4307 27.1479 19.3808 27.2321C19.2828 27.0694 19.1488 26.9313 18.9892 26.8284C18.7915 26.7018 18.5617 26.6346 18.327 26.6346H18.319V29.1028H18.327C18.573 29.1035 18.8133 29.0294 19.0161 28.8902C19.1635 28.7895 19.2875 28.6582 19.3794 28.5053C19.4293 28.5903 19.4899 28.6685 19.5598 28.7381C19.674 28.8532 19.8099 28.9447 19.9595 29.0073C20.1092 29.0698 20.2697 29.1023 20.4319 29.1028H29.0234C29.1852 29.1026 29.3454 29.0706 29.4949 29.0084C29.6443 28.9463 29.78 28.8553 29.8942 28.7407C30.0085 28.6261 30.099 28.4901 30.1606 28.3405C30.2223 28.1908 30.2538 28.0305 30.2535 27.8687V25.9348C30.2525 25.1953 30.0048 24.4773 29.5496 23.8946ZM18.9178 13.4822C18.8721 13.4929 18.8263 13.501 18.7833 13.5091L21.0375 11.2347C21.0294 11.2804 21.0213 11.3249 21.0106 11.3693C20.8984 11.8855 20.6411 12.3589 20.269 12.7339C19.8982 13.1086 19.4272 13.3684 18.9125 13.4822H18.9178ZM21.892 23.3603C21.8021 23.2875 21.7082 23.2196 21.6108 23.1571C21.7246 22.9495 21.8192 22.7319 21.8934 22.5071C21.9665 22.7321 22.0607 22.9497 22.1747 23.1571C22.0752 23.2198 21.9791 23.2876 21.8867 23.3603H21.892Z" fill="#CECECE"/>
</g>
<g style="mix-blend-mode:darken">
<path d="M20.4695 27.399H21.4587V25.9348C21.4588 25.5134 21.2924 25.109 20.9957 24.8097C20.8497 24.6622 20.676 24.5451 20.4845 24.4649C20.293 24.3848 20.0876 24.3433 19.8801 24.3427H18.3661V27.4004C18.4547 27.4001 18.5416 27.4254 18.6164 27.4731C18.6978 27.5254 18.7612 27.6015 18.7981 27.6911C18.8209 27.7484 18.8319 27.8097 18.8304 27.8714H20.0025C20.002 27.7468 20.0504 27.627 20.1371 27.5376C20.1805 27.4935 20.2322 27.4585 20.2893 27.4347C20.3464 27.4109 20.4077 27.3988 20.4695 27.399Z" fill="#DB5A5A"/>
</g>
<g style="mix-blend-mode:darken">
<path d="M18.7604 23.363C19.1608 23.2821 19.528 23.0839 19.8155 22.7937C20.1041 22.5018 20.3003 22.1312 20.3795 21.7284C20.4588 21.3255 20.4175 20.9083 20.2609 20.5287C20.1062 20.1494 19.842 19.8247 19.5019 19.5961C19.1664 19.3693 18.771 19.2475 18.3661 19.2462V23.402C18.4984 23.401 18.6304 23.388 18.7604 23.363Z" fill="#DB5A5A"/>
</g>
<g style="mix-blend-mode:darken">
<path d="M27.0168 24.3427H23.9713C23.7637 24.3433 23.5583 24.3848 23.3669 24.4649C23.1754 24.5451 23.0017 24.6622 22.8556 24.8097C22.5594 25.1093 22.3931 25.5135 22.3927 25.9348V27.399H28.5954V25.9348C28.595 25.5135 28.4287 25.1093 28.1325 24.8097C27.9864 24.6622 27.8127 24.5451 27.6212 24.4649C27.4298 24.3848 27.2244 24.3433 27.0168 24.3427Z" fill="#DB5A5A"/>
</g>
<g style="mix-blend-mode:darken">
<path d="M24.7061 23.2446C25.0823 23.4023 25.4972 23.4436 25.8971 23.363C26.2975 23.2804 26.6645 23.0812 26.9519 22.7905C27.2393 22.4998 27.4342 22.1305 27.5121 21.7292C27.5912 21.3261 27.55 20.9086 27.3937 20.5287C27.2385 20.1496 26.9744 19.825 26.6346 19.5961C26.2391 19.3292 25.7628 19.2089 25.288 19.2561C24.8132 19.3033 24.3698 19.515 24.0345 19.8545C23.697 20.196 23.4871 20.6432 23.4403 21.121C23.3935 21.5989 23.5126 22.0783 23.7775 22.4788C24.004 22.8207 24.3273 23.0873 24.7061 23.2446Z" fill="#DB5A5A"/>
</g>
<g style="mix-blend-mode:darken">
<path d="M20.9823 15.7216C22.1206 15.1067 23.0108 14.1166 23.5016 12.9196C23.9941 11.7201 24.0592 10.3878 23.6861 9.14598C23.3129 7.90418 22.5241 6.82844 21.452 6.09914C20.5397 5.48572 19.4654 5.15777 18.366 5.15709V6.28486C19.1494 6.2851 19.9185 6.49365 20.5947 6.88912C20.688 6.94471 20.7593 7.03065 20.7968 7.13257C20.8343 7.23449 20.8356 7.34619 20.8006 7.44897C20.7775 7.51749 20.7388 7.57969 20.6875 7.63066L18.3647 9.97503V11.5442L21.46 8.4166C21.5104 8.36575 21.5718 8.32718 21.6395 8.30384C21.7072 8.28051 21.7793 8.27304 21.8503 8.28202C21.9215 8.29094 21.9897 8.31624 22.0495 8.35594C22.1092 8.39563 22.159 8.44864 22.1948 8.5108C22.6875 9.36747 22.8857 10.3621 22.7591 11.3421C22.6324 12.3222 22.1879 13.2338 21.4937 13.937C21.0845 14.353 20.5967 14.6834 20.0585 14.9089C19.5204 15.1344 18.9428 15.2505 18.3593 15.2505V16.3837C19.2749 16.3833 20.1762 16.1558 20.9823 15.7216Z" fill="#DB5A5A"/>
</g>
<g style="mix-blend-mode:darken">
<path d="M28.9884 24.3589C28.6394 23.9128 28.15 23.5974 27.5996 23.4639C27.9161 23.1482 28.1589 22.7665 28.3107 22.346C28.4624 21.9256 28.5194 21.4767 28.4775 21.0317C28.4356 20.5866 28.2958 20.1563 28.0682 19.7716C27.8406 19.3868 27.5307 19.0572 27.1608 18.8061C26.6689 18.4728 26.0883 18.2947 25.4941 18.2947C24.8998 18.2947 24.3192 18.4728 23.8273 18.8061C23.3328 19.1404 22.9487 19.6139 22.7237 20.1667C22.498 20.7209 22.4408 21.3293 22.5593 21.9159C22.6778 22.5024 22.9667 23.0409 23.3899 23.4639C22.7976 23.6074 22.2774 23.9608 21.9257 24.4585C21.5731 23.9621 21.0524 23.6106 20.4601 23.4693C20.7763 23.1534 21.0188 22.7715 21.1704 22.3511C21.322 21.9306 21.379 21.4819 21.3372 21.0369C21.2954 20.5919 21.156 20.1616 20.9287 19.7767C20.7015 19.3918 20.3922 19.0618 20.0227 18.8102C19.5329 18.4783 18.9551 18.3002 18.3634 18.2988V19.2408C18.7683 19.2421 19.1637 19.364 19.4992 19.5907C19.8393 19.8193 20.1035 20.144 20.2583 20.5234C20.4148 20.9029 20.4561 21.3201 20.3768 21.723C20.2976 22.1258 20.1014 22.4964 19.8128 22.7883C19.5253 23.0786 19.1581 23.2767 18.7577 23.3576C18.6277 23.3826 18.4957 23.3956 18.3634 23.3966V24.3387H19.8774C20.0849 24.3392 20.2903 24.3808 20.4818 24.4609C20.6733 24.541 20.847 24.6582 20.9931 24.8057C21.2897 25.105 21.4561 25.5094 21.456 25.9308V27.395H20.4668C20.4057 27.3945 20.3451 27.4062 20.2885 27.4293C20.2319 27.4524 20.1805 27.4865 20.1371 27.5296C20.0504 27.619 20.002 27.7388 20.0025 27.8633C20.0018 27.9875 20.0502 28.107 20.1371 28.1957C20.1805 28.2388 20.2319 28.2729 20.2885 28.296C20.3451 28.3191 20.4057 28.3308 20.4668 28.3303H29.0597C29.1214 28.3301 29.1823 28.3178 29.2392 28.294C29.296 28.2702 29.3476 28.2355 29.391 28.1917C29.4344 28.148 29.4687 28.0961 29.492 28.039C29.5153 27.982 29.5271 27.9209 29.5267 27.8593V25.9348C29.5289 25.364 29.3393 24.8091 28.9884 24.3589ZM24.0386 19.8491C24.2777 19.6071 24.5731 19.4284 24.8984 19.3288C25.2237 19.2292 25.5686 19.2121 25.9022 19.2788C26.2358 19.3455 26.5475 19.494 26.8095 19.711C27.0715 19.928 27.2754 20.2067 27.4031 20.522C27.5596 20.9015 27.6009 21.3188 27.5217 21.7216C27.4424 22.1245 27.2462 22.495 26.9576 22.787C26.67 23.0769 26.3028 23.2751 25.9025 23.3563C25.5026 23.4368 25.0877 23.3956 24.7115 23.2378C24.3342 23.0799 24.0123 22.8134 23.7869 22.4721C23.522 22.0716 23.4029 21.5922 23.4497 21.1143C23.4966 20.6364 23.7064 20.1892 24.044 19.8478L24.0386 19.8491ZM28.5954 27.3936H22.3927V25.9348C22.3931 25.5135 22.5594 25.1093 22.8556 24.8097C23.0017 24.6622 23.1754 24.5451 23.3669 24.4649C23.5583 24.3848 23.7637 24.3433 23.9713 24.3427H27.0168C27.2244 24.3433 27.4298 24.3848 27.6212 24.4649C27.8127 24.5451 27.9864 24.6622 28.1325 24.8097C28.4287 25.1093 28.595 25.5135 28.5954 25.9348V27.3936Z" fill="#232323"/>
</g>
<g style="mix-blend-mode:darken">
<path d="M18.6164 27.4731C18.5416 27.4254 18.4547 27.4001 18.3661 27.4004V28.3424C18.4584 28.3423 18.5487 28.3152 18.6258 28.2644C18.7148 28.2025 18.7802 28.1124 18.8115 28.0087C18.8243 27.965 18.8307 27.9196 18.8303 27.8741C18.8319 27.8124 18.8209 27.7511 18.798 27.6938C18.7617 27.6032 18.6982 27.5262 18.6164 27.4731Z" fill="#3B3B3B"/>
</g>
<g style="mix-blend-mode:darken">
<path d="M20.8019 7.44897C20.837 7.34619 20.8357 7.23449 20.7982 7.13257C20.7607 7.03066 20.6893 6.94471 20.596 6.88913C19.92 6.49153 19.1503 6.28111 18.3661 6.27948V7.22153C18.7733 7.2224 19.1773 7.29436 19.5598 7.43417L18.3661 8.64539V9.97638L20.6889 7.63066C20.7402 7.5797 20.7789 7.51749 20.8019 7.44897Z" fill="#3B3B3B"/>
</g>
<g style="mix-blend-mode:darken">
<path d="M18.93 15.2142C19.9045 15.0847 20.8086 14.6355 21.5004 13.9371C22.1947 13.2338 22.6392 12.3222 22.7658 11.3421C22.8925 10.3621 22.6943 9.36747 22.2016 8.51081C22.1657 8.44864 22.116 8.39564 22.0562 8.35594C21.9964 8.31625 21.9283 8.29094 21.8571 8.28202C21.786 8.27304 21.7139 8.28051 21.6462 8.30385C21.5786 8.32718 21.5172 8.36576 21.4668 8.4166L18.3714 11.5442V12.8766L21.6592 9.55515C21.8879 10.1887 21.9325 10.8742 21.7877 11.532C21.6428 12.1899 21.3146 12.7932 20.841 13.2722C20.3689 13.7493 19.7695 14.0805 19.1143 14.2264C18.8678 14.2816 18.616 14.3096 18.3634 14.3098V15.2519C18.5528 15.2515 18.7421 15.2389 18.93 15.2142Z" fill="#3B3B3B"/>
</g>
<g style="mix-blend-mode:darken">
<path d="M21.452 6.09645C22.2531 6.6396 22.901 7.37973 23.3334 8.24566C23.7658 9.1116 23.9681 10.0742 23.921 11.041C23.8738 12.0077 23.5787 12.946 23.064 13.7658C22.5494 14.5855 21.8325 15.259 20.9823 15.7216C20.1782 16.1547 19.2794 16.3822 18.3661 16.3837V17.3258C19.2201 17.3252 20.0655 17.1553 20.8535 16.8259C21.6414 16.4965 22.3562 16.0141 22.9566 15.4067C24.1744 14.17 24.8569 12.504 24.8569 10.7684C24.8569 9.03276 24.1744 7.36676 22.9566 6.1301C22.3564 5.52253 21.6416 5.04016 20.8536 4.71096C20.0656 4.38176 19.2201 4.21227 18.3661 4.21234V5.1544C19.4654 5.15508 20.5397 5.48303 21.452 6.09645Z" fill="#232323"/>
</g>
</g>
</g>
<defs>
<clipPath id="clip0_817_3461">
<rect width="36" height="36.07" fill="white"/>
</clipPath>
</defs>
</svg>
