<svg width="36" height="37" viewBox="0 0 36 37" fill="none" xmlns="http://www.w3.org/2000/svg">
<g clip-path="url(#clip0_782_5975)">
<path d="M30.1571 30.1574C36.8712 23.4433 36.8712 12.5576 30.1571 5.84354C23.443 -0.870558 12.5573 -0.870565 5.84317 5.84353C-0.87093 12.5576 -0.87093 23.4433 5.84317 30.1574C12.5573 36.8715 23.443 36.8715 30.1571 30.1574Z" fill="#C2C1C5"/>
<path d="M18 0.807473C21.4004 0.807473 24.7244 1.81579 27.5517 3.70493C30.379 5.59407 32.5826 8.27918 33.8838 11.4207C35.1851 14.5622 35.5256 18.0191 34.8622 21.3541C34.1988 24.6891 32.5614 27.7525 30.157 30.1569C27.7525 32.5614 24.6891 34.1988 21.3541 34.8622C18.0191 35.5255 14.5622 35.1851 11.4207 33.8838C8.27918 32.5826 5.59407 30.379 3.70493 27.5517C1.81579 24.7244 0.807473 21.4004 0.807473 18C0.807473 13.4403 2.61882 9.06727 5.84305 5.84305C9.06727 2.61882 13.4403 0.807473 18 0.807473ZM18 -3.69306e-06C13.8363 0.000532424 9.80166 1.4447 6.5834 4.08646C3.36514 6.72821 1.1624 10.4041 0.350491 14.4878C-0.46142 18.5716 0.167724 22.8105 2.13074 26.4824C4.09375 30.1542 7.26918 33.0319 11.116 34.625C14.9628 36.2182 19.243 36.4283 23.2273 35.2195C27.2117 34.0107 30.6536 31.4578 32.9668 27.9958C35.2799 24.5338 36.3211 20.3768 35.913 16.2332C35.5048 12.0896 33.6726 8.21567 30.7285 5.27147C29.0609 3.59478 27.0772 2.26554 24.8923 1.36069C22.7075 0.455838 20.3648 -0.00665307 18 -3.69306e-06Z" fill="white"/>
<path d="M30.1568 30.2271C36.8709 23.513 36.8709 12.6273 30.1568 5.91322C23.4427 -0.800881 12.557 -0.800887 5.84286 5.91321C-0.871234 12.6273 -0.871234 23.513 5.84286 30.2271C12.557 36.9412 23.4427 36.9412 30.1568 30.2271Z" fill="#676860"/>
<path d="M18 0.882839C21.4006 0.882839 24.7248 1.8913 27.5522 3.78068C30.3796 5.67005 32.5832 8.35548 33.8843 11.4973C35.1854 14.6392 35.5256 18.0963 34.8618 21.4314C34.198 24.7666 32.56 27.83 30.155 30.2342C27.7501 32.6384 24.6862 34.2754 21.3508 34.9382C18.0154 35.601 14.5584 35.2597 11.417 33.9576C8.27555 32.6555 5.59082 30.4511 3.70233 27.6231C1.81384 24.7951 0.80642 21.4706 0.807485 18.07C0.808912 13.5112 2.62089 9.13957 5.84495 5.91651C9.06902 2.69345 13.4412 0.882839 18 0.882839ZM18 0.0753623C13.8356 0.0753292 9.8001 1.51922 6.58098 4.16101C3.36185 6.80281 1.15831 10.4791 0.345796 14.5634C-0.466713 18.6477 0.162091 22.8874 2.12506 26.5601C4.08802 30.2328 7.2637 33.1112 11.111 34.705C14.9583 36.2987 19.2392 36.5092 23.2243 35.3005C27.2094 34.0918 30.6521 31.5387 32.9658 28.0763C35.2796 24.6139 36.3212 20.4563 35.9133 16.312C35.5053 12.1677 33.673 8.293 30.7285 5.34818C29.0611 3.67107 27.0775 2.34146 24.8926 1.43636C22.7077 0.531262 20.3649 0.0686662 18 0.0753623Z" fill="white"/>
<path d="M35.2504 17.8062L17.5411 4.02393L15.7256 13.5091L18.6864 26.6171L11.2737 26.8069L4.47745 28.617L7.70736 31.7029C14.5615 36.7954 22.2621 34.5775 22.2621 34.5775C24.5188 34.1593 26.6105 33.1093 28.294 31.5495C35.6218 26.348 35.2504 17.8062 35.2504 17.8062Z" fill="#302C2C"/>
<path d="M20.4709 28.3209C20.2832 28.3195 20.0992 28.2691 19.937 28.1747C19.7748 28.0803 19.6402 27.9451 19.5463 27.7826H19.0457C18.9669 27.9208 18.8584 28.0398 18.7281 28.1311C18.5509 28.2549 18.3399 28.3211 18.1238 28.3209H18.0969C17.873 28.3148 17.6568 28.238 17.4792 28.1015C17.3667 28.0141 17.2721 27.9058 17.2006 27.7826H16.6838C16.6388 27.8601 16.5845 27.932 16.5223 27.9966C16.4232 28.0987 16.3046 28.1801 16.1735 28.2358C16.0425 28.2915 15.9016 28.3204 15.7593 28.3209H6.17855C6.03603 28.3205 5.89506 28.2914 5.76398 28.2355C5.6329 28.1795 5.5144 28.0978 5.41548 27.9952C5.21757 27.7912 5.10743 27.5177 5.10864 27.2335V25.021C5.1097 24.2522 5.36154 23.5047 5.82595 22.892C6.11957 22.5071 6.49218 22.1896 6.91873 21.9607C6.64 21.528 6.44633 21.0461 6.34812 20.5409C6.19422 19.7664 6.2676 18.9639 6.55941 18.2301C6.84618 17.5008 7.34258 16.8728 7.98595 16.4254C8.62343 15.9812 9.38175 15.7431 10.1587 15.7431C10.9357 15.7431 11.694 15.9812 12.3315 16.4254C12.9749 16.8728 13.4713 17.5008 13.7581 18.2301C14.0498 18.9634 14.1231 19.7655 13.9694 20.5395C13.8711 21.0454 13.677 21.5278 13.3974 21.9607C13.6675 22.1056 13.9165 22.2867 14.1376 22.499C14.3586 22.2867 14.6077 22.1056 14.8778 21.9607C14.5986 21.5281 14.4044 21.0462 14.3058 20.5409C14.1519 19.7664 14.2253 18.9639 14.5171 18.2301C14.8039 17.5008 15.3003 16.8728 15.9436 16.4254C16.5811 15.9812 17.3394 15.7431 18.1164 15.7431C18.8934 15.7431 19.6517 15.9812 20.2892 16.4254C20.9326 16.8728 21.429 17.5008 21.7157 18.2301C22.0076 18.9639 22.0809 19.7664 21.927 20.5409C21.8284 21.0462 21.6343 21.5281 21.3551 21.9607C21.6252 22.1056 21.8742 22.2867 22.0953 22.499C22.3163 22.2867 22.5653 22.1056 22.8354 21.9607C22.5562 21.5281 22.3621 21.0462 22.2635 20.5409C22.1102 19.7668 22.1836 18.9649 22.4748 18.2315C22.7621 17.5021 23.2589 16.8741 23.9027 16.4268C24.5397 15.9826 25.2975 15.7445 26.0741 15.7445C26.8507 15.7445 27.6085 15.9826 28.2455 16.4268C28.8893 16.8738 29.3858 17.5019 29.6721 18.2315C29.9637 18.9648 30.0375 19.7666 29.8847 20.5409C29.7861 21.0462 29.592 21.5281 29.3128 21.9607C29.7393 22.1896 30.1119 22.5071 30.4055 22.892C30.8698 23.5043 31.1216 24.2513 31.1228 25.0197V27.2335C31.1238 27.5181 31.0138 27.7919 30.816 27.9966C30.7166 28.0984 30.5979 28.1795 30.4669 28.2351C30.336 28.2908 30.1953 28.32 30.0529 28.3209H20.4709Z" fill="#EAEAEA"/>
<path d="M17.5303 16.4685C16.4591 16.4679 15.4071 16.1842 14.4808 15.6462L12.5724 16.1845C12.4847 16.2089 12.3942 16.2215 12.3033 16.2222C12.1599 16.2218 12.0183 16.1913 11.8876 16.1326C11.7568 16.074 11.6398 15.9885 11.5442 15.8817H11.5375L11.5106 15.8481C11.3882 15.6959 11.3108 15.5126 11.2871 15.3188C11.2633 15.125 11.2941 14.9285 11.376 14.7512C11.7762 13.8748 11.8441 12.8828 11.5671 11.9601C11.4844 11.6877 11.4192 11.4104 11.372 11.1297C11.0836 9.45473 11.4592 7.7333 12.419 6.33061C12.8835 5.6414 13.4816 5.05246 14.1779 4.59867C14.8742 4.14488 15.6545 3.83548 16.4725 3.68882C16.5116 3.68882 16.5492 3.67805 16.5856 3.67536C18.1403 3.423 19.7322 3.78336 21.0267 4.68067C22.065 5.39254 22.8691 6.39614 23.3374 7.56471C23.8145 8.74085 23.9412 10.0299 23.7021 11.2764C23.4682 12.5186 22.8759 13.6652 21.9984 14.5749C21.4225 15.176 20.731 15.6545 19.9655 15.9815C19.2 16.3085 18.3762 16.4774 17.5438 16.4779L17.5303 16.4685Z" fill="#EAEAEA"/>
<path d="M21.5058 12.7501C21.3789 12.946 21.2381 13.1327 21.0846 13.3086C21.2165 13.1296 21.3551 12.9438 21.5058 12.7501Z" fill="#3B3B3B"/>
<path d="M11.9359 15.3824C11.9359 15.3824 12.2481 14.9693 12.5468 12.8577C12.8456 10.7462 11.0584 6.14221 15.3044 5.00501C19.5504 3.86781 21.0011 5.38318 21.386 6.51903C21.7709 7.65488 23.3172 10.3155 21.5085 12.6303C19.6997 14.945 19.4494 16.3406 17.1522 15.3824C14.8549 14.4242 14.5144 13.937 14.5144 13.937L11.9359 15.3824Z" fill="#FFD400"/>
<path fill-rule="evenodd" clip-rule="evenodd" d="M14.1362 27.1178H6.17854V24.9053C6.17849 24.596 6.23742 24.2895 6.35216 24.0022C6.46571 23.7178 6.63345 23.4582 6.84606 23.2378C7.05651 23.0201 7.3081 22.8462 7.58625 22.7264C7.86228 22.6083 8.15942 22.5474 8.45967 22.5474H11.8564C12.1582 22.5479 12.4568 22.6093 12.7343 22.7279C13.0118 22.8466 13.2625 23.02 13.4714 23.2378C13.9031 23.6856 14.1443 24.2833 14.1443 24.9053L14.1362 27.1178Z" fill="#FFD400"/>
<path d="M10.154 22.5447C11.7104 22.5447 12.9721 21.2403 12.9721 19.6311C12.9721 18.0219 11.7104 16.7175 10.154 16.7175C8.59763 16.7175 7.33592 18.0219 7.33592 19.6311C7.33592 21.2403 8.59763 22.5447 10.154 22.5447Z" fill="#FFD400"/>
<path fill-rule="evenodd" clip-rule="evenodd" d="M14.1362 27.1178V24.9053C14.1362 24.596 14.1951 24.2895 14.3098 24.0022C14.4234 23.7178 14.5911 23.4582 14.8037 23.2378C15.014 23.0198 15.2656 22.8459 15.5439 22.7264C15.8195 22.6084 16.1162 22.5475 16.416 22.5474H19.8141C20.1139 22.5475 20.4106 22.6084 20.6862 22.7264C20.9644 22.8462 21.2159 23.0201 21.4264 23.2378C21.639 23.4582 21.8068 23.7178 21.9203 24.0022C22.035 24.2895 22.094 24.596 22.0939 24.9053V27.1178" fill="#FFD400"/>
<path d="M20.1169 21.6915C20.647 21.1362 20.9427 20.3981 20.9427 19.6304C20.9427 18.8628 20.647 18.1246 20.1169 17.5693C19.8597 17.2995 19.5503 17.0847 19.2076 16.938C18.8649 16.7912 18.4959 16.7155 18.1231 16.7155C17.7503 16.7155 17.3814 16.7912 17.0387 16.938C16.696 17.0847 16.3866 17.2995 16.1293 17.5693C15.5993 18.1246 15.3035 18.8628 15.3035 19.6304C15.3035 20.3981 15.5993 21.1362 16.1293 21.6915C16.3866 21.9613 16.696 22.1761 17.0387 22.3229C17.3814 22.4696 17.7503 22.5453 18.1231 22.5453C18.4959 22.5453 18.8649 22.4696 19.2076 22.3229C19.5503 22.1761 19.8597 21.9613 20.1169 21.6915Z" fill="#FFD400"/>
<path fill-rule="evenodd" clip-rule="evenodd" d="M30.0516 27.1178H22.0939V24.9053C22.0939 24.2833 22.3351 23.6856 22.7668 23.2378C22.9757 23.02 23.2264 22.8466 23.5039 22.7279C23.7814 22.6093 24.08 22.5479 24.3818 22.5474H27.7785C28.0788 22.5474 28.3759 22.6083 28.652 22.7264C28.9301 22.8462 29.1817 23.0201 29.3921 23.2378C29.6048 23.4582 29.7725 23.7178 29.8861 24.0022C30.0008 24.2895 30.0597 24.596 30.0597 24.9053L30.0516 27.1178Z" fill="#FFD400"/>
<path d="M26.0788 22.538C27.6359 22.538 28.8982 21.2326 28.8982 19.623C28.8982 18.0135 27.6359 16.708 26.0788 16.708C24.5217 16.708 23.2607 18.0135 23.2607 19.623C23.2607 21.2326 24.5231 22.538 26.0788 22.538Z" fill="#FFD400"/>
<path d="M28.4192 22.0858C28.8935 21.5997 29.2154 20.9855 29.3451 20.3188C29.4767 19.6483 29.4127 18.9541 29.1607 18.319C28.9137 17.6901 28.4862 17.1483 27.932 16.7619C27.3865 16.3817 26.7376 16.1779 26.0728 16.1779C25.4079 16.1779 24.759 16.3817 24.2135 16.7619C23.6593 17.1486 23.2314 17.6902 22.9835 18.319C22.7319 18.9542 22.6683 19.6484 22.8005 20.3188C22.9297 20.9854 23.2511 21.5996 23.725 22.0858C23.061 22.2538 22.4811 22.6581 22.0939 23.223C21.7067 22.6572 21.1262 22.2524 20.4615 22.0845C20.9363 21.5987 21.2582 20.9844 21.3874 20.3175C21.5194 19.6466 21.4559 18.952 21.2043 18.3163C20.9559 17.6889 20.5281 17.1487 19.9743 16.7632C19.4292 16.3821 18.7802 16.1777 18.1151 16.1777C17.45 16.1777 16.8009 16.3821 16.2559 16.7632C15.7017 17.1494 15.2738 17.6906 15.0258 18.319C14.7742 18.9547 14.7107 19.6493 14.8428 20.3202C14.9726 20.9864 15.2945 21.6002 15.7687 22.0858C15.1042 22.2535 14.5238 22.6578 14.1362 23.223C13.7493 22.6576 13.1693 22.2528 12.5051 22.0845C12.9791 21.5983 13.3005 20.984 13.4297 20.3175C13.5618 19.6466 13.4982 18.952 13.2467 18.3163C12.9982 17.6889 12.5704 17.1487 12.0166 16.7632C11.4715 16.3821 10.8225 16.1777 10.1574 16.1777C9.49229 16.1777 8.84326 16.3821 8.29818 16.7632C7.74398 17.1494 7.31609 17.6906 7.06812 18.319C6.81726 18.9544 6.7542 19.6485 6.88644 20.3188C7.01558 20.9857 7.33751 21.6001 7.81235 22.0858C7.19443 22.2408 6.64795 22.6021 6.26334 23.11C5.87075 23.6261 5.65846 24.2568 5.65908 24.9053V27.1178C5.65868 27.2596 5.71317 27.3961 5.81115 27.4986C5.85867 27.5487 5.91586 27.5885 5.97924 27.6158C6.04263 27.6431 6.11089 27.6573 6.1799 27.6574H15.7606C15.8296 27.6573 15.8979 27.6431 15.9613 27.6158C16.0246 27.5885 16.0818 27.5487 16.1294 27.4986C16.227 27.3958 16.2814 27.2595 16.2814 27.1178C16.2814 26.976 16.227 26.8397 16.1294 26.7369C16.0816 26.6873 16.0243 26.6478 15.961 26.6207C15.8976 26.5937 15.8295 26.5796 15.7606 26.5794H14.6584V24.9053C14.658 24.4258 14.8432 23.9647 15.1752 23.6187C15.3354 23.4501 15.528 23.3155 15.7415 23.223C15.9549 23.1305 16.1848 23.082 16.4174 23.0804H19.8155C20.0481 23.082 20.278 23.1305 20.4914 23.223C20.7048 23.3155 20.8974 23.4501 21.0577 23.6187C21.3897 23.9647 21.5749 24.4258 21.5744 24.9053V26.5794H20.4722C20.4034 26.5796 20.3352 26.5937 20.2719 26.6207C20.2085 26.6478 20.1513 26.6873 20.1035 26.7369C20.0059 26.8397 19.9515 26.976 19.9515 27.1178C19.9515 27.2595 20.0059 27.3958 20.1035 27.4986C20.151 27.5487 20.2082 27.5885 20.2716 27.6158C20.335 27.6431 20.4032 27.6573 20.4722 27.6574H30.0529C30.122 27.6573 30.1902 27.6431 30.2536 27.6158C30.317 27.5885 30.3742 27.5487 30.4217 27.4986C30.5197 27.3961 30.5742 27.2596 30.5738 27.1178V24.9053C30.5744 24.2568 30.3621 23.6261 29.9695 23.11C29.5846 22.6019 29.0376 22.2405 28.4192 22.0858ZM10.1581 17.2598C10.6145 17.2615 11.0596 17.4023 11.4339 17.6636C11.8146 17.928 12.109 18.2987 12.2804 18.7294C12.4556 19.1647 12.5023 19.6411 12.415 20.1021C12.3272 20.5582 12.1088 20.979 11.7865 21.3133C11.4685 21.6434 11.0587 21.8703 10.6102 21.9647C10.1641 22.0567 9.70054 22.0098 9.28195 21.8301C8.85919 21.6472 8.50036 21.3427 8.25108 20.9554C7.99858 20.5614 7.86453 20.1031 7.86483 19.6351C7.86379 19.0094 8.10493 18.4075 8.53773 17.9556C8.74734 17.7369 8.99881 17.5625 9.27718 17.443C9.55555 17.3235 9.85512 17.2612 10.1581 17.2598ZM6.69937 24.9093C6.69874 24.4302 6.884 23.9694 7.21616 23.6241C7.37646 23.4555 7.56906 23.321 7.78247 23.2285C7.99589 23.136 8.22574 23.0875 8.45833 23.0858H11.8565C12.0892 23.0876 12.3192 23.1362 12.5329 23.2287C12.7465 23.3212 12.9393 23.4556 13.1 23.6241C13.4312 23.9699 13.6158 24.4304 13.6154 24.9093V26.5794H6.69937V24.9093ZM18.1144 17.2598C18.5713 17.2613 19.0168 17.4021 19.3916 17.6636C19.7723 17.928 20.0667 18.2987 20.2381 18.7294C20.4133 19.1647 20.46 19.6411 20.3726 20.1021C20.2849 20.5582 20.0665 20.979 19.7442 21.3133C19.4262 21.6434 19.0164 21.8703 18.5679 21.9647C18.1218 22.0567 17.6582 22.0098 17.2396 21.8301C16.8169 21.6472 16.458 21.3427 16.2088 20.9554C15.9563 20.5614 15.8222 20.1031 15.8225 19.6351C15.8215 19.0094 16.0626 18.4075 16.4954 17.9556C16.7049 17.737 16.9561 17.5628 17.2342 17.4433C17.5124 17.3237 17.8117 17.2614 18.1144 17.2598ZM26.0721 17.2598C26.529 17.2613 26.9745 17.4021 27.3492 17.6636C27.7299 17.928 28.0244 18.2987 28.1958 18.7294C28.371 19.1647 28.4177 19.6411 28.3303 20.1021C28.2425 20.5582 28.0242 20.979 27.7018 21.3133C27.3839 21.6434 26.9741 21.8703 26.5256 21.9647C26.0795 22.0567 25.6159 22.0098 25.1973 21.8301C24.7746 21.6472 24.4157 21.3427 24.1664 20.9554C23.8714 20.4955 23.7393 19.9498 23.7913 19.4059C23.8433 18.862 24.0763 18.3513 24.4531 17.9556C24.6625 17.737 24.9138 17.5628 25.1919 17.4433C25.47 17.3237 25.7694 17.2614 26.0721 17.2598ZM29.5308 26.5794H22.6147V24.9053C22.6137 24.4259 22.7984 23.9647 23.1302 23.6187C23.2908 23.4502 23.4836 23.3157 23.6972 23.2232C23.9109 23.1307 24.1409 23.0822 24.3737 23.0804H27.7705C28.0033 23.0818 28.2334 23.1303 28.4471 23.2228C28.6608 23.3153 28.8536 23.4499 29.014 23.6187C29.3456 23.9649 29.5308 24.4258 29.5308 24.9053V26.5794Z" fill="#3B3B3B"/>
<path d="M18.6056 26.9118C18.5652 26.8103 18.4948 26.7234 18.4037 26.6629C18.3136 26.6038 18.2072 26.5746 18.0996 26.5794C17.9915 26.5854 17.888 26.6249 17.8035 26.6925C17.7182 26.7619 17.6562 26.8559 17.6259 26.9616C17.5935 27.0673 17.5935 27.1803 17.6259 27.286C17.658 27.3926 17.7224 27.4867 17.8102 27.5551C17.8957 27.6207 17.9997 27.6574 18.1073 27.66C18.2149 27.6627 18.3206 27.6312 18.4091 27.5699C18.51 27.4993 18.5836 27.3962 18.6177 27.2779C18.655 27.158 18.6508 27.029 18.6056 26.9118Z" fill="#3B3B3B"/>
<path d="M20.7064 5.00905C19.52 4.18858 18.061 3.86185 16.6381 4.09795C16.6132 4.09819 16.5885 4.10044 16.564 4.10468C15.8184 4.24074 15.1075 4.5241 14.4727 4.93819C13.8379 5.35229 13.2921 5.88879 12.8671 6.51634C11.9909 7.80327 11.6471 9.37946 11.9076 10.9144C11.9508 11.1725 12.011 11.4274 12.0879 11.6775C12.4014 12.729 12.3225 13.8585 11.8659 14.8562C11.8269 14.9409 11.8124 15.0349 11.824 15.1274C11.8357 15.2199 11.873 15.3073 11.9318 15.3797C11.9891 15.4513 12.0664 15.5042 12.1539 15.5318C12.2415 15.5593 12.3354 15.5593 12.423 15.5318L14.5575 14.9383C15.7785 15.7129 17.2532 15.9813 18.6688 15.6866C19.7842 15.4544 20.8037 14.8916 21.5946 14.0716C22.397 13.2382 22.9387 12.1886 23.153 11.0517C23.3713 9.90911 23.2554 8.72787 22.8193 7.6495C22.3904 6.58046 21.6554 5.66188 20.7064 5.00905ZM21.5139 12.6303C21.1705 13.1643 20.725 13.6253 20.2031 13.9868C19.6862 14.345 19.1027 14.5957 18.4872 14.7243C17.8728 14.8511 17.2392 14.8522 16.6244 14.7276C16.0096 14.6029 15.4265 14.355 14.91 13.999C14.8307 13.945 14.7369 13.9163 14.6409 13.9169C14.5985 13.9171 14.5563 13.9234 14.5157 13.9357L13.0609 14.3394C13.309 13.3652 13.2876 12.3418 12.999 11.3787C12.9347 11.1691 12.8839 10.9556 12.8469 10.7394C12.6339 9.473 12.9132 8.17303 13.6275 7.1058C13.976 6.58626 14.4236 6.14054 14.9446 5.79415C15.4655 5.44776 16.0497 5.2075 16.6636 5.08711L16.7322 5.08038C17.6503 4.91708 18.5963 5.03433 19.4467 5.41683C20.3058 5.80561 21.0317 6.43834 21.534 7.23634C22.043 8.04533 22.3109 8.98261 22.3064 9.93838C22.3019 10.8942 22.0251 11.8288 21.5085 12.633L21.5139 12.6303Z" fill="#3B3B3B"/>
<path d="M17.5411 6.92007C17.4787 6.92003 17.417 6.93239 17.3594 6.95641C17.2716 6.99529 17.197 7.05886 17.1447 7.13939C17.0923 7.21991 17.0645 7.31391 17.0647 7.40994V10.3545C17.0631 10.4202 17.0741 10.4855 17.097 10.547C17.1196 10.6085 17.1544 10.6648 17.1993 10.7125C17.243 10.7594 17.2959 10.7969 17.3547 10.8226C17.4135 10.8483 17.4769 10.8617 17.5411 10.8619C17.605 10.862 17.6683 10.8487 17.7268 10.8229C17.786 10.7968 17.8396 10.7593 17.8843 10.7125C17.9287 10.6647 17.963 10.6084 17.9852 10.547C18.0094 10.4858 18.0204 10.4202 18.0175 10.3545V7.40994C18.0177 7.34582 18.0053 7.28227 17.9812 7.22287C17.9586 7.16302 17.9243 7.10833 17.8801 7.06207C17.8359 7.01582 17.7829 6.97897 17.7241 6.95371C17.6659 6.93047 17.6037 6.91904 17.5411 6.92007Z" fill="#3B3B3B"/>
<path d="M17.9785 12.1794C17.949 12.0873 17.8868 12.0093 17.8035 11.9601C17.7511 11.925 17.6927 11.9 17.6313 11.8861C17.5549 11.8701 17.4757 11.8738 17.4011 11.8968C17.3261 11.9201 17.2581 11.9618 17.2033 12.0179C17.1585 12.0639 17.124 12.119 17.1024 12.1794C17.0766 12.2385 17.0634 12.3021 17.0634 12.3665C17.0634 12.4309 17.0766 12.4946 17.1024 12.5536C17.1236 12.6139 17.1575 12.669 17.2019 12.7151C17.2671 12.7836 17.3519 12.8304 17.4446 12.8489C17.5373 12.8675 17.6336 12.8569 17.7201 12.8187C17.7783 12.7933 17.8317 12.7577 17.8775 12.7137C17.9205 12.6663 17.9547 12.6116 17.9785 12.5522C18.0041 12.4932 18.0174 12.4295 18.0175 12.3652C18.0174 12.3012 18.0041 12.238 17.9785 12.1794Z" fill="#3B3B3B"/>
<path d="M30.4042 22.892C30.1106 22.5071 29.738 22.1896 29.3114 21.9607C29.5906 21.5281 29.7847 21.0462 29.8834 20.5409C30.0362 19.7666 29.9623 18.9648 29.6707 18.2315C29.3844 17.5019 28.8879 16.8738 28.2442 16.4268C27.6072 15.9826 26.8493 15.7445 26.0727 15.7445C25.2962 15.7445 24.5383 15.9826 23.9013 16.4268C23.2576 16.8741 22.7607 17.5021 22.4734 18.2315C22.1823 18.9649 22.1089 19.7668 22.2621 20.5409C22.3608 21.0462 22.5549 21.5281 22.8341 21.9607C22.564 22.1056 22.315 22.2867 22.0939 22.499C21.8729 22.2867 21.6238 22.1056 21.3537 21.9607C21.6329 21.5281 21.8271 21.0462 21.9257 20.5409C22.0796 19.7664 22.0062 18.9639 21.7144 18.2301C21.3452 17.2726 20.6136 16.499 19.6782 16.0769C19.4488 16.1618 19.2147 16.2332 18.9771 16.2908C19.3334 16.3887 19.6705 16.5461 19.9743 16.7565C20.5285 17.1427 20.9564 17.6839 21.2043 18.3122C21.4559 18.948 21.5194 19.6426 21.3874 20.3134C21.2582 20.9803 20.9363 21.5947 20.4615 22.0805C21.1268 22.2494 21.7074 22.6557 22.0939 23.223C22.4809 22.6576 23.0608 22.2528 23.725 22.0845C23.251 21.5983 22.9297 20.984 22.8005 20.3175C22.6683 19.6471 22.7319 18.9529 22.9835 18.3176C23.2318 17.6898 23.6597 17.1492 24.2135 16.7632C24.759 16.383 25.4079 16.1792 26.0727 16.1792C26.7376 16.1792 27.3865 16.383 27.932 16.7632C28.4862 17.1496 28.9137 17.6914 29.1607 18.3203C29.4127 18.9554 29.4767 19.6497 29.345 20.3201C29.2154 20.9869 28.8935 21.6011 28.4191 22.0872C29.0371 22.2422 29.5835 22.6035 29.9682 23.1113C30.3605 23.6271 30.5727 24.2573 30.5724 24.9053V27.1178C30.5728 27.2596 30.5183 27.3961 30.4203 27.4986C30.3728 27.5487 30.3156 27.5885 30.2522 27.6158C30.1889 27.6431 30.1206 27.6573 30.0516 27.6574H20.4709C20.4019 27.6573 20.3336 27.6431 20.2702 27.6158C20.2068 27.5885 20.1497 27.5487 20.1021 27.4986C20.0032 27.3967 19.9485 27.2598 19.9501 27.1178H18.6433C18.6428 27.1705 18.6356 27.223 18.6218 27.2739C18.5877 27.3922 18.5141 27.4953 18.4132 27.5659C18.3246 27.6271 18.2189 27.6587 18.1113 27.656C18.0037 27.6534 17.8997 27.6166 17.8143 27.5511C17.7485 27.4997 17.6954 27.4339 17.659 27.3588C17.6226 27.2837 17.6039 27.2012 17.6043 27.1178H17.5411V28.1406C17.7056 28.2521 17.8983 28.3146 18.0969 28.3209H18.1238C18.3399 28.3211 18.5509 28.2549 18.7281 28.1311C18.8584 28.0398 18.9669 27.9208 19.0457 27.7826H19.5463C19.6401 27.9451 19.7748 28.0803 19.937 28.1747C20.0992 28.2691 20.2832 28.3195 20.4709 28.3209H30.0516C30.1939 28.32 30.3346 28.2908 30.4656 28.2351C30.5966 28.1795 30.7152 28.0984 30.8147 27.9966C31.0124 27.7919 31.1225 27.5181 31.1215 27.2335V25.0197C31.1202 24.2513 30.8684 23.5043 30.4042 22.892Z" fill="#CECECE"/>
<path d="M20.7064 5.00904C21.655 5.66116 22.39 6.57875 22.8193 7.6468C23.2554 8.72517 23.3713 9.90641 23.153 11.049C22.9392 12.1868 22.3975 13.2374 21.5946 14.0716C20.8037 14.8916 19.7842 15.4543 18.6689 15.6866C18.2978 15.7634 17.92 15.8021 17.5411 15.8023V16.2249C17.7301 16.1895 17.922 16.1714 18.1144 16.1711C18.4061 16.1716 18.6963 16.2119 18.9771 16.2908C19.2147 16.2332 19.4488 16.1618 19.6782 16.0769C20.5527 15.7514 21.3425 15.233 21.9889 14.5601C22.8665 13.6504 23.4587 12.5038 23.6927 11.2616C23.9318 10.0151 23.8051 8.72604 23.328 7.5499C22.8588 6.3833 22.0548 5.38169 21.0173 4.67125C19.9963 3.96866 18.7858 3.59317 17.5465 3.59462V4.02931C18.6747 4.02808 19.7767 4.36975 20.7064 5.00904Z" fill="#CECECE"/>
<path d="M21.5058 12.6343C21.3551 12.8281 21.2165 13.0138 21.0846 13.1928C21.2384 13.0172 21.3792 12.8305 21.5058 12.6343Z" fill="#EAEAEA"/>
<path d="M18.4818 14.7243C19.0973 14.5957 19.6808 14.345 20.1977 13.9868C20.5252 13.7602 20.8232 13.4934 21.0846 13.1928C21.2191 13.0138 21.3537 12.8281 21.5058 12.6343C22.0224 11.8302 22.2992 10.8955 22.3037 9.93973C22.3083 8.98395 22.0404 8.04667 21.5314 7.23768C21.029 6.43968 20.3031 5.80696 19.444 5.41817C18.8446 5.15016 18.195 5.01255 17.5384 5.01443V6.92546C17.6012 6.92529 17.6634 6.93763 17.7214 6.96179C17.8089 7.00102 17.8831 7.06471 17.9352 7.14518C17.9872 7.22566 18.0149 7.31948 18.0148 7.41533V10.3599C18.0177 10.4256 18.0067 10.4912 17.9825 10.5524C17.9604 10.6138 17.926 10.6701 17.8816 10.7179C17.8369 10.7647 17.7834 10.8022 17.7241 10.8283C17.6656 10.8541 17.6023 10.8674 17.5384 10.8673V11.8847C17.5684 11.8813 17.5986 11.8813 17.6286 11.8847C17.69 11.8986 17.7484 11.9237 17.8008 11.9587C17.8841 12.0079 17.9463 12.086 17.9758 12.1781C18.0014 12.2367 18.0147 12.2999 18.0148 12.3638C18.0147 12.4282 18.0014 12.4918 17.9758 12.5509C17.952 12.6103 17.9178 12.665 17.8748 12.7124C17.829 12.7564 17.7756 12.7919 17.7174 12.8173C17.6612 12.843 17.6002 12.8563 17.5384 12.8564V14.8185C17.8553 14.8196 18.1714 14.7881 18.4818 14.7243Z" fill="#EFC203"/>
<path d="M20.4709 26.5794H21.5731V24.9053C21.5735 24.4257 21.3883 23.9647 21.0563 23.6187C20.8961 23.4501 20.7035 23.3155 20.49 23.223C20.2766 23.1305 20.0467 23.082 19.8141 23.0804H17.5411V27.1178H17.6043C17.6041 27.065 17.6114 27.0124 17.6259 26.9616C17.6562 26.8559 17.7182 26.7619 17.8035 26.6925C17.888 26.6249 17.9915 26.5854 18.0996 26.5794C18.2072 26.5746 18.3136 26.6038 18.4037 26.6629C18.4948 26.7234 18.5652 26.8103 18.6056 26.9118C18.6308 26.9776 18.6436 27.0474 18.6433 27.1178H19.9501C19.9492 26.9758 20.0038 26.8392 20.1021 26.7369C20.1499 26.6873 20.2072 26.6478 20.2705 26.6207C20.3339 26.5937 20.402 26.5796 20.4709 26.5794Z" fill="#EFC203"/>
<path d="M18.5639 21.966C19.0124 21.8716 19.4221 21.6447 19.7401 21.3147C20.0625 20.9803 20.2808 20.5596 20.3686 20.1035C20.4559 19.6425 20.4092 19.1661 20.234 18.7308C20.0626 18.3001 19.7682 17.9294 19.3875 17.6649C19.0128 17.4035 18.5672 17.2626 18.1104 17.2612C17.9167 17.262 17.7239 17.2882 17.537 17.3392V21.9364C17.8723 22.0262 18.224 22.0364 18.5639 21.966Z" fill="#EFC203"/>
<path d="M22.6147 26.5794H29.5308V24.9053C29.5308 24.4258 29.3456 23.9649 29.014 23.6187C28.8536 23.4499 28.6608 23.3153 28.4471 23.2228C28.2334 23.1303 28.0033 23.0818 27.7705 23.0804H24.3737C24.1409 23.0821 23.9109 23.1307 23.6972 23.2232C23.4836 23.3157 23.2908 23.4502 23.1302 23.6187C22.7984 23.9647 22.6137 24.4259 22.6147 24.9053V26.5794Z" fill="#EFC203"/>
<path d="M24.1624 20.9554C24.4117 21.3427 24.7705 21.6472 25.1933 21.8301C25.6119 22.0098 26.0755 22.0567 26.5216 21.9647C26.97 21.8703 27.3798 21.6434 27.6978 21.3133C28.0202 20.979 28.2385 20.5582 28.3263 20.1021C28.4136 19.6411 28.3669 19.1647 28.1917 18.7294C28.0203 18.2987 27.7259 17.928 27.3452 17.6636C26.906 17.3588 26.3722 17.2212 25.8404 17.2755C25.3085 17.3298 24.8136 17.5724 24.445 17.9596C24.0682 18.3553 23.8352 18.8661 23.7832 19.41C23.7313 19.9539 23.8634 20.4995 24.1584 20.9594L24.1624 20.9554Z" fill="#EFC203"/>
<path d="M17.5411 16.2249V17.3325C17.7279 17.2815 17.9207 17.2553 18.1144 17.2544C18.5713 17.2559 19.0168 17.3968 19.3916 17.6582C19.7723 17.9226 20.0667 18.2933 20.2381 18.724C20.4133 19.1593 20.46 19.6357 20.3726 20.0968C20.2849 20.5528 20.0665 20.9736 19.7441 21.308C19.4262 21.638 19.0164 21.8649 18.5679 21.9593C18.2292 22.0286 17.879 22.018 17.5451 21.9284V23.0884H19.8182C20.0508 23.0901 20.2807 23.1386 20.4941 23.2311C20.7075 23.3236 20.9001 23.4582 21.0603 23.6268C21.3923 23.9728 21.5775 24.4338 21.5771 24.9133V26.5875H20.4749C20.406 26.5877 20.3379 26.6018 20.2746 26.6288C20.2112 26.6559 20.1539 26.6954 20.1062 26.745C20.0086 26.8478 19.9542 26.9841 19.9542 27.1258C19.9542 27.2676 20.0086 27.4039 20.1062 27.5067C20.1537 27.5567 20.2109 27.5966 20.2743 27.6239C20.3376 27.6512 20.4059 27.6654 20.4749 27.6655H30.0556C30.1246 27.6654 30.1929 27.6512 30.2563 27.6239C30.3197 27.5966 30.3769 27.5567 30.4244 27.5067C30.5224 27.4041 30.5769 27.2677 30.5765 27.1258V24.9053C30.5771 24.2568 30.3648 23.6261 29.9722 23.11C29.5876 22.6021 29.0411 22.2408 28.4232 22.0858C28.8976 21.5997 29.2194 20.9855 29.3491 20.3188C29.4808 19.6483 29.4168 18.9541 29.1647 18.319C28.9178 17.6901 28.4902 17.1483 27.936 16.7619C27.3905 16.3817 26.7417 16.1779 26.0768 16.1779C25.4119 16.1779 24.763 16.3817 24.2176 16.7619C23.6633 17.1486 23.2354 17.6902 22.9875 18.319C22.7359 18.9542 22.6724 19.6484 22.8045 20.3188C22.9337 20.9854 23.2551 21.5996 23.7291 22.0858C23.0636 22.2529 22.4821 22.6573 22.0939 23.223C21.7067 22.6572 21.1262 22.2524 20.4615 22.0845C20.9363 21.5987 21.2582 20.9844 21.3874 20.3175C21.5194 19.6466 21.4559 18.952 21.2043 18.3163C20.9559 17.6889 20.5281 17.1487 19.9743 16.7632C19.6705 16.5528 19.3334 16.3954 18.9771 16.2976C18.6963 16.2186 18.4061 16.1783 18.1144 16.1778C17.9223 16.176 17.7303 16.1917 17.5411 16.2249ZM26.0721 17.2544C26.529 17.2559 26.9745 17.3968 27.3492 17.6582C27.7299 17.9226 28.0244 18.2933 28.1957 18.724C28.371 19.1593 28.4177 19.6357 28.3303 20.0968C28.2425 20.5528 28.0242 20.9736 27.7018 21.308C27.3838 21.638 26.9741 21.8649 26.5256 21.9593C26.0795 22.0513 25.6159 22.0044 25.1973 21.8247C24.7745 21.6418 24.4157 21.3373 24.1664 20.95C23.8714 20.4901 23.7393 19.9445 23.7913 19.4005C23.8433 18.8566 24.0763 18.3459 24.4531 17.9502C24.663 17.7326 24.9145 17.5594 25.1926 17.4408C25.4707 17.3222 25.7697 17.2607 26.0721 17.2598V17.2544ZM24.3737 23.0884H27.7705C28.0033 23.0899 28.2334 23.1384 28.4471 23.2308C28.6608 23.3233 28.8536 23.458 29.014 23.6268C29.3456 23.973 29.5308 24.4339 29.5308 24.9133V26.5875H22.6147V24.9053C22.6137 24.4259 22.7984 23.9647 23.1302 23.6187C23.2915 23.4516 23.4846 23.3186 23.6982 23.2276C23.9118 23.1365 24.1415 23.0892 24.3737 23.0884Z" fill="#232323"/>
<path d="M18.6056 26.9118C18.5652 26.8103 18.4948 26.7234 18.4037 26.6629C18.3136 26.6038 18.2072 26.5746 18.0996 26.5794C17.9915 26.5854 17.888 26.6249 17.8035 26.6925C17.7182 26.7619 17.6562 26.8559 17.6259 26.9616C17.6114 27.0124 17.6041 27.065 17.6043 27.1178C17.6039 27.2012 17.6226 27.2837 17.659 27.3588C17.6954 27.4339 17.7485 27.4997 17.8143 27.5511C17.8997 27.6166 18.0037 27.6533 18.1113 27.656C18.2189 27.6587 18.3246 27.6271 18.4132 27.5659C18.5141 27.4953 18.5877 27.3922 18.6218 27.2739C18.6356 27.223 18.6428 27.1705 18.6433 27.1178C18.6436 27.0474 18.6308 26.9776 18.6056 26.9118Z" fill="#3B3B3B"/>
<path d="M18.6689 15.6866C19.7842 15.4544 20.8037 14.8916 21.5946 14.0716C22.397 13.2382 22.9387 12.1886 23.1531 11.0517C23.3713 9.90911 23.2554 8.72787 22.8193 7.6495C22.39 6.58145 21.655 5.66386 20.7064 5.01174C19.7758 4.3695 18.6718 4.02588 17.5411 4.02662V5.01174C18.1977 5.00985 18.8473 5.14747 19.4467 5.41548C20.3058 5.80426 21.0317 6.43699 21.5341 7.23499C22.043 8.04398 22.311 8.98126 22.3064 9.93703C22.3019 10.8928 22.0251 11.8275 21.5085 12.6316C21.1638 13.1608 20.7195 13.6179 20.2004 13.9774C19.6835 14.3355 19.1 14.5863 18.4845 14.7149C18.1746 14.779 17.8589 14.811 17.5424 14.8105V15.7942C17.9206 15.7966 18.298 15.7606 18.6689 15.6866Z" fill="#232323"/>
<path d="M17.7268 10.8229C17.786 10.7968 17.8396 10.7593 17.8843 10.7125C17.9287 10.6647 17.963 10.6084 17.9852 10.547C18.0093 10.4858 18.0204 10.4203 18.0175 10.3545V7.40995C18.0177 7.34582 18.0053 7.28228 17.9812 7.22288C17.9586 7.16302 17.9243 7.10833 17.8801 7.06208C17.8359 7.01583 17.7829 6.97897 17.7241 6.95372C17.6661 6.92956 17.6039 6.91721 17.5411 6.91739V10.8592C17.6048 10.8601 17.6681 10.8478 17.7268 10.8229Z" fill="#232323"/>
<path d="M17.8775 12.7137C17.9205 12.6663 17.9547 12.6116 17.9785 12.5522C18.0041 12.4932 18.0174 12.4295 18.0175 12.3652C18.0174 12.3012 18.0041 12.238 17.9785 12.1794C17.949 12.0873 17.8868 12.0093 17.8035 11.9601C17.7511 11.9251 17.6927 11.9 17.6313 11.8861C17.6013 11.8827 17.571 11.8827 17.5411 11.8861V12.8604C17.6028 12.8603 17.6639 12.847 17.7201 12.8214C17.7786 12.7952 17.8319 12.7587 17.8775 12.7137Z" fill="#232323"/>
</g>
<defs>
<clipPath id="clip0_782_5975">
<rect width="36" height="36.07" fill="white"/>
</clipPath>
</defs>
</svg>
