<svg width="25" height="25" viewBox="0 0 25 25" fill="none" xmlns="http://www.w3.org/2000/svg">
<path d="M5.77485 14.9135C5.25176 14.9135 4.82617 15.3391 4.82617 15.8621V19.2243C4.82617 19.7474 5.25176 20.173 5.77485 20.173C6.29795 20.173 6.72349 19.7474 6.72349 19.2243V15.8621C6.72349 15.3391 6.29795 14.9135 5.77485 14.9135Z" fill="#ffffff"/>
<path d="M9.87109 8.18909H15.1306V10.0865H9.87109V8.18909Z" fill="#ffffff"/>
<path d="M8.40542 8.40542V6.72427H16.5946V8.40542H25V5.47202L22.8898 3.36182H18.2757V2.41353C18.2757 1.08271 17.193 0 15.8621 0H9.13789C7.80703 0 6.72432 1.08271 6.72432 2.41353V3.36182H2.11016L0 5.47202V8.40542H8.40542ZM8.18916 2.41353C8.18916 1.89043 8.61475 1.46484 9.13789 1.46484H15.8622C16.3853 1.46484 16.8109 1.89043 16.8109 2.41353V3.36182H8.18916V2.41353Z" fill="#ffffff"/>
<path d="M16.5946 9.87024V11.5513H8.40542V9.87024H0V22.8898L2.11016 25H22.8898L25 22.8898V9.87024H16.5946ZM8.18916 19.2243C8.18916 20.5551 7.10649 21.6378 5.77568 21.6378C4.44487 21.6378 3.36216 20.5551 3.36216 19.2243V15.8621C3.36216 14.5313 4.44487 13.4487 5.77568 13.4487C7.10649 13.4487 8.18916 14.5313 8.18916 15.8621V19.2243ZM14.9135 19.2243C14.9135 20.5551 13.8308 21.6378 12.5 21.6378C11.1692 21.6378 10.0865 20.5551 10.0865 19.2243V15.8621C10.0865 14.5313 11.1692 13.4487 12.5 13.4487C13.8308 13.4487 14.9135 14.5313 14.9135 15.8621V19.2243ZM21.6378 19.2243C21.6378 20.5551 20.5551 21.6378 19.2243 21.6378C17.8935 21.6378 16.8108 20.5551 16.8108 19.2243V15.8621C16.8108 14.5313 17.8935 13.4487 19.2243 13.4487C20.5551 13.4487 21.6378 14.5313 21.6378 15.8621V19.2243Z" fill="#ffffff"/>
<path d="M19.224 14.9135C18.7009 14.9135 18.2754 15.3391 18.2754 15.8621V19.2243C18.2754 19.7474 18.7009 20.173 19.224 20.173C19.7471 20.173 20.1727 19.7474 20.1727 19.2243V15.8621C20.1727 15.3391 19.7471 14.9135 19.224 14.9135Z" fill="#ffffff"/>
<path d="M12.4995 14.9135C11.9764 14.9135 11.5508 15.3391 11.5508 15.8621V19.2243C11.5508 19.7474 11.9764 20.173 12.4995 20.173C13.0226 20.173 13.4481 19.7474 13.4481 19.2243V15.8621C13.4481 15.3391 13.0226 14.9135 12.4995 14.9135V14.9135Z" fill="#ffffff"/>
</svg>
