<svg width="31" height="26" viewBox="0 0 31 26" fill="none" xmlns="http://www.w3.org/2000/svg">
<path d="M21.6636 17.5071C21.5558 17.6088 21.5558 17.7105 21.5558 17.8122V23.5589H2.5867V5.6577H15.5741C15.6819 5.6577 15.7897 5.6577 15.8974 5.55599L17.6219 3.92861C17.8914 3.67433 17.6758 3.21663 17.2986 3.21663H2.5867C1.13168 3.21663 0 4.33545 0 5.6577V23.5589C0 24.932 1.13168 26 2.5867 26H21.5558C22.957 26 24.1425 24.932 24.1425 23.5589V16.1848C24.1425 15.8289 23.6575 15.6254 23.3881 15.8797L21.6636 17.5071ZM30.0704 7.28509C31.3099 6.1154 31.3099 4.23374 30.0704 3.06406L27.7532 0.877262C26.5137 -0.292421 24.5198 -0.292421 23.2803 0.877262L9.16123 14.2015L8.62234 18.8293C8.46067 20.1516 9.64624 21.2704 11.0474 21.1178L15.9513 20.6093L30.0704 7.28509ZM24.7892 8.81076L14.7658 18.2699L11.209 18.6768L11.6402 15.3203L21.6636 5.86112L24.7892 8.81076ZM28.2382 4.79315C28.5076 4.99658 28.5076 5.30171 28.292 5.55599L26.6215 7.13252L23.4959 4.13203L25.1126 2.60636C25.3281 2.35208 25.7053 2.35208 25.9209 2.60636L28.2382 4.79315Z" fill="#828894"/>
</svg>
