<svg width="30" height="30" viewBox="0 0 30 30" fill="none" xmlns="http://www.w3.org/2000/svg">
<path d="M15 1.25C12.2805 1.25 9.62209 2.05642 7.36092 3.56729C5.09974 5.07816 3.33737 7.22562 2.29666 9.73811C1.25596 12.2506 0.983662 15.0153 1.51421 17.6825C2.04476 20.3497 3.35432 22.7998 5.27729 24.7227C7.20026 26.6457 9.65028 27.9553 12.3175 28.4858C14.9848 29.0164 17.7494 28.7441 20.2619 27.7034C22.7744 26.6626 24.9218 24.9003 26.4327 22.6391C27.9436 20.3779 28.75 17.7195 28.75 15C28.7457 11.3546 27.2957 7.85973 24.718 5.28203C22.1403 2.70434 18.6454 1.2543 15 1.25ZM22.1338 13.3838L15.8838 19.6338C15.6493 19.8681 15.3315 19.9997 15 19.9997C14.6686 19.9997 14.3507 19.8681 14.1163 19.6338L7.86626 13.3838C7.63856 13.148 7.51257 12.8323 7.51541 12.5045C7.51826 12.1768 7.64972 11.8632 7.88148 11.6315C8.11324 11.3997 8.42676 11.2683 8.7545 11.2654C9.08225 11.2626 9.398 11.3886 9.63376 11.6163L15 16.9825L20.3663 11.6163C20.602 11.3886 20.9178 11.2626 21.2455 11.2654C21.5733 11.2683 21.8868 11.3997 22.1185 11.6315C22.3503 11.8632 22.4818 12.1768 22.4846 12.5045C22.4874 12.8323 22.3615 13.148 22.1338 13.3838Z" fill="#828894"/>
</svg>
