<svg width="28" height="28" viewBox="0 0 28 28" fill="none" xmlns="http://www.w3.org/2000/svg">
<g clip-path="url(#clip0_943_4450)">
<path d="M14 27.75C16.7195 27.75 19.3779 26.9436 21.6391 25.4327C23.9003 23.9218 25.6626 21.7744 26.7033 19.2619C27.744 16.7494 28.0163 13.9847 27.4858 11.3175C26.9552 8.65026 25.6457 6.20024 23.7227 4.27727C21.7997 2.3543 19.3497 1.04474 16.6825 0.51419C14.0152 -0.0163586 11.2506 0.255938 8.7381 1.29664C6.22561 2.33735 4.07816 4.09972 2.56729 6.3609C1.05642 8.62207 0.249994 11.2805 0.249994 14C0.254294 17.6454 1.70433 21.1403 4.28202 23.718C6.85972 26.2957 10.3546 27.7457 14 27.75ZM6.86624 15.6162L13.1162 9.36624C13.3507 9.1319 13.6685 9.00026 14 9.00026C14.3315 9.00026 14.6493 9.1319 14.8837 9.36624L21.1337 15.6162C21.3614 15.852 21.4874 16.1677 21.4846 16.4955C21.4817 16.8232 21.3503 17.1368 21.1185 17.3685C20.8868 17.6003 20.5732 17.7317 20.2455 17.7346C19.9178 17.7374 19.602 17.6114 19.3662 17.3837L14 12.0175L8.63375 17.3837C8.39799 17.6114 8.08224 17.7374 7.75449 17.7346C7.42675 17.7317 7.11323 17.6003 6.88147 17.3685C6.64971 17.1368 6.51825 16.8232 6.5154 16.4955C6.51255 16.1677 6.63855 15.852 6.86624 15.6162Z" fill="#828894"/>
</g>
<defs>
<clipPath id="clip0_943_4450">
<rect width="28" height="28" fill="white" transform="translate(28 28) rotate(-180)"/>
</clipPath>
</defs>
</svg>
