<svg width="36" height="36" viewBox="0 0 36 36" fill="none" xmlns="http://www.w3.org/2000/svg">
<path d="M18.0007 35.5562C27.6964 35.5562 35.5563 27.6964 35.5563 18.0007C35.5563 8.3051 27.6964 0.445229 18.0007 0.445229C8.3051 0.445229 0.445232 8.3051 0.445232 18.0007C0.445232 27.6964 8.3051 35.5562 18.0007 35.5562Z" fill="#676860"/>
<path d="M18.0007 0.890454C21.3849 0.890454 24.693 1.89399 27.5068 3.77416C30.3206 5.65432 32.5137 8.32667 33.8087 11.4533C35.1037 14.5798 35.4425 18.0202 34.7821 21.3393C34.1218 24.6584 32.4921 27.7072 30.099 30.1001C27.7059 32.4929 24.657 34.1224 21.3379 34.7824C18.0187 35.4425 14.5784 35.1034 11.4519 33.8081C8.32542 32.5129 5.65326 30.3196 3.77334 27.5056C1.89341 24.6917 0.890167 21.3834 0.890461 17.9993C0.890461 15.7524 1.33304 13.5275 2.19293 11.4517C3.05282 9.37583 4.31318 7.4897 5.90203 5.90098C7.49089 4.31227 9.37713 3.05207 11.453 2.19236C13.5289 1.33265 15.7538 0.890259 18.0007 0.890454ZM18.0007 -1.02704e-05C13.8369 0.000275433 9.802 1.44429 6.58349 4.08598C3.36497 6.72767 1.16197 10.4036 0.349845 14.4874C-0.462276 18.5713 0.166732 22.8104 2.12969 26.4825C4.09264 30.1546 7.2681 33.0324 11.115 34.6257C14.9619 36.2191 19.2423 36.4292 23.2268 35.2205C27.2113 34.0117 30.6534 31.4588 32.9667 27.9966C35.2799 24.5345 36.3212 20.3774 35.9131 16.2337C35.5049 12.0899 33.6727 8.21584 30.7284 5.27154C29.0608 3.59503 27.0773 2.26589 24.8926 1.36103C22.7079 0.456175 20.3654 -0.00643557 18.0007 -1.02704e-05Z" fill="white"/>
<path d="M34.973 20.1661L20.6039 5.83997C20.2485 5.42023 19.7971 5.09256 19.2879 4.88484C18.7786 4.67713 18.2268 4.59553 17.6793 4.64697C17.1317 4.69842 16.6047 4.88139 16.1431 5.18032C15.6815 5.47926 15.299 5.88528 15.0281 6.36386L5.73607 22.5406C5.33824 23.2302 5.1869 24.0347 5.30692 24.8218C5.42695 25.6088 5.8112 26.3316 6.3965 26.8713L14.2088 34.694C16.5353 35.2199 18.9459 35.2539 21.2863 34.794C23.6267 34.3341 25.8452 33.3903 27.7996 32.0231C29.754 30.6559 31.4013 28.8955 32.6358 26.8547C33.8703 24.8139 34.6649 22.5377 34.9685 20.172L34.973 20.1661Z" fill="#302C2C"/>
<path d="M15.0281 6.36385L5.73607 22.5406C4.40037 24.8618 6.05664 27.7736 8.70428 27.7736H27.2927C29.9433 27.7736 31.5966 24.8618 30.2609 22.5406L20.9689 6.36385C20.6713 5.83818 20.2396 5.4009 19.7177 5.09666C19.1958 4.79241 18.6026 4.63211 17.9985 4.63211C17.3944 4.63211 16.8012 4.79241 16.2793 5.09666C15.7575 5.4009 15.3257 5.83818 15.0281 6.36385Z" fill="#FEE572"/>
<path d="M27.2927 27.7795H18.0007V4.62744C18.605 4.626 19.1987 4.7859 19.7205 5.09063C20.2423 5.39536 20.6733 5.83387 20.9689 6.36087L30.2609 22.5376C31.5966 24.8677 29.9404 27.7795 27.2927 27.7795Z" fill="#FFD400"/>
<path d="M19.1554 10.3739H16.8446V19.657H19.1554V10.3739Z" fill="#78777F"/>
<path d="M19.1554 10.3739H18.0007V19.657H19.1554V10.3739Z" fill="#3C3B41"/>
<path d="M19.7064 22.4077C19.773 21.4716 19.0681 20.6587 18.132 20.5921C17.1959 20.5254 16.383 21.2303 16.3164 22.1665C16.2497 23.1026 16.9546 23.9155 17.8908 23.9821C18.8269 24.0487 19.6398 23.3438 19.7064 22.4077Z" fill="#78777F"/>
<path d="M19.7001 22.2676C19.7001 22.4907 19.6561 22.7117 19.5707 22.9178C19.4853 23.124 19.3601 23.3113 19.2023 23.4691C19.0445 23.6269 18.8572 23.7521 18.651 23.8375C18.4449 23.9229 18.2239 23.9669 18.0007 23.9669V20.5668C18.4516 20.5672 18.8838 20.7465 19.2024 21.0654C19.5211 21.3843 19.7001 21.8167 19.7001 22.2676Z" fill="#3C3B41"/>
<path d="M26.6397 26.3191H9.36176C8.93986 26.3193 8.52528 26.2088 8.15944 25.9987C7.79361 25.7885 7.4893 25.4861 7.27691 25.1215C7.06452 24.757 6.95148 24.3431 6.94908 23.9212C6.94668 23.4993 7.055 23.0842 7.26323 22.7172L15.9007 7.48287C16.1112 7.11158 16.4164 6.80275 16.7852 6.5879C17.154 6.37304 17.5732 6.25984 18 6.25984C18.4268 6.25984 18.846 6.37304 19.2148 6.5879C19.5836 6.80275 19.8888 7.11158 20.0993 7.48287L28.7383 22.7172C28.946 23.0842 29.054 23.4993 29.0513 23.921C29.0487 24.3427 28.9356 24.7564 28.7233 25.1208C28.511 25.4852 28.2069 25.7876 27.8413 25.9979C27.4758 26.2081 27.0615 26.3189 26.6397 26.3191ZM16.6324 7.89693L7.99341 23.1313C7.85766 23.3706 7.78705 23.6413 7.78862 23.9165C7.79019 24.1916 7.86388 24.4615 8.00236 24.6992C8.14083 24.937 8.33923 25.1343 8.57776 25.2714C8.8163 25.4085 9.08663 25.4806 9.36176 25.4806H26.6397C26.9147 25.4804 27.1849 25.408 27.4232 25.2708C27.6615 25.1336 27.8597 24.9363 27.998 24.6986C28.1363 24.4609 28.2099 24.1911 28.2114 23.9161C28.2129 23.6411 28.1423 23.3705 28.0066 23.1313L19.3676 7.89693C19.2306 7.65493 19.0318 7.45365 18.7915 7.31359C18.5512 7.17354 18.2781 7.09972 18 7.09972C17.7219 7.09972 17.4488 7.17354 17.2085 7.31359C16.9682 7.45365 16.7694 7.65493 16.6324 7.89693Z" fill="#78777F"/>
<path d="M28.7368 22.7172L20.0993 7.48288C19.8908 7.10996 19.5862 6.79977 19.2171 6.58468C18.848 6.36958 18.4279 6.25746 18.0007 6.25997V7.09997C18.2791 7.09821 18.5528 7.17126 18.7932 7.31146C19.0337 7.45165 19.232 7.65385 19.3676 7.89693L28.011 23.1313C28.1463 23.3707 28.2166 23.6413 28.2148 23.9163C28.213 24.1912 28.1392 24.4609 28.0008 24.6985C27.8625 24.9361 27.6643 25.1333 27.426 25.2706C27.1877 25.4078 26.9177 25.4802 26.6427 25.4806H18.0007V26.3192H26.6397C27.0615 26.3191 27.4759 26.2084 27.8415 25.9981C28.2072 25.7879 28.5112 25.4854 28.7235 25.1209C28.9357 24.7564 29.0486 24.3426 29.0509 23.9209C29.0533 23.4991 28.9449 23.0841 28.7368 22.7172Z" fill="#3C3B41"/>
</svg>
