<svg width="36" height="36" viewBox="0 0 36 36" fill="none" xmlns="http://www.w3.org/2000/svg">
<g clip-path="url(#clip0_848_3412)">
<path d="M18.0007 35.5563C27.6964 35.5563 35.5563 27.6964 35.5563 18.0007C35.5563 8.30511 27.6964 0.445236 18.0007 0.445236C8.3051 0.445236 0.445232 8.30511 0.445232 18.0007C0.445232 27.6964 8.3051 35.5563 18.0007 35.5563Z" fill="#9330B2"/>
<path d="M18.0007 0.890454C21.3849 0.890454 24.6931 1.89399 27.5069 3.77416C30.3207 5.65432 32.5137 8.32667 33.8087 11.4533C35.1037 14.5798 35.4425 18.0202 34.7821 21.3393C34.1218 24.6584 32.4921 27.7072 30.099 30.1001C27.706 32.4929 24.6571 34.1224 21.3379 34.7824C18.0187 35.4425 14.5784 35.1034 11.4519 33.8081C8.32543 32.5129 5.65327 30.3196 3.77335 27.5056C1.89342 24.6917 0.890174 21.3834 0.890467 17.9992C0.890467 15.7524 1.33305 13.5275 2.19294 11.4517C3.05283 9.37583 4.31318 7.4897 5.90204 5.90098C7.4909 4.31227 9.37713 3.05207 11.453 2.19236C13.5289 1.33265 15.7539 0.890259 18.0007 0.890454V0.890454ZM18.0007 -1.02704e-05C13.8369 0.000275433 9.80202 1.44429 6.58349 4.08598C3.36497 6.72767 1.16198 10.4036 0.349856 14.4874C-0.462265 18.5713 0.166738 22.8104 2.12969 26.4825C4.09265 30.1546 7.2681 33.0324 11.115 34.6257C14.9619 36.2191 19.2423 36.4292 23.2268 35.2205C27.2113 34.0117 30.6534 31.4588 32.9667 27.9966C35.2799 24.5345 36.3212 20.3774 35.9131 16.2337C35.505 12.0899 33.6727 8.21584 30.7285 5.27154C29.0608 3.59503 27.0773 2.26589 24.8926 1.36103C22.7079 0.456175 20.3654 -0.00643557 18.0007 -1.02704e-05Z" fill="#F9F9F9"/>
<path d="M34.973 20.1661L20.6024 5.83997C20.2471 5.42023 19.7956 5.09256 19.2864 4.88484C18.7772 4.67713 18.2253 4.59553 17.6778 4.64697C17.1302 4.69842 16.6033 4.88139 16.1416 5.18032C15.68 5.47926 15.2975 5.88528 15.0266 6.36386L5.73459 22.5406C5.33676 23.2302 5.18542 24.0347 5.30545 24.8218C5.42547 25.6088 5.80972 26.3316 6.39502 26.8713L14.2133 34.694C16.5402 35.2196 18.9512 35.2533 21.2918 34.7929C23.6325 34.3325 25.8511 33.3882 27.8056 32.0204C29.76 30.6527 31.4072 28.8917 32.6414 26.8503C33.8757 24.8089 34.6698 22.5322 34.973 20.1661Z" fill="#5C1B6F"/>
<path d="M15.0281 6.36385L5.73608 22.5406C4.40038 24.8618 6.05664 27.7736 8.70429 27.7736H27.2927C29.9433 27.7736 31.5966 24.8618 30.2609 22.5406L20.969 6.36385C20.6713 5.83818 20.2396 5.4009 19.7177 5.09665C19.1958 4.79241 18.6026 4.63211 17.9985 4.63211C17.3944 4.63211 16.8012 4.79241 16.2793 5.09665C15.7575 5.4009 15.3257 5.83818 15.0281 6.36385V6.36385Z" fill="#FEE572"/>
<path d="M27.2927 27.7795H18.0007V4.62745C18.605 4.62601 19.1987 4.7859 19.7205 5.09064C20.2423 5.39537 20.6733 5.83388 20.969 6.36088L30.2609 22.5376C31.5966 24.8677 29.9433 27.7795 27.2927 27.7795Z" fill="#FFD400"/>
<path d="M19.1554 10.3739H16.8446V19.657H19.1554V10.3739Z" fill="#78777F"/>
<path d="M19.1554 10.3739H18.0007V19.657H19.1554V10.3739Z" fill="#3C3B41"/>
<path d="M19.7019 22.4078C19.7685 21.4716 19.0636 20.6588 18.1275 20.5922C17.1913 20.5255 16.3784 21.2304 16.3118 22.1666C16.2452 23.1027 16.9501 23.9156 17.8862 23.9822C18.8224 24.0488 19.6353 23.3439 19.7019 22.4078Z" fill="#78777F"/>
<path d="M19.7001 22.2676C19.7001 22.7182 19.521 23.1505 19.2023 23.4691C18.8837 23.7878 18.4514 23.9669 18.0007 23.9669V20.5668C18.4516 20.5672 18.8838 20.7465 19.2024 21.0654C19.5211 21.3843 19.7001 21.8167 19.7001 22.2676V22.2676Z" fill="#3C3B41"/>
<path d="M26.6397 26.3192H9.36175C8.93985 26.3193 8.52528 26.2088 8.15944 25.9987C7.7936 25.7885 7.4893 25.4861 7.27691 25.1215C7.06452 24.757 6.95148 24.3431 6.94908 23.9212C6.94668 23.4993 7.055 23.0842 7.26322 22.7172L15.9022 7.48288C16.1125 7.11155 16.4176 6.80266 16.7862 6.58776C17.1549 6.37285 17.574 6.25963 18.0008 6.25963C18.4275 6.25963 18.8466 6.37285 19.2153 6.58776C19.5839 6.80266 19.889 7.11155 20.0993 7.48288L28.7398 22.7172C28.9475 23.0843 29.0554 23.4993 29.0528 23.921C29.0502 24.3427 28.9371 24.7564 28.7248 25.1208C28.5125 25.4852 28.2084 25.7876 27.8428 25.9979C27.4773 26.2081 27.063 26.3189 26.6412 26.3192H26.6397ZM16.6324 7.89693L7.99341 23.1313C7.85766 23.3706 7.78704 23.6413 7.78861 23.9165C7.79018 24.1916 7.86389 24.4615 8.00236 24.6992C8.14083 24.937 8.33924 25.1343 8.57777 25.2714C8.8163 25.4085 9.08662 25.4807 9.36175 25.4806H26.6397C26.9147 25.4804 27.1849 25.408 27.4232 25.2708C27.6615 25.1336 27.8597 24.9363 27.998 24.6986C28.1363 24.4609 28.2099 24.1911 28.2114 23.9161C28.2129 23.6411 28.1423 23.3705 28.0066 23.1313L19.3676 7.89693C19.2306 7.65493 19.0318 7.45365 18.7915 7.31359C18.5512 7.17354 18.2781 7.09973 18 7.09973C17.7219 7.09973 17.4488 7.17354 17.2085 7.31359C16.9682 7.45365 16.7694 7.65493 16.6324 7.89693Z" fill="#78777F"/>
<path d="M28.7398 22.7173L20.1022 7.48288C19.8938 7.10996 19.5892 6.79977 19.2201 6.58468C18.851 6.36958 18.4309 6.25746 18.0037 6.25997V7.09997C18.282 7.09821 18.5557 7.17126 18.7962 7.31146C19.0366 7.45166 19.235 7.65385 19.3706 7.89693L28.0111 23.1313C28.1463 23.3707 28.2166 23.6413 28.2148 23.9163C28.213 24.1912 28.1392 24.4609 28.0008 24.6985C27.8625 24.9361 27.6643 25.1333 27.426 25.2706C27.1877 25.4078 26.9177 25.4802 26.6427 25.4807H18.0007V26.3192H26.6397C27.0618 26.3196 27.4765 26.2093 27.8426 25.9993C28.2086 25.7892 28.5131 25.4868 28.7257 25.1222C28.9383 24.7576 29.0514 24.3436 29.0539 23.9216C29.0564 23.4996 28.948 23.0843 28.7398 22.7173V22.7173Z" fill="#3C3B41"/>
</g>
<defs>
<clipPath id="clip0_848_3412">
<rect width="36" height="36" fill="white"/>
</clipPath>
</defs>
</svg>
