<svg width="31" height="31" viewBox="0 0 31 31" fill="none" xmlns="http://www.w3.org/2000/svg">
<g clip-path="url(#clip0_576_2593)">
<path d="M14.8897 15.629L19.5202 5.70637H17.4669L18.4346 2.31927H14.0207L12.346 9.57734H14.8897V15.629ZM13.5623 8.6096L14.7909 3.28701H17.1512L16.1835 6.67411H18.0011L15.8574 11.2676V8.6096H13.5623ZM2.30903 30.3838H3.27678C4.07701 30.3838 4.72839 29.7324 4.72839 28.9322V28.4483H26.9865V28.9322C26.9865 29.7324 27.6378 30.3838 28.4381 30.3838H29.4058C30.206 30.3838 30.8574 29.7324 30.8574 28.9322V13.4483C30.8574 12.6481 30.206 11.9967 29.4058 11.9967H28.4381C27.8082 11.9967 27.2759 12.4026 27.0755 12.9644H22.8232C23.6168 11.6997 24.0832 10.2098 24.0832 8.6096C24.0832 4.07378 20.3932 0.383789 15.8574 0.383789C11.3216 0.383789 7.63162 4.07378 7.63162 8.6096C7.63162 10.2098 8.098 11.6997 8.89162 12.9644H4.63932C4.43896 12.4026 3.90666 11.9967 3.27678 11.9967H2.30903C1.5088 11.9967 0.857422 12.6481 0.857422 13.4483V28.9322C0.857422 29.7324 1.5088 30.3838 2.30903 30.3838ZM4.72839 27.4806V25.5451H26.9865V27.4806H4.72839ZM26.9865 19.7386V21.6741H4.72839V19.7386H26.9865ZM4.72839 18.7709V16.8354H26.9865V18.7709H4.72839ZM26.9865 22.6419V24.5773H4.72839V22.6419H26.9865ZM27.9542 13.4483C27.9542 13.1818 28.1711 12.9644 28.4381 12.9644H29.4058C29.6728 12.9644 29.8897 13.1818 29.8897 13.4483V28.9322C29.8897 29.1992 29.6728 29.416 29.4058 29.416H28.4381C28.1711 29.416 27.9542 29.1992 27.9542 28.9322V13.4483ZM26.9865 13.9322V15.8677H19.7201C20.6501 15.3708 21.4732 14.7 22.1477 13.8993V13.9322H26.9865ZM15.8574 1.35153C19.8595 1.35153 23.1155 4.6075 23.1155 8.6096C23.1155 12.6117 19.8595 15.8677 15.8574 15.8677C11.8553 15.8677 8.59936 12.6117 8.59936 8.6096C8.59936 4.6075 11.8553 1.35153 15.8574 1.35153ZM11.9947 15.8677H4.72839V13.9322H9.59711C10.2662 14.718 11.0778 15.3774 11.9947 15.8677ZM1.82516 13.4483C1.82516 13.1818 2.04206 12.9644 2.30903 12.9644H3.27678C3.54376 12.9644 3.76065 13.1818 3.76065 13.4483V28.9322C3.76065 29.1992 3.54376 29.416 3.27678 29.416H2.30903C2.04206 29.416 1.82516 29.1992 1.82516 28.9322V13.4483Z" fill="url(#paint0_linear_576_2593)"/>
</g>
<defs>
<linearGradient id="paint0_linear_576_2593" x1="15.8574" y1="30.3838" x2="15.8574" y2="0.383789" gradientUnits="userSpaceOnUse">
<stop stop-color="#9F2FFF"/>
<stop offset="1" stop-color="#0BB1D3"/>
</linearGradient>
<clipPath id="clip0_576_2593">
<path d="M0.857422 2.38379C0.857422 1.27922 1.75285 0.383789 2.85742 0.383789H28.8574C29.962 0.383789 30.8574 1.27922 30.8574 2.38379V28.3838C30.8574 29.4884 29.962 30.3838 28.8574 30.3838H2.85742C1.75285 30.3838 0.857422 29.4884 0.857422 28.3838V2.38379Z" fill="white"/>
</clipPath>
</defs>
</svg>
