<svg width="39" height="39" viewBox="0 0 39 39" fill="none" xmlns="http://www.w3.org/2000/svg">
<g clip-path="url(#clip0_217_1529)">
<path d="M11.9514 25.0377C10.8241 24.2684 9.30825 24.5197 8.48559 25.6014C8.34848 24.992 7.99809 24.4283 7.44203 24.0475C6.28422 23.2553 4.69985 23.5447 3.90004 24.7102L3.84672 24.7863C3.06215 23.758 2.00336 22.6002 0.685589 21.3357C0.525628 21.1834 0.266643 21.1834 0.1143 21.3434C-0.0380441 21.5033 -0.0380441 21.7623 0.121917 21.9146C1.50824 23.2477 2.58989 24.4512 3.35922 25.51L1.98813 27.5209C1.19594 28.6787 1.49301 30.2707 2.65082 31.0629C3.22211 31.4514 3.93051 31.6113 4.67699 31.4361C4.41039 32.4492 4.78364 33.5689 5.6977 34.1936C6.60414 34.8182 7.77719 34.7725 8.63793 34.1479C8.73696 34.8334 9.10258 35.4809 9.71957 35.8998C10.4432 36.3949 11.342 36.4787 12.1495 36.1436C12.1266 36.9814 12.5151 37.8117 13.2539 38.3221C14.4194 39.1143 15.9961 38.8172 16.7959 37.6594L17.2454 37.0043C17.3291 36.8824 17.3977 36.7529 17.4586 36.6234L20.3151 38.5506C21.5414 39.3809 23.2096 39.0457 24.0247 37.8041C24.3979 37.2252 24.5198 36.5625 24.4207 35.9303L25.9899 37.05C27.2848 37.9184 29.0596 37.4842 29.7985 36.0979C30.1336 35.4732 30.187 34.7648 29.9965 34.125L30.0346 34.1555C31.1467 34.8867 32.6625 34.582 33.409 33.4928C34.1784 32.373 33.9041 30.842 32.7768 30.065C33.3481 29.9584 33.8813 29.6385 34.2393 29.1205C34.5516 28.6711 34.6582 28.1379 34.6125 27.6275C36.136 25.9518 37.7508 24.634 38.8553 23.8189C39.0381 23.6818 39.0762 23.4305 38.9391 23.2477C38.802 23.0648 38.5506 23.0268 38.3678 23.1639C37.3166 23.9484 35.8008 25.1824 34.3307 26.7363C34.1707 26.4545 33.9498 26.1955 33.668 25.9975L27.2696 21.5262H27.3381C27.9932 21.5262 28.6559 21.4043 29.2729 21.1529L31.2305 20.3379C31.4362 20.2541 31.5352 20.018 31.4514 19.8123C31.3676 19.6066 31.1315 19.5076 30.9258 19.5914L28.953 20.3912C27.8637 20.833 26.6221 20.8102 25.5557 20.3303L19.8047 16.2932C19.7971 16.2855 19.7895 16.2855 19.7819 16.2855C19.3934 16.0113 18.9288 15.9047 18.4565 15.9885C17.9766 16.0723 17.5577 16.3389 17.2911 16.735L15.4629 19.3857C14.4879 20.7797 12.6674 21.2672 11.1364 20.5436L10.5346 20.2465C10.0319 20.0104 9.8643 19.3705 10.1842 18.9135C11.5325 16.9939 12.7284 15.4477 13.8329 14.1908C14.0614 13.9242 14.3204 13.6424 14.6479 13.3072C14.8536 13.0939 15.0821 12.9035 15.3258 12.7359C16.4989 13.6043 17.9385 14.1223 19.5077 14.1223C21.2063 14.1223 22.7602 13.5205 23.9866 12.515C25.9137 12.9264 27.7571 13.5357 29.4709 14.3203C29.5776 14.3736 29.7071 14.366 29.8137 14.3203C33.4243 12.6141 37.3547 9.10254 38.8858 7.67051C39.0534 7.51816 39.061 7.25918 38.901 7.09922C38.7487 6.93926 38.4897 6.92402 38.3297 7.08398C36.8596 8.4627 33.0967 11.8219 29.6385 13.5129C28.0846 12.8121 26.4164 12.2637 24.695 11.8523C25.8604 10.5955 26.584 8.91211 26.584 7.06875C26.5612 3.16875 23.3924 0 19.5 0C15.6077 0 12.4389 3.16875 12.4389 7.06113C12.4389 9.0873 13.2997 10.9154 14.6784 12.2027C14.4575 12.3703 14.2518 12.5531 14.0538 12.7512C13.7795 13.0406 13.551 13.2844 13.3454 13.5205C11.5858 13.4824 9.88715 12.8502 8.55414 11.7152L0.677972 4.6084C0.510393 4.45605 0.251409 4.47129 0.106682 4.63887C-0.0456613 4.80645 -0.0304269 5.06543 0.137151 5.21016L8.02094 12.3246C9.33871 13.4443 10.9688 14.1223 12.675 14.2898C11.7 15.4477 10.6641 16.8111 9.51391 18.4412C8.89692 19.3172 9.23207 20.5359 10.1766 20.9777L10.7784 21.2748C12.6903 22.1812 14.9373 21.5566 16.1256 19.8428L17.9538 17.192C18.1061 16.9711 18.327 16.8264 18.5936 16.7807C18.8526 16.735 19.1192 16.7959 19.3325 16.9482C19.3325 16.9482 19.3401 16.9482 19.3401 16.9559L33.1881 26.6373C33.8356 27.0867 33.9955 27.9855 33.5538 28.633C33.1196 29.2729 32.2588 29.4557 31.5961 29.0443L25.053 24.9844L24.1694 24.4055C23.9789 24.2836 23.7276 24.3369 23.6057 24.5197C23.4838 24.7102 23.5372 24.9615 23.72 25.0834L32.2741 30.6973C33.051 31.2076 33.2567 32.2512 32.7235 33.0129C32.2131 33.7594 31.2153 33.9498 30.4612 33.4547L23.301 28.7549C23.2782 28.7396 23.2553 28.7396 23.2325 28.7244L22.0061 27.8789C21.8233 27.7494 21.5643 27.7951 21.4424 27.9855C21.3129 28.1684 21.3586 28.4197 21.5491 28.5492L28.4883 33.3404C29.25 33.866 29.5014 34.8867 29.0672 35.7018C28.5569 36.6615 27.3229 36.9586 26.4393 36.3721C25.5481 35.7322 29.6614 38.6801 17.7481 30.1412C17.5653 30.0117 17.3139 30.0498 17.1844 30.2326C17.0549 30.4154 17.093 30.6668 17.2758 30.7963C22.684 34.7191 20.5131 33.1424 22.8745 34.8563C23.6666 35.4352 23.8647 36.532 23.3315 37.3471C22.7678 38.2078 21.61 38.4439 20.7569 37.865L17.6643 35.7779C17.7405 34.8867 17.352 33.9879 16.5674 33.4471C16.0342 33.0814 15.3868 32.9367 14.7469 33.0357L15.1659 32.4264C15.9581 31.2686 15.661 29.6766 14.5032 28.8844C13.9623 28.5188 13.3149 28.374 12.675 28.473C13.3834 27.3305 13.0711 25.807 11.9514 25.0377ZM13.2539 7.06113C13.2539 3.61816 16.0571 0.815039 19.5 0.815039C22.943 0.815039 25.7461 3.61816 25.7461 7.06113C25.7461 10.5041 22.943 13.3072 19.5 13.3072C16.0571 13.3072 13.2539 10.5041 13.2539 7.06113ZM3.10785 30.385C2.31567 29.8441 2.11762 28.7625 2.65844 27.9703L4.19711 25.7156C4.19711 25.7156 4.19711 25.708 4.20473 25.708L4.57035 25.1748C5.11117 24.3902 6.1852 24.177 6.97739 24.7178C7.76957 25.2586 7.96762 26.3402 7.4268 27.1324C7.39633 27.1705 5.38539 30.1184 5.51489 29.9279C4.96645 30.7354 3.88481 30.9182 3.10785 30.385ZM6.14711 33.5232C5.35492 32.9824 5.15688 31.9008 5.6977 31.1086C6.23852 30.324 7.67817 28.2141 8.09711 27.5971L9.07211 26.165C9.61293 25.3729 10.6946 25.1672 11.4791 25.708C12.2713 26.2488 12.4694 27.3305 11.9286 28.1227C9.71957 31.3523 10.9688 29.5318 8.54653 33.0662C8.01332 33.866 6.93168 34.0564 6.14711 33.5232ZM16.8264 35.8922V35.9074C16.7807 36.1283 16.6969 36.3416 16.5598 36.5396L16.1104 37.1947C15.5696 37.9793 14.4955 38.1926 13.7034 37.6518C12.9112 37.1109 12.7131 36.0293 13.2539 35.2371L13.7034 34.582C14.7469 33.0434 17.192 34.026 16.8264 35.8922ZM14.0385 29.5623C14.8307 30.1031 15.0288 31.1848 14.4879 31.977L13.0254 34.1174L12.5836 34.7725C12.0428 35.557 10.9688 35.7703 10.1766 35.2295C9.38442 34.6887 9.18637 33.607 9.72719 32.8148C9.78813 32.7311 11.7686 29.8365 11.6391 30.0193C12.1723 29.2195 13.2539 29.0215 14.0385 29.5623ZM16.7655 9.2168L18.9211 7.06113L16.7655 4.90547C16.6055 4.74551 16.6055 4.48652 16.7655 4.33418C16.9254 4.17422 17.1844 4.17422 17.3368 4.33418L19.5 6.48984L21.6557 4.33418C21.8157 4.17422 22.0746 4.17422 22.227 4.33418C22.387 4.49414 22.387 4.75313 22.227 4.90547L20.0713 7.06113L22.227 9.2168C22.387 9.37676 22.387 9.63574 22.227 9.78809C22.067 9.94805 21.808 9.94805 21.6557 9.78809L19.5 7.63242L17.3444 9.78809C17.1844 9.94805 16.9254 9.94805 16.7731 9.78809C16.6131 9.63574 16.6131 9.37676 16.7655 9.2168Z" fill="url(#paint0_linear_217_1529)"/>
</g>
<defs>
<linearGradient id="paint0_linear_217_1529" x1="3.647" y1="32.2049" x2="33.827" y2="2.02495" gradientUnits="userSpaceOnUse">
<stop stop-color="#FFFFFF"/>
<stop offset="1" stop-color="#FFFFFF"/>
</linearGradient>
<clipPath id="clip0_217_1529">
<rect width="39" height="39" fill="white"/>
</clipPath>
</defs>
</svg>
