<?xml version="1.0" standalone="no"?><!DOCTYPE svg PUBLIC "-//W3C//DTD SVG 1.1//EN" "http://www.w3.org/Graphics/SVG/1.1/DTD/svg11.dtd"><svg t="1643292556810" class="icon" viewBox="0 0 1024 1024" version="1.1" xmlns="http://www.w3.org/2000/svg" p-id="2743" xmlns:xlink="http://www.w3.org/1999/xlink" width="200" height="200"><defs><style type="text/css"></style></defs><path d="M800 96H224c-70.4 0-128 57.6-128 128v576c0 70.4 57.6 128 128 128h576c70.4 0 128-57.6 128-128V224c0-70.4-57.6-128-128-128z m64 704c0 17-6.7 33-18.9 45.1C833 857.3 817 864 800 864H224c-17 0-33-6.7-45.1-18.9C166.7 833 160 817 160 800V224c0-17 6.7-33 18.9-45.1C191 166.7 207 160 224 160h576c17 0 33 6.7 45.1 18.9C857.3 191 864 207 864 224v576z" fill="#1875F0" p-id="2744"></path><path d="M589.6 323c-11.2-5.3-24.5-3.6-34.1 4.4l-192 160c-7.3 6.1-11.5 15.1-11.5 24.6s4.2 18.5 11.5 24.6l192 160c5.9 4.9 13.1 7.4 20.5 7.4 4.6 0 9.2-1 13.6-3 11.2-5.3 18.4-16.6 18.4-29V352c0-12.4-7.2-23.7-18.4-29z" fill="#1875F0" p-id="2745"></path></svg>