<svg width="25" height="25" viewBox="0 0 25 25" fill="none" xmlns="http://www.w3.org/2000/svg">
<path d="M17.5223 15.4276C17.1482 16.0558 16.7397 16.7108 16.2971 17.392C20.0191 17.9717 21.9248 19.2136 21.9248 19.8315C21.9248 20.6543 18.5481 22.5828 11.9997 22.5828C5.45191 22.5828 2.0752 20.6543 2.0752 19.8315C2.0752 19.2136 3.98038 17.9723 7.70339 17.392C7.26032 16.7108 6.85229 16.0558 6.47774 15.4276C2.80442 16.149 0 17.6323 0 19.8315C0 23.0574 6.03727 24.7455 11.9997 24.7455C17.9633 24.7455 24 23.0574 24 19.8315C24.0005 17.6323 21.1966 16.149 17.5223 15.4276Z" fill="#484848"/>
<path d="M12.0272 0.255005C8.13628 0.255005 4.98242 3.54028 4.98242 7.59224C4.98242 10.4993 8.60604 16.0613 10.6556 18.9744C10.9763 19.4299 11.4853 19.6991 12.0272 19.6991C12.5681 19.6991 13.0787 19.4299 13.3978 18.9744C15.4473 16.0613 19.0715 10.4993 19.0715 7.59224C19.0715 3.54028 15.9176 0.255005 12.0272 0.255005ZM12.0272 12.1482C9.72812 12.1482 7.85799 10.2002 7.85799 7.80639C7.85799 5.41205 9.72812 3.46399 12.0272 3.46399C14.3258 3.46399 16.1954 5.41205 16.1954 7.80639C16.1954 10.2002 14.3258 12.1482 12.0272 12.1482Z" fill="#484848"/>
<path d="M12.0277 5.16522C10.6294 5.16522 9.49219 6.34986 9.49219 7.80641C9.49219 9.26187 10.6294 10.447 12.0277 10.447C13.4255 10.447 14.5633 9.26241 14.5633 7.80641C14.5633 6.34931 13.4255 5.16522 12.0277 5.16522Z" fill="#484848"/>
</svg>
