<svg width="36" height="37" viewBox="0 0 36 37" fill="none" xmlns="http://www.w3.org/2000/svg">
<g clip-path="url(#clip0_846_4083)">
<path d="M30.1575 30.1574C36.8716 23.4433 36.8716 12.5576 30.1575 5.84347C23.4434 -0.870621 12.5577 -0.870622 5.84359 5.84347C-0.870506 12.5576 -0.870503 23.4433 5.84359 30.1574C12.5577 36.8715 23.4434 36.8715 30.1575 30.1574Z" fill="#676860"/>
<path d="M18 0.807471C21.4004 0.807471 24.7244 1.8158 27.5517 3.70494C30.379 5.59408 32.5826 8.27918 33.8839 11.4207C35.1851 14.5622 35.5256 18.0191 34.8622 21.3541C34.1988 24.6891 32.5614 27.7525 30.157 30.1569C27.7526 32.5614 24.6891 34.1988 21.3541 34.8622C18.0191 35.5255 14.5623 35.1851 11.4207 33.8838C8.27921 32.5826 5.59411 30.379 3.70497 27.5517C1.81583 24.7244 0.807503 21.4004 0.807503 18C0.807326 15.7422 1.2519 13.5065 2.11585 11.4205C2.97979 9.33453 4.24617 7.43916 5.84268 5.84265C7.43919 4.24614 9.33455 2.97976 11.4205 2.11582C13.5065 1.25188 15.7422 0.807294 18 0.807471ZM18 -5.6004e-06C13.8364 0.000530517 9.80169 1.44471 6.58343 4.08647C3.36517 6.72822 1.16243 10.4041 0.35052 14.4879C-0.461391 18.5716 0.167758 22.8105 2.13077 26.4824C4.09378 30.1543 7.26921 33.0319 11.116 34.625C14.9628 36.2182 19.243 36.4283 23.2274 35.2195C27.2117 34.0107 30.6536 31.4578 32.9668 27.9958C35.2799 24.5338 36.3211 20.3768 35.913 16.2332C35.5049 12.0896 33.6727 8.21568 30.7286 5.27148C29.0609 3.59479 27.0772 2.26554 24.8923 1.36069C22.7075 0.455836 20.3648 -0.00665498 18 -5.6004e-06Z" fill="white"/>
<path d="M30.1572 30.227C36.8713 23.5129 36.8713 12.6272 30.1572 5.91314C23.4431 -0.800953 12.5574 -0.800955 5.84328 5.91314C-0.870812 12.6272 -0.870809 23.5129 5.84329 30.227C12.5574 36.9411 23.4431 36.9411 30.1572 30.227Z" fill="#676860"/>
<path d="M18 0.877453C21.4004 0.877453 24.7244 1.88578 27.5517 3.77492C30.379 5.66406 32.5826 8.34916 33.8838 11.4907C35.1851 14.6322 35.5256 18.0891 34.8622 21.4241C34.1988 24.7591 32.5614 27.8225 30.1569 30.2269C27.7525 32.6314 24.6891 34.2688 21.3541 34.9322C18.0191 35.5955 14.5622 35.2551 11.4207 33.9538C8.27919 32.6525 5.59409 30.4489 3.70495 27.6216C1.81581 24.7943 0.80749 21.4703 0.80749 18.07C0.80749 13.5102 2.61884 9.13725 5.84306 5.91303C9.06728 2.6888 13.4403 0.877453 18 0.877453ZM18 0.0699765C13.8362 0.0717582 9.80192 1.51721 6.58442 4.16004C3.36692 6.80287 1.16531 10.4796 0.354734 14.5637C-0.455847 18.6478 0.174748 22.8866 2.13907 26.5578C4.1034 30.2291 7.27991 33.1057 11.1274 34.6975C14.9749 36.2893 19.2552 36.4978 23.2392 35.2875C27.2232 34.0771 30.6642 31.5229 32.976 28.0599C35.2879 24.5969 36.3274 20.4394 35.9176 16.2959C35.5078 12.1523 33.6739 8.27909 30.7285 5.33607C29.0609 3.65939 27.0772 2.33014 24.8923 1.42528C22.7075 0.52043 20.3648 0.0579469 18 0.0645963V0.0699765Z" fill="white"/>
<path d="M35.1925 17.3002C35.1932 16.1122 35.0764 14.9271 34.844 13.7621L26.8432 5.76134L7.61719 26.4651L16.3891 35.2383C16.6672 35.2517 16.9476 35.2585 17.2302 35.2585C21.9934 35.2585 26.5616 33.3666 29.93 29.9989C33.2985 26.6311 35.1914 22.0634 35.1925 17.3002Z" fill="#302C2C"/>
<path d="M26.7719 6.36157H7.5459V27.0707H14.7809L17.1589 31.5118L20.2394 27.0707H26.7719V6.36157Z" fill="#FF0000"/>
<path d="M17.1589 31.5064L20.2394 27.0653H26.7719V6.36157H17.1562L17.1589 31.5064Z" fill="#CC0000"/>
<path d="M15.8696 23.5258H13.2036V9.22811H18.7577C20.0491 9.24946 21.2803 9.77745 22.186 10.6982C23.0917 11.619 23.5992 12.8588 23.5992 14.1504C23.5992 15.4419 23.0917 16.6817 22.186 17.6025C21.2803 18.5233 20.0491 19.0512 18.7577 19.0726H15.8696V23.5258ZM15.8696 16.4052H18.7577C19.3559 16.4052 19.9296 16.1676 20.3526 15.7446C20.7756 15.3216 21.0133 14.7479 21.0133 14.1497C21.0133 13.5515 20.7756 12.9778 20.3526 12.5548C19.9296 12.1318 19.3559 11.8941 18.7577 11.8941H15.8696V16.4052Z" fill="white"/>
<path d="M18.7577 9.22811H17.1562V11.8941H18.7577C19.3559 11.8941 19.9296 12.1318 20.3526 12.5548C20.7756 12.9778 21.0132 13.5515 21.0132 14.1497C21.0132 14.7479 20.7756 15.3216 20.3526 15.7446C19.9296 16.1676 19.3559 16.4052 18.7577 16.4052H17.1562V19.0726H18.7577C20.049 19.0512 21.2803 18.5233 22.186 17.6025C23.0916 16.6817 23.5992 15.4419 23.5992 14.1504C23.5992 12.8588 23.0916 11.619 22.186 10.6982C21.2803 9.77745 20.049 9.24946 18.7577 9.22811Z" fill="#E9EDF5"/>
</g>
<defs>
<clipPath id="clip0_846_4083">
<rect width="36" height="36.07" fill="white"/>
</clipPath>
</defs>
</svg>
