<svg width="36" height="37" viewBox="0 0 36 37" fill="none" xmlns="http://www.w3.org/2000/svg">
<g clip-path="url(#clip0_846_4093)">
<path d="M30.1566 30.1571C36.8707 23.443 36.8707 12.5573 30.1566 5.84322C23.4425 -0.870878 12.5568 -0.87089 5.84268 5.84321C-0.871418 12.5573 -0.871412 23.443 5.84269 30.1571C12.5568 36.8712 23.4425 36.8712 30.1566 30.1571Z" fill="#676860"/>
<path d="M18 0.807474C21.4004 0.807474 24.7244 1.8158 27.5517 3.70494C30.379 5.59408 32.5826 8.27919 33.8838 11.4207C35.1851 14.5622 35.5256 18.0191 34.8622 21.3541C34.1988 24.6891 32.5614 27.7525 30.157 30.157C27.7525 32.5614 24.6891 34.1988 21.3541 34.8622C18.0191 35.5256 14.5622 35.1851 11.4207 33.8838C8.2792 32.5826 5.59409 30.379 3.70495 27.5517C1.81581 24.7244 0.807492 21.4004 0.807492 18C0.807849 13.4404 2.61931 9.06759 5.84345 5.84344C9.0676 2.6193 13.4404 0.807831 18 0.807474ZM18 -2.28136e-06C13.8349 -0.000604762 9.7984 1.44306 6.57837 4.08498C3.35835 6.72691 1.15403 10.4036 0.341015 14.4886C-0.472002 18.5737 0.156589 22.8142 2.11969 26.4877C4.08279 30.1612 7.25893 33.0403 11.1069 34.6345C14.9549 36.2287 19.2366 36.4393 23.2224 35.2305C27.2083 34.0216 30.6516 31.4681 32.9658 28.005C35.2799 24.5418 36.3216 20.3835 35.9134 16.2384C35.5052 12.0933 33.6724 8.21801 30.7272 5.27283C29.0599 3.59594 27.0765 2.26646 24.8918 1.36137C22.7072 0.456276 20.3647 -0.00644595 18 -2.28136e-06Z" fill="white"/>
<path d="M30.1576 30.2268C36.8717 23.5127 36.8717 12.627 30.1576 5.91289C23.4435 -0.801207 12.5578 -0.801219 5.84372 5.91288C-0.87038 12.627 -0.870374 23.5127 5.84373 30.2268C12.5578 36.9409 23.4435 36.9409 30.1576 30.2268Z" fill="#676860"/>
<path d="M18 0.877461C21.4004 0.877461 24.7244 1.88579 27.5517 3.77493C30.379 5.66407 32.5826 8.34918 33.8838 11.4907C35.1851 14.6322 35.5256 18.0891 34.8622 21.4241C34.1988 24.7591 32.5614 27.8225 30.157 30.2269C27.7525 32.6314 24.6891 34.2688 21.3541 34.9322C18.0191 35.5955 14.5622 35.2551 11.4207 33.9538C8.2792 32.6525 5.59409 30.4489 3.70495 27.6216C1.81581 24.7943 0.807492 21.4704 0.807492 18.07C0.807849 13.5104 2.61931 9.13758 5.84345 5.91343C9.0676 2.68928 13.4404 0.877817 18 0.877461ZM18 0.0699838C13.8349 0.0693813 9.7984 1.51304 6.57837 4.15497C3.35835 6.79689 1.15403 10.4736 0.341015 14.5586C-0.472002 18.6436 0.156589 22.8842 2.11969 26.5577C4.08279 30.2312 7.25893 33.1103 11.1069 34.7045C14.9549 36.2987 19.2366 36.5093 23.2224 35.3005C27.2083 34.0916 30.6516 31.538 32.9658 28.0749C35.2799 24.6118 36.3216 20.4535 35.9134 16.3084C35.5052 12.1633 33.6724 8.28799 30.7272 5.34281C29.0597 3.66616 27.0763 2.33684 24.8917 1.43176C22.7071 0.52669 20.3647 0.0638374 18 0.0699838Z" fill="white"/>
<path d="M34.9233 17.4401C34.9236 16.2521 34.8064 15.067 34.5734 13.902L26.5727 5.90131L7.34668 26.6037L16.1199 35.3769C16.3989 35.3904 16.6789 35.3971 16.9597 35.3971C21.7229 35.3975 26.2912 33.5059 29.6599 30.1384C33.0287 26.771 34.9219 22.2034 34.9233 17.4401Z" fill="#302C2C"/>
<path d="M14.5386 27.6951H7.14215V6.17854H27.1756V27.6951H20.4507L17.1145 32.4996L14.5386 27.6951Z" fill="#FFD400"/>
<path d="M26.7692 6.58363V27.2914H20.2381L17.1589 31.7325L14.7795 27.2914H7.54588V6.58363H26.7692ZM27.5767 5.77615H6.7384V28.0988H14.2964L16.4497 32.1093L17.0728 33.2721L17.8237 32.1887L20.6633 28.0988H27.5767V5.77615Z" fill="white"/>
<path d="M17.1589 31.7284L20.2394 27.2914H26.7719V6.58228H17.1562L17.1589 31.7284Z" fill="#EFC203"/>
<path d="M15.8683 23.7465H13.2023V9.44882H18.7564C20.062 9.44882 21.3142 9.96748 22.2374 10.8907C23.1606 11.8139 23.6793 13.0661 23.6793 14.3717C23.6793 15.6774 23.1606 16.9295 22.2374 17.8528C21.3142 18.776 20.062 19.2947 18.7564 19.2947H15.8683V23.7465ZM15.8683 16.6273H18.7564C19.3546 16.6273 19.9283 16.3897 20.3513 15.9667C20.7743 15.5437 21.0119 14.9699 21.0119 14.3717C21.0119 13.7735 20.7743 13.1998 20.3513 12.7768C19.9283 12.3538 19.3546 12.1162 18.7564 12.1162H15.8683V16.6273Z" fill="white"/>
<path d="M18.7563 9.44882H17.1548V12.1162H18.7563C19.3546 12.1162 19.9283 12.3538 20.3513 12.7768C20.7743 13.1998 21.0119 13.7735 21.0119 14.3717C21.0119 14.9699 20.7743 15.5437 20.3513 15.9667C19.9283 16.3897 19.3546 16.6273 18.7563 16.6273H17.1548V19.2947H18.7563C20.062 19.2947 21.3141 18.776 22.2374 17.8528C23.1606 16.9295 23.6793 15.6774 23.6793 14.3717C23.6793 13.0661 23.1606 11.8139 22.2374 10.8907C21.3141 9.96748 20.062 9.44882 18.7563 9.44882Z" fill="#E9EDF5"/>
</g>
<defs>
<clipPath id="clip0_846_4093">
<rect width="36" height="36.07" fill="white"/>
</clipPath>
</defs>
</svg>
