<svg width="30" height="30" viewBox="0 0 30 30" fill="none" xmlns="http://www.w3.org/2000/svg">
<g clip-path="url(#clip0_576_2907)">
<path d="M12.3631 6.38672C11.7158 6.38672 11.1912 6.91132 11.1912 7.55859V17.1094C11.1912 17.7567 11.7158 18.2812 12.3631 18.2812C13.0103 18.2812 13.5349 17.7567 13.5349 17.1094V13.8281H16.5017C18.549 13.8281 20.2146 12.1525 20.2146 10.0928C20.2146 8.04932 18.549 6.38672 16.5017 6.38672H12.3631ZM17.8709 10.0928C17.8709 10.8472 17.244 11.4844 16.5017 11.4844H13.5349V8.73047H16.5017C17.2568 8.73047 17.8709 9.34158 17.8709 10.0928ZM27.0113 11.9975C27.0087 14.6237 26.2196 16.9975 24.5272 19.4705C24.1619 20.0045 23.4325 20.1411 22.8985 19.7758C22.3643 19.4103 22.2276 18.6809 22.5932 18.1467C24.0063 16.0815 24.6655 14.1275 24.6675 11.9978C24.6616 6.6758 20.3245 2.34375 14.9998 2.34375C9.67506 2.34375 5.33821 6.6758 5.33203 12.0003C5.33615 16.2399 7.93304 19.0839 10.9401 22.3769C12.3232 23.8916 13.7462 25.4501 14.9998 27.2424C16.2534 25.4501 17.6763 23.8916 19.0594 22.3771L19.2405 22.1789C19.6767 21.7007 20.4179 21.6669 20.896 22.1031C21.3739 22.5394 21.4078 23.2807 20.9715 23.7589L20.79 23.9575C19.2348 25.6609 17.6264 27.4223 16.3419 29.4543C16.1272 29.794 15.7533 30 15.3513 30H14.6482C14.2463 30 13.8725 29.794 13.6576 29.4543C12.3731 27.4221 10.7648 25.6606 9.20929 23.9573C7.62291 22.2201 6.12465 20.5792 4.97108 18.6983C3.63922 16.5264 2.99057 14.3353 2.98828 12.0003C2.99194 8.79227 4.24301 5.77927 6.511 3.51357C8.77899 1.24786 11.7938 0 14.9998 0C18.2057 0 21.2206 1.24786 23.4885 3.51357C25.7565 5.77904 27.0076 8.79204 27.0113 11.9975Z" fill="url(#paint0_linear_576_2907)"/>
</g>
<defs>
<linearGradient id="paint0_linear_576_2907" x1="2.98826" y1="15" x2="27.0114" y2="15" gradientUnits="userSpaceOnUse">
<stop stop-color="#FFFFFF"/>
<stop offset="0.0208" stop-color="#FFFFFF"/>
<stop offset="0.2931" stop-color="#FFFFFF"/>
<stop offset="0.5538" stop-color="#FFFFFF"/>
<stop offset="0.7956" stop-color="#FFFFFF"/>
<stop offset="1" stop-color="#FFFFFF"/>
</linearGradient>
<clipPath id="clip0_576_2907">
<path d="M0 2C0 0.89543 0.895431 0 2 0H28C29.1046 0 30 0.895431 30 2V28C30 29.1046 29.1046 30 28 30H2C0.89543 30 0 29.1046 0 28V2Z" fill="white"/>
</clipPath>
</defs>
</svg>
