<svg width="36" height="37" viewBox="0 0 36 37" fill="none" xmlns="http://www.w3.org/2000/svg">
<g clip-path="url(#clip0_847_3409)">
<path d="M30.1577 30.1573C36.8718 23.4432 36.8718 12.5575 30.1577 5.84342C23.4436 -0.870674 12.5579 -0.870675 5.84381 5.84342C-0.87029 12.5575 -0.87029 23.4432 5.84381 30.1573C12.5579 36.8714 23.4436 36.8714 30.1577 30.1573Z" fill="#676860"/>
<path d="M18 0.807476C21.4003 0.807476 24.7242 1.81576 27.5515 3.70484C30.3788 5.59392 32.5824 8.27895 33.8837 11.4204C35.185 14.5618 35.5255 18.0186 34.8623 21.3536C34.199 24.6886 32.5617 27.752 30.1574 30.1565C27.7531 32.5609 24.6899 34.1985 21.3549 34.862C18.02 35.5255 14.5632 35.1852 11.4216 33.8842C8.28009 32.5831 5.59489 30.3797 3.70559 27.5526C1.81629 24.7255 0.807732 21.4016 0.807466 18.0013C0.807823 13.4417 2.61929 9.06893 5.84344 5.84479C9.06758 2.62064 13.4404 0.80918 18 0.808824V0.807476ZM18 0.00134718C13.8356 0.00131406 9.79994 1.44526 6.58078 4.08714C3.36162 6.72903 1.1581 10.4054 0.345687 14.4898C-0.466731 18.5742 0.162233 22.814 2.12538 26.4867C4.08853 30.1594 7.26441 33.0377 11.1119 34.6313C14.9594 36.2249 19.2403 36.4351 23.2254 35.2261C27.2105 34.0171 30.6531 31.4638 32.9666 28.0011C35.2802 24.5384 36.3215 20.3807 35.9131 16.2363C35.5048 12.092 33.672 8.21738 30.7272 5.27282C29.0596 3.59636 27.0762 2.26725 24.8915 1.3624C22.7069 0.457559 20.3646 -0.00504978 18 0.00134718V0.00134718Z" fill="white"/>
<path d="M30.1574 30.227C36.8715 23.5129 36.8715 12.6272 30.1574 5.91311C23.4433 -0.800988 12.5576 -0.800989 5.8435 5.91311C-0.870595 12.6272 -0.870595 23.5129 5.8435 30.227C12.5576 36.9411 23.4433 36.9411 30.1574 30.227Z" fill="#676860"/>
<path d="M18 0.877459C21.4004 0.877459 24.7244 1.88578 27.5517 3.77492C30.379 5.66405 32.5826 8.34916 33.8838 11.4907C35.1851 14.6322 35.5256 18.089 34.8622 21.4241C34.1988 24.7591 32.5614 27.8225 30.157 30.2269C27.7525 32.6313 24.6891 34.2688 21.3541 34.9321C18.0191 35.5955 14.5622 35.2551 11.4207 33.9538C8.27918 32.6525 5.59408 30.4489 3.70494 27.6216C1.8158 24.7943 0.807474 21.4703 0.807474 18.07C0.807831 13.5103 2.6193 9.13757 5.84344 5.91343C9.06759 2.68928 13.4404 0.877815 18 0.877459V0.877459ZM18 0.0699822C13.8349 0.0693797 9.7984 1.51304 6.57837 4.15496C3.35835 6.79689 1.15401 10.4736 0.340996 14.5586C-0.472021 18.6436 0.156587 22.8842 2.11969 26.5577C4.08279 30.2312 7.25893 33.1103 11.1069 34.7045C14.9549 36.2987 19.2366 36.5093 23.2224 35.3004C27.2083 34.0916 30.6516 31.538 32.9658 28.0749C35.2799 24.6118 36.3216 20.4535 35.9134 16.3084C35.5052 12.1633 33.6724 8.28798 30.7272 5.3428C29.0599 3.66591 27.0765 2.33643 24.8918 1.43134C22.7072 0.526252 20.3647 0.0635385 18 0.0699822Z" fill="white"/>
<path d="M35.0606 17.3002C35.0609 16.1122 34.9437 14.9271 34.7107 13.7621L26.71 5.76135L7.48396 26.4691L16.2572 35.2423C16.5353 35.2558 16.8153 35.2625 17.097 35.2625C21.861 35.2625 26.4299 33.3701 29.7987 30.0015C33.1675 26.633 35.0603 22.0642 35.0606 17.3002Z" fill="#302C2C"/>
<path d="M26.7719 6.58362H7.54587V27.2873H14.7809L17.1589 31.7284L20.238 27.2873H26.7719V6.58362Z" fill="#3CCE6C"/>
<path d="M17.1616 31.7284L20.2408 27.2873H26.7746V6.58362H17.1616V31.7284Z" fill="#2BAF4D"/>
<path d="M15.8696 23.7465H13.2022V9.44882H18.7563C19.4096 9.43802 20.0584 9.55735 20.6651 9.79987C21.2718 10.0424 21.8241 10.4032 22.2899 10.8614C22.7556 11.3195 23.1256 11.8658 23.3781 12.4684C23.6306 13.0709 23.7606 13.7177 23.7606 14.3711C23.7606 15.0244 23.6306 15.6712 23.3781 16.2738C23.1256 16.8763 22.7556 17.4226 22.2899 17.8807C21.8241 18.3389 21.2718 18.6997 20.6651 18.9423C20.0584 19.1848 19.4096 19.3041 18.7563 19.2933H15.8696V23.7465ZM15.8696 16.6273H18.7563C19.3545 16.6273 19.9282 16.3897 20.3512 15.9667C20.7742 15.5437 21.0119 14.97 21.0119 14.3717C21.0119 13.7735 20.7742 13.1998 20.3512 12.7768C19.9282 12.3538 19.3545 12.1162 18.7563 12.1162H15.8696V16.6273Z" fill="white"/>
<path d="M18.7563 9.44882H17.1616V12.1162H18.7617C19.3599 12.1162 19.9336 12.3538 20.3566 12.7768C20.7796 13.1998 21.0173 13.7735 21.0173 14.3717C21.0173 14.97 20.7796 15.5437 20.3566 15.9667C19.9336 16.3897 19.3599 16.6273 18.7617 16.6273H17.1616V19.2933H18.7617C19.415 19.3041 20.0638 19.1848 20.6705 18.9423C21.2772 18.6997 21.8295 18.3389 22.2952 17.8807C22.761 17.4226 23.131 16.8763 23.3835 16.2738C23.636 15.6712 23.766 15.0244 23.766 14.3711C23.766 13.7177 23.636 13.0709 23.3835 12.4684C23.131 11.8658 22.761 11.3195 22.2952 10.8614C21.8295 10.4032 21.2772 10.0424 20.6705 9.79987C20.0638 9.55735 19.415 9.43802 18.7617 9.44882H18.7563Z" fill="#E9EDF5"/>
</g>
<defs>
<clipPath id="clip0_847_3409">
<rect width="36" height="36.07" fill="white"/>
</clipPath>
</defs>
</svg>
