<svg width="30" height="30" viewBox="0 0 30 30" fill="none" xmlns="http://www.w3.org/2000/svg">
<path d="M15 0C6.7285 0 0 6.7285 0 15C0 23.2715 6.7285 30 15 30C23.2715 30 30 23.2703 30 15C30 6.72967 23.2715 0 15 0ZM15 27.6762C8.01123 27.6762 2.32377 21.9899 2.32377 15C2.32377 8.01006 8.01123 2.32377 15 2.32377C21.9888 2.32377 27.6762 8.01006 27.6762 15C27.6762 21.9899 21.9899 27.6762 15 27.6762Z" fill="#2D9CDB"/>
<path d="M20.8101 13.7336H16.1626V9.08602C16.1626 8.44465 15.6432 7.9241 15.0007 7.9241C14.3581 7.9241 13.8388 8.44465 13.8388 9.08602V13.7336H9.19121C8.54867 13.7336 8.0293 14.2541 8.0293 14.8955C8.0293 15.5368 8.54867 16.0574 9.19121 16.0574H13.8388V20.7049C13.8388 21.3463 14.3581 21.8668 15.0007 21.8668C15.6432 21.8668 16.1626 21.3463 16.1626 20.7049V16.0574H20.8101C21.4527 16.0574 21.972 15.5368 21.972 14.8955C21.972 14.2541 21.4527 13.7336 20.8101 13.7336Z" fill="#2D9CDB"/>
</svg>
