<?xml version="1.0" standalone="no"?><!DOCTYPE svg PUBLIC "-//W3C//DTD SVG 1.1//EN" "http://www.w3.org/Graphics/SVG/1.1/DTD/svg11.dtd"><svg t="1643709667829" class="icon" viewBox="0 0 1024 1024" version="1.1" xmlns="http://www.w3.org/2000/svg" p-id="10558" xmlns:xlink="http://www.w3.org/1999/xlink" width="200" height="200"><defs><style type="text/css"></style></defs><path d="M511.631 510.91m-445.605 0a445.605 445.605 0 1 0 891.21 0 445.605 445.605 0 1 0-891.21 0Z" fill="#25DAA1" p-id="10559"></path><path d="M717.309 398.493c-4.772-4.48-12.274-4.24-16.752 0.531L474.259 639.151l-127.294-133.28c-4.499-4.753-12-4.962-16.754-0.461-4.754 4.499-4.961 12-0.462 16.754l135.937 142.413c0.085 0.089 0.178 0.165 0.264 0.252 0.08 0.079 0.15 0.165 0.233 0.243 0.068 0.064 0.142 0.118 0.211 0.18a12.324 12.324 0 0 0 1.406 1.085c0.168 0.111 0.34 0.214 0.512 0.316 0.162 0.095 0.324 0.189 0.489 0.275 0.186 0.097 0.374 0.185 0.563 0.272 0.159 0.073 0.316 0.146 0.477 0.212 0.207 0.084 0.416 0.156 0.626 0.227 0.151 0.051 0.3 0.106 0.452 0.151 0.231 0.068 0.464 0.122 0.698 0.177 0.136 0.031 0.271 0.069 0.408 0.096 0.265 0.052 0.533 0.086 0.8 0.12 0.11 0.014 0.218 0.035 0.328 0.045 0.378 0.036 0.757 0.056 1.136 0.056h0.004c0.382 0 0.763-0.02 1.143-0.057 0.106-0.01 0.211-0.031 0.317-0.044 0.273-0.034 0.546-0.07 0.818-0.123 0.133-0.026 0.263-0.062 0.395-0.093 0.241-0.056 0.482-0.112 0.72-0.183 0.145-0.043 0.288-0.096 0.432-0.146 0.219-0.075 0.438-0.15 0.653-0.238 0.154-0.063 0.304-0.134 0.455-0.203 0.199-0.091 0.397-0.184 0.592-0.287a13.667 13.667 0 0 0 1.003-0.596c0.159-0.105 0.314-0.215 0.468-0.329a11.582 11.582 0 0 0 0.934-0.761c0.07-0.063 0.145-0.118 0.214-0.183 0.087-0.082 0.161-0.172 0.244-0.256 0.082-0.083 0.171-0.155 0.251-0.241l234.903-249.297a11.812 11.812 0 0 0 3.211-8.113 11.81 11.81 0 0 0-3.737-8.641z" fill="#FFFFFF" p-id="10560"></path></svg>