<svg width="36" height="37" viewBox="0 0 36 37" fill="none" xmlns="http://www.w3.org/2000/svg">
<g clip-path="url(#clip0_846_3923)">
<path d="M30.1569 30.1582C36.871 23.4441 36.871 12.5584 30.1569 5.84428C23.4428 -0.869816 12.5571 -0.869817 5.84295 5.84428C-0.871143 12.5584 -0.871143 23.4441 5.84295 30.1582C12.5571 36.8723 23.4428 36.8723 30.1569 30.1582Z" fill="#676860"/>
<path d="M18 0.807471C21.4004 0.807471 24.7244 1.81579 27.5517 3.70493C30.379 5.59407 32.5826 8.27918 33.8839 11.4207C35.1851 14.5622 35.5256 18.0191 34.8622 21.3541C34.1988 24.6891 32.5614 27.7525 30.157 30.1569C27.7526 32.5614 24.6891 34.1988 21.3541 34.8622C18.0191 35.5255 14.5623 35.1851 11.4207 33.8838C8.27921 32.5826 5.5941 30.3789 3.70496 27.5516C1.81582 24.7244 0.807503 21.4004 0.807503 18C0.807326 15.7422 1.2519 13.5065 2.11584 11.4205C2.97978 9.33452 4.24617 7.43916 5.84268 5.84265C7.43919 4.24614 9.33455 2.97976 11.4205 2.11581C13.5065 1.25187 15.7422 0.807294 18 0.807471ZM18 -5.6001e-06C13.8364 0.000530517 9.80169 1.44471 6.58343 4.08646C3.36517 6.72822 1.16243 10.4041 0.350521 14.4878C-0.46139 18.5716 0.167755 22.8105 2.13077 26.4824C4.09378 30.1542 7.26921 33.0319 11.116 34.625C14.9628 36.2182 19.243 36.4283 23.2274 35.2194C27.2117 34.0106 30.6536 31.4578 32.9668 27.9958C35.2799 24.5337 36.3211 20.3768 35.913 16.2332C35.5049 12.0896 33.6727 8.21567 30.7286 5.27147C29.0609 3.59478 27.0772 2.26554 24.8923 1.36069C22.7075 0.455834 20.3648 -0.00665498 18 -5.6001e-06Z" fill="white"/>
<path d="M30.1565 30.2278C36.8706 23.5138 36.8706 12.628 30.1565 5.91395C23.4424 -0.800147 12.5567 -0.800147 5.84264 5.91395C-0.87145 12.628 -0.87145 23.5138 5.84264 30.2278C12.5567 36.9419 23.4424 36.9419 30.1565 30.2278Z" fill="#676860"/>
<path d="M18 0.877463C21.4004 0.877463 24.7244 1.88579 27.5517 3.77493C30.379 5.66407 32.5826 8.34917 33.8839 11.4907C35.1851 14.6322 35.5256 18.0891 34.8622 21.4241C34.1988 24.7591 32.5614 27.8225 30.157 30.2269C27.7526 32.6314 24.6891 34.2688 21.3541 34.9322C18.0191 35.5955 14.5623 35.2551 11.4207 33.9538C8.27921 32.6525 5.5941 30.4489 3.70496 27.6216C1.81582 24.7943 0.807503 21.4703 0.807503 18.07C0.807326 15.8122 1.2519 13.5765 2.11584 11.4905C2.97978 9.40451 4.24617 7.50915 5.84268 5.91264C7.43919 4.31613 9.33455 3.04975 11.4205 2.18581C13.5065 1.32186 15.7422 0.877286 18 0.877463ZM18 0.0699865C13.8364 0.0705226 9.80169 1.5147 6.58343 4.15645C3.36517 6.79821 1.16243 10.4741 0.350521 14.5578C-0.46139 18.6416 0.167755 22.8805 2.13077 26.5524C4.09378 30.2242 7.26921 33.1019 11.116 34.695C14.9628 36.2882 19.243 36.4982 23.2274 35.2894C27.2117 34.0806 30.6536 31.5278 32.9668 28.0657C35.2799 24.6037 36.3211 20.4468 35.913 16.3032C35.5049 12.1596 33.6727 8.28566 30.7286 5.34147C29.0609 3.66478 27.0772 2.33553 24.8923 1.43068C22.7075 0.525826 20.3648 0.0633371 18 0.0699865Z" fill="white"/>
<path d="M18.1252 5.12209L33.6476 11.5079C33.6476 11.5079 35.9125 16.2518 34.5169 22.0226C34.5169 22.0226 32.0272 30.5711 25.6266 33.4417C25.6266 33.4417 22.2783 34.9691 20.0295 35.1158L17.7806 35.2625L18.1252 5.12209Z" fill="#302C2C"/>
<path d="M16.7417 18.1198V35.2114C17.1571 35.2419 17.5765 35.2576 18 35.2585C18.3701 35.2585 18.7362 35.245 19.0995 35.2221V18.1198H16.7417Z" fill="#D3D3D3"/>
<path d="M16.7417 18.1198V35.2114C17.1571 35.2419 17.5765 35.2576 18 35.2585V18.1198H16.7417Z" fill="#EAEAEA"/>
<path d="M18 3.34699C14.4188 3.34699 11.5146 5.06423 11.5146 7.17981V24.6159C11.5146 26.7329 14.4188 28.4487 18 28.4487C21.5812 28.4487 24.4854 26.7329 24.4854 24.6159V7.18251C24.4854 5.06423 21.5812 3.34699 18 3.34699Z" fill="#E5E5E5"/>
<path d="M18 4.03469C14.9047 4.03469 12.3907 5.65772 12.3907 7.65757V24.1395C12.3907 26.1407 14.902 27.7624 18 27.7624C21.098 27.7624 23.6106 26.1407 23.6106 24.1395V7.65757C23.6106 5.65772 21.098 4.03469 18 4.03469Z" fill="#3B3B3B"/>
<g style="mix-blend-mode:multiply" opacity="0.58">
<path d="M18 3.28912V35.1993L19.0995 35.167V28.3895C19.9688 28.3334 20.8239 28.1413 21.6337 27.8203C23.0306 27.2523 24.4854 26.1448 24.4854 24.5567V7.12195C24.4854 7.12195 24.4854 5.18669 22.0199 4.15178C20.748 3.60796 19.3831 3.31504 18 3.28912Z" fill="#303030"/>
</g>
<path d="M18.0727 18.7617C19.7056 18.7617 21.0294 17.438 21.0294 15.805C21.0294 14.1721 19.7056 12.8483 18.0727 12.8483C16.4397 12.8483 15.116 14.1721 15.116 15.805C15.116 17.438 16.4397 18.7617 18.0727 18.7617Z" fill="#EAB42D"/>
<path d="M19.8882 14.0232C19.4063 13.5413 18.7528 13.2706 18.0713 13.2706C17.3899 13.2706 16.7364 13.5413 16.2545 14.0232C15.7727 14.505 15.502 15.1586 15.502 15.84C15.502 16.5214 15.7727 17.175 16.2545 17.6568C17.2598 18.6568 20.8908 15.0258 19.8882 14.0232Z" fill="#FFD400"/>
<path d="M18.0727 11.3168C19.7056 11.3168 21.0294 9.99302 21.0294 8.36008C21.0294 6.72713 19.7056 5.40337 18.0727 5.40337C16.4397 5.40337 15.116 6.72713 15.116 8.36008C15.116 9.99302 16.4397 11.3168 18.0727 11.3168Z" fill="#EAB42D"/>
<path d="M19.8882 6.57824C19.4063 6.09639 18.7528 5.82569 18.0713 5.82569C17.3899 5.82569 16.7364 6.09639 16.2545 6.57824C15.7727 7.06009 15.502 7.71362 15.502 8.39506C15.502 9.0765 15.7727 9.73003 16.2545 10.2119C17.2598 11.2199 20.8908 7.58624 19.8882 6.57824Z" fill="#FFD400"/>
<path d="M18.0727 26.2067C19.7056 26.2067 21.0294 24.8829 21.0294 23.25C21.0294 21.617 19.7056 20.2932 18.0727 20.2932C16.4397 20.2932 15.116 21.617 15.116 23.25C15.116 24.8829 16.4397 26.2067 18.0727 26.2067Z" fill="#EAB42D"/>
<path d="M19.8882 21.4668C19.4063 20.9849 18.7528 20.7142 18.0713 20.7142C17.3899 20.7142 16.7364 20.9849 16.2545 21.4668C15.7727 21.9486 15.502 22.6022 15.502 23.2836C15.502 23.965 15.7727 24.6186 16.2545 25.1004C17.2598 26.1017 20.8908 22.4707 19.8882 21.4668Z" fill="#FFD400"/>
<path d="M19.8882 14.0232C20.522 14.6557 19.3068 16.3366 18.0727 17.2383V18.7563C18.8579 18.7563 19.611 18.4444 20.1663 17.8891C20.7215 17.3339 21.0334 16.5808 21.0334 15.7956C21.0334 15.0103 20.7215 14.2573 20.1663 13.702C19.611 13.1468 18.8579 12.8348 18.0727 12.8348V13.2588C18.4108 13.2598 18.7454 13.3279 19.057 13.4591C19.3686 13.5903 19.6511 13.7821 19.8882 14.0232Z" fill="#D6A12B"/>
<path d="M19.8882 14.0232C19.6501 13.7842 19.3672 13.5948 19.0556 13.4657C18.744 13.3365 18.41 13.2703 18.0727 13.2709V17.2383C19.3068 16.3339 20.522 14.6557 19.8882 14.0232Z" fill="#DBBC3B"/>
<path d="M19.8882 6.57825C20.522 7.21077 19.3068 8.89167 18.0727 9.79335V11.3168C18.8579 11.3168 19.611 11.0049 20.1663 10.4496C20.7215 9.89436 21.0334 9.14128 21.0334 8.35604C21.0334 7.5708 20.7215 6.81772 20.1663 6.26248C19.611 5.70723 18.8579 5.39529 18.0727 5.39529V5.81922C18.4104 5.81957 18.7448 5.88682 19.0564 6.0171C19.368 6.14738 19.6507 6.3381 19.8882 6.57825Z" fill="#D6A12B"/>
<path d="M19.8882 6.57824C19.6501 6.33931 19.3672 6.14984 19.0556 6.02072C18.744 5.89161 18.41 5.82541 18.0727 5.82595V9.79335C19.3068 8.89166 20.522 7.21077 19.8882 6.57824Z" fill="#DBBC3B"/>
<path d="M19.8882 21.4668C20.522 22.1006 19.3068 23.7815 18.0727 24.6819V26.2053C18.474 26.2263 18.8753 26.1654 19.2523 26.0262C19.6293 25.8871 19.974 25.6727 20.2654 25.3961C20.5569 25.1195 20.789 24.7864 20.9476 24.4172C21.1062 24.048 21.188 23.6504 21.188 23.2486C21.188 22.8468 21.1062 22.4491 20.9476 22.0799C20.789 21.7107 20.5569 21.3777 20.2654 21.1011C19.974 20.8245 19.6293 20.6101 19.2523 20.4709C18.8753 20.3318 18.474 20.2709 18.0727 20.2919V20.7158C18.4099 20.7151 18.7439 20.7811 19.0554 20.91C19.367 21.0388 19.65 21.2281 19.8882 21.4668Z" fill="#D6A12B"/>
<path d="M19.8882 21.4668C19.65 21.2281 19.367 21.0389 19.0554 20.91C18.7439 20.7811 18.4099 20.7151 18.0727 20.7158V24.6778C19.3068 23.7815 20.522 22.1006 19.8882 21.4668Z" fill="#DBBC3B"/>
</g>
<defs>
<clipPath id="clip0_846_3923">
<rect width="36" height="36.07" fill="white"/>
</clipPath>
</defs>
</svg>
