<svg width="36" height="37" viewBox="0 0 36 37" fill="none" xmlns="http://www.w3.org/2000/svg">
<g clip-path="url(#clip0_817_3411)">
<path d="M30.1569 30.1571C36.871 23.443 36.871 12.5573 30.1569 5.8432C23.4428 -0.8709 12.5571 -0.870902 5.84296 5.8432C-0.871139 12.5573 -0.871141 23.443 5.84296 30.1571C12.5571 36.8712 23.4428 36.8712 30.1569 30.1571Z" fill="#676860"/>
<path d="M18 0.807486C21.4004 0.807486 24.7244 1.81581 27.5517 3.70495C30.3789 5.59409 32.5826 8.27919 33.8838 11.4207C35.1851 14.5622 35.5256 18.0191 34.8622 21.3541C34.1988 24.6891 32.5614 27.7525 30.157 30.157C27.7525 32.5614 24.6891 34.1988 21.3541 34.8622C18.0191 35.5256 14.5622 35.1851 11.4207 33.8838C8.27919 32.5826 5.59408 30.379 3.70494 27.5517C1.8158 24.7244 0.807481 21.4004 0.807481 18C0.807481 13.4403 2.61884 9.06728 5.84306 5.84306C9.06728 2.61884 13.4403 0.807486 18 0.807486ZM18 9.65867e-06C13.8361 -0.000699682 9.8008 1.44243 6.58167 4.08349C3.36254 6.72455 1.15878 10.4001 0.345907 14.4839C-0.466965 18.5677 0.161344 22.807 2.12378 26.4794C4.08621 30.1519 7.26134 33.0302 11.1081 34.624C14.9549 36.2178 19.2353 36.4285 23.22 35.22C27.2047 34.0116 30.6471 31.4589 32.9606 27.9969C35.2741 24.5349 36.3156 20.3777 35.9076 16.2339C35.4997 12.09 33.6674 8.21585 30.7231 5.27149C29.0555 3.5948 27.0718 2.26556 24.8869 1.3607C22.7021 0.455849 20.3594 -0.00663972 17.9946 9.65867e-06H18Z" fill="white"/>
<path d="M30.1565 30.2268C36.8706 23.5127 36.8706 12.627 30.1565 5.91287C23.4424 -0.801226 12.5567 -0.801225 5.84265 5.91287C-0.871446 12.627 -0.87145 23.5127 5.84265 30.2268C12.5567 36.9409 23.4425 36.9409 30.1565 30.2268Z" fill="#676860"/>
<path d="M18 0.877464C21.4004 0.877464 24.7243 1.88579 27.5516 3.77493C30.3789 5.66406 32.5826 8.34917 33.8838 11.4907C35.1851 14.6322 35.5255 18.0891 34.8622 21.4241C34.1988 24.7591 32.5614 27.8225 30.1569 30.2269C27.7525 32.6314 24.6891 34.2688 21.3541 34.9322C18.0191 35.5955 14.5622 35.2551 11.4207 33.9538C8.27918 32.6525 5.59408 30.4489 3.70494 27.6216C1.8158 24.7943 0.807476 21.4703 0.807476 18.07C0.807476 13.5102 2.61883 9.13726 5.84305 5.91304C9.06728 2.68881 13.4403 0.877464 18 0.877464ZM18 0.0699874C13.8354 0.0687086 9.79923 1.51155 6.57923 4.15265C3.35923 6.79374 1.15467 10.4697 0.3412 14.554C-0.472271 18.6384 0.15569 22.8785 2.11808 26.5517C4.08046 30.225 7.25584 33.1041 11.1031 34.6986C14.9504 36.293 19.2315 36.504 23.217 35.2957C27.2024 34.0874 30.6456 31.5345 32.9597 28.0721C35.2738 24.6096 36.3158 20.4519 35.9079 16.3073C35.5001 12.1627 33.6678 8.28779 30.7231 5.34281C29.0557 3.6657 27.0721 2.33609 24.8872 1.43099C22.7023 0.525889 20.3595 0.0632913 17.9946 0.0699874H18Z" fill="white"/>
<path d="M18.3311 5.19208L33.8521 11.5765C33.8521 11.5765 36.1171 16.3204 34.7215 22.0912C34.7215 22.0912 32.2318 30.641 25.8312 33.5116C25.8312 33.5116 22.4829 35.0391 20.234 35.1858L17.9852 35.3311L18.3311 5.19208Z" fill="#302C2C"/>
<path d="M17.0876 18.1198V35.2114C17.5021 35.241 17.922 35.2571 18.3445 35.2571C18.7146 35.2571 19.0807 35.2437 19.444 35.2208V18.1198H17.0876Z" fill="#D3D3D3"/>
<path d="M17.0876 18.1157V35.2073C17.5021 35.2383 17.922 35.2544 18.3445 35.2544V18.1157H17.0876Z" fill="#EAEAEA"/>
<path d="M18.3418 3.35239C14.7593 3.35239 11.8564 5.06827 11.8564 7.18521V24.6159C11.8564 26.7329 14.7593 28.4488 18.3418 28.4488C21.9243 28.4488 24.8259 26.7329 24.8259 24.6159V7.18117C24.8299 5.06424 21.927 3.35239 18.3418 3.35239Z" fill="#E5E5E5"/>
<path d="M18.3418 4.03604C15.2465 4.03604 12.7312 5.65099 12.7312 7.65892V24.1382C12.7312 26.1394 15.2438 27.761 18.3418 27.761C21.4398 27.761 23.9511 26.1394 23.9511 24.1382V7.65892C23.9551 5.65772 21.4439 4.03604 18.3418 4.03604Z" fill="#3B3B3B"/>
<g style="mix-blend-mode:multiply" opacity="0.58">
<path d="M18.3943 3.30795V35.2181L19.4938 35.1858V28.4084C20.3623 28.3542 21.2169 28.1644 22.0266 27.8458C23.4249 27.2779 24.8797 26.1703 24.8797 24.5823V7.14077C24.8797 7.14077 24.8299 5.29569 22.4142 4.17061C21.4896 3.73995 20.1802 3.35236 18.3943 3.30795Z" fill="#303030"/>
</g>
<path d="M18.3445 12.1162C19.9775 12.1162 21.3012 10.7924 21.3012 9.15947C21.3012 7.52652 19.9775 6.20276 18.3445 6.20276C16.7116 6.20276 15.3878 7.52652 15.3878 9.15947C15.3878 10.7924 16.7116 12.1162 18.3445 12.1162Z" fill="#CC0000"/>
<path d="M20.1613 7.34264C19.6795 6.86079 19.026 6.59009 18.3445 6.59009C17.6631 6.59009 17.0096 6.86079 16.5277 7.34264C16.0459 7.82449 15.7751 8.47802 15.7751 9.15946C15.7751 9.8409 16.0459 10.4944 16.5277 10.9763C17.5344 11.9776 21.168 8.3466 20.1613 7.34264Z" fill="#FF0000"/>
<path d="M18.3445 19.2704C19.9775 19.2704 21.3012 17.9467 21.3012 16.3137C21.3012 14.6808 19.9775 13.357 18.3445 13.357C16.7116 13.357 15.3878 14.6808 15.3878 16.3137C15.3878 17.9467 16.7116 19.2704 18.3445 19.2704Z" fill="#CC0000"/>
<path d="M20.1613 14.4983C19.9228 14.2597 19.6395 14.0704 19.3278 13.9413C19.0161 13.8122 18.6819 13.7457 18.3445 13.7457C18.0071 13.7457 17.673 13.8122 17.3613 13.9413C17.0495 14.0704 16.7663 14.2597 16.5277 14.4983C16.2891 14.7368 16.0999 15.0201 15.9707 15.3318C15.8416 15.6435 15.7751 15.9777 15.7751 16.3151C15.7751 16.6525 15.8416 16.9866 15.9707 17.2983C16.0999 17.6101 16.2891 17.8933 16.5277 18.1319C17.5344 19.1332 21.168 15.5009 20.1613 14.4983Z" fill="#FF0000"/>
<path d="M18.3445 26.461C19.9775 26.461 21.3012 25.1372 21.3012 23.5043C21.3012 21.8713 19.9775 20.5476 18.3445 20.5476C16.7116 20.5476 15.3878 21.8713 15.3878 23.5043C15.3878 25.1372 16.7116 26.461 18.3445 26.461Z" fill="#CC0000"/>
<path d="M20.1613 21.6875C19.9228 21.4489 19.6395 21.2596 19.3278 21.1305C19.0161 21.0014 18.6819 20.9349 18.3445 20.9349C18.0071 20.9349 17.673 21.0014 17.3613 21.1305C17.0495 21.2596 16.7663 21.4489 16.5277 21.6875C16.2891 21.9261 16.0999 22.2093 15.9707 22.5211C15.8416 22.8328 15.7751 23.1669 15.7751 23.5043C15.7751 23.8417 15.8416 24.1758 15.9707 24.4876C16.0999 24.7993 16.2891 25.0825 16.5277 25.3211C17.5344 26.3224 21.168 22.6914 20.1613 21.6875Z" fill="#FF0000"/>
<path d="M20.1196 7.29957C19.8815 7.06089 19.5985 6.87166 19.2869 6.74278C18.9753 6.6139 18.6413 6.54791 18.3041 6.54862V10.5147C19.5382 9.61434 20.7535 7.92806 20.1196 7.29957Z" fill="#EF0303"/>
<path d="M20.1196 14.4552C19.8814 14.2165 19.5983 14.0273 19.2868 13.8982C18.9753 13.7691 18.6414 13.7027 18.3041 13.7029V17.6703C19.5382 16.7699 20.7535 15.089 20.1196 14.4552Z" fill="#EF0303"/>
<path d="M20.1196 7.29957C20.7535 7.93344 19.5382 9.61434 18.3041 10.5147V12.0731C19.0894 12.0731 19.8425 11.7612 20.3977 11.2059C20.953 10.6507 21.2649 9.8976 21.2649 9.11236C21.2649 8.32712 20.953 7.57404 20.3977 7.01879C19.8425 6.46355 19.0894 6.15161 18.3041 6.15161V6.54189C18.6418 6.54206 18.9761 6.60911 19.2877 6.73915C19.5993 6.8692 19.882 7.05967 20.1196 7.29957Z" fill="#B50404"/>
<path d="M20.1196 14.4552C20.7535 15.089 19.5382 16.7699 18.3041 17.6703V19.2327C19.0894 19.2327 19.8425 18.9208 20.3977 18.3656C20.953 17.8103 21.2649 17.0572 21.2649 16.272C21.2649 15.4868 20.953 14.7337 20.3977 14.1784C19.8425 13.6232 19.0894 13.3112 18.3041 13.3112V13.7002C18.6415 13.7004 18.9756 13.7672 19.2871 13.8967C19.5987 14.0263 19.8816 14.2161 20.1196 14.4552Z" fill="#B50404"/>
<path d="M20.1196 21.6458C20.7535 22.2783 19.5382 23.9592 18.3041 24.8609V26.418C18.7054 26.4389 19.1068 26.378 19.4837 26.2389C19.8607 26.0998 20.2054 25.8854 20.4969 25.6088C20.7883 25.3321 21.0204 24.9991 21.1791 24.6299C21.3377 24.2607 21.4195 23.8631 21.4195 23.4612C21.4195 23.0594 21.3377 22.6618 21.1791 22.2926C21.0204 21.9234 20.7883 21.5903 20.4969 21.3137C20.2054 21.0371 19.8607 20.8227 19.4837 20.6836C19.1068 20.5445 18.7054 20.4835 18.3041 20.5045V20.8935C18.6414 20.8929 18.9755 20.9591 19.287 21.0882C19.5986 21.2173 19.8816 21.4068 20.1196 21.6458Z" fill="#B50404"/>
<path d="M20.1196 21.6458C19.8816 21.4068 19.5986 21.2174 19.287 21.0882C18.9755 20.9591 18.6414 20.8929 18.3041 20.8935V24.8609C19.5382 23.9592 20.7535 22.2783 20.1196 21.6458Z" fill="#EF0303"/>
</g>
<defs>
<clipPath id="clip0_817_3411">
<rect width="36" height="36.07" fill="white"/>
</clipPath>
</defs>
</svg>
