<svg width="36" height="36" viewBox="0 0 36 36" fill="none" xmlns="http://www.w3.org/2000/svg">
<g clip-path="url(#clip0_846_3998)">
<path d="M30.1573 30.0986C36.8714 23.3975 36.8714 12.5329 30.1573 5.83185C23.4432 -0.869224 12.5575 -0.869222 5.84338 5.83185C-0.870716 12.5329 -0.870716 23.3975 5.84338 30.0986C12.5575 36.7997 23.4432 36.7997 30.1573 30.0986Z" fill="#676860"/>
<path d="M18 0.805907C21.4003 0.805907 24.7243 1.81227 27.5516 3.69775C30.3789 5.58322 32.5825 8.26311 33.8838 11.3985C35.1851 14.534 35.5255 17.9841 34.8622 21.3127C34.1988 24.6412 32.5613 27.6987 30.1569 30.0984C27.7525 32.4982 24.6891 34.1324 21.3541 34.7945C18.0191 35.4566 14.5622 35.1168 11.4207 33.8181C8.27917 32.5193 5.59407 30.32 3.70493 27.4982C1.81579 24.6764 0.807467 21.3588 0.807467 17.9651C0.807467 13.4142 2.61882 9.04968 5.84304 5.83171C9.06726 2.61374 13.4402 0.805907 18 0.805907ZM18 -3.34494e-06C13.8354 -0.000968821 9.79929 1.43939 6.57948 4.07563C3.35967 6.71187 1.15539 10.3809 0.342255 14.4574C-0.470883 18.5339 0.157427 22.7657 2.12014 26.4317C4.08286 30.0977 7.25853 32.971 11.106 34.562C14.9534 36.153 19.2346 36.3632 23.2199 35.1569C27.2053 33.9505 30.6482 31.4022 32.962 27.9463C35.2758 24.4903 36.3174 20.3405 35.9091 16.204C35.5008 12.0675 33.6681 8.20022 30.7231 5.26124C29.0556 3.58803 27.0721 2.2615 24.8875 1.35841C22.7029 0.455324 20.3605 -0.0063879 17.996 -3.34494e-06H18Z" fill="white"/>
<path d="M30.157 30.1681C36.8711 23.467 36.8711 12.6024 30.157 5.90137C23.4429 -0.799695 12.5572 -0.799693 5.84308 5.90137C-0.87102 12.6024 -0.871021 23.467 5.84308 30.1681C12.5572 36.8692 23.4429 36.8692 30.157 30.1681Z" fill="#676860"/>
<path d="M18 0.875755C21.4003 0.875755 24.7243 1.88212 27.5516 3.7676C30.3789 5.65307 32.5825 8.33297 33.8838 11.4684C35.185 14.6038 35.5255 18.054 34.8621 21.3825C34.1988 24.7111 32.5613 27.7686 30.1569 30.1683C27.7525 32.5681 24.6891 34.2023 21.3541 34.8644C18.0191 35.5265 14.5622 35.1867 11.4207 33.8879C8.27916 32.5892 5.59406 30.3899 3.70492 27.5681C1.81578 24.7463 0.807455 21.4287 0.807455 18.0349C0.807455 13.484 2.6188 9.11953 5.84303 5.90156C9.06725 2.68359 13.4402 0.875755 18 0.875755ZM18 0.0698448C13.8353 0.0698122 9.79946 1.51113 6.58022 4.14817C3.36098 6.78522 1.15755 10.4548 0.345413 14.5316C-0.466728 18.6084 0.162671 22.8402 2.12637 26.5057C4.09007 30.1712 7.26656 33.0438 11.1145 34.6337C14.9625 36.2237 19.2438 36.4328 23.2288 35.2253C27.2139 34.0178 30.6562 31.4685 32.969 28.0117C35.2818 24.555 36.3221 20.4048 35.9126 16.2684C35.5031 12.1319 33.6691 8.26516 30.7231 5.32707C29.0556 3.65385 27.0721 2.32732 24.8875 1.42423C22.7029 0.521143 20.3605 0.0594309 17.9959 0.0658154L18 0.0698448Z" fill="white"/>
<path d="M18.4858 5.11215L34.0069 11.4856C34.0069 11.4856 36.2732 16.2203 34.8762 21.9799C34.8762 21.9799 32.3879 30.5118 25.9859 33.3768C25.9859 33.3768 22.6389 34.9013 20.3901 35.0477L18.1413 35.1941L18.4858 5.11215Z" fill="#302C2C"/>
<path d="M17.1522 18.0873V35.1457C17.5676 35.1771 17.987 35.1927 18.4105 35.1927C18.7792 35.1927 19.1466 35.1793 19.51 35.1565V18.0873H17.1522Z" fill="#D3D3D3"/>
<path d="M17.1522 18.0873V35.1457C17.5676 35.1771 17.987 35.1927 18.4105 35.1927V18.0873H17.1522Z" fill="#EAEAEA"/>
<path d="M18.4105 3.34184C14.8293 3.34184 11.9251 5.05439 11.9251 7.16588V24.5682C11.9251 26.681 14.8293 28.3935 18.4105 28.3935C21.9916 28.3935 24.8959 26.681 24.8959 24.5682V7.16588C24.8959 5.05842 21.9916 3.34184 18.4105 3.34184Z" fill="#E5E5E5"/>
<path d="M18.4105 4.02821C15.3151 4.02821 12.8012 5.64003 12.8012 7.64271V24.0913C12.8012 26.0887 15.3124 27.7072 18.4105 27.7072C21.5085 27.7072 24.0211 26.0887 24.0211 24.0913V7.64271C24.0211 5.64674 21.5085 4.02821 18.4105 4.02821Z" fill="#3B3B3B"/>
<g style="mix-blend-mode:multiply" opacity="0.58">
<path d="M18.4656 3.32438V35.1726L19.5651 35.1404V28.3761C20.4344 28.3201 21.2895 28.1284 22.0993 27.8079C23.4962 27.2411 24.951 26.137 24.951 24.5507V7.14977C24.951 7.14977 24.951 5.21827 22.4855 4.18536C21.2136 3.6426 19.8487 3.35025 18.4656 3.32438Z" fill="#303030"/>
</g>
<path d="M18.4118 26.2552C20.0447 26.2552 21.3685 24.934 21.3685 23.3042C21.3685 21.6745 20.0447 20.3533 18.4118 20.3533C16.7788 20.3533 15.4551 21.6745 15.4551 23.3042C15.4551 24.934 16.7788 26.2552 18.4118 26.2552Z" fill="#2BBF60"/>
<path d="M20.2259 21.5258C19.7441 21.0449 19.0906 20.7747 18.4091 20.7747C17.7277 20.7747 17.0742 21.0449 16.5923 21.5258C16.1105 22.0068 15.8398 22.659 15.8398 23.3392C15.8398 24.0193 16.1105 24.6715 16.5923 25.1525C17.5976 26.1464 21.2299 22.5265 20.2259 21.5258Z" fill="#3CCE6C"/>
<path d="M18.4118 18.861C20.0447 18.861 21.3685 17.5398 21.3685 15.91C21.3685 14.2802 20.0447 12.959 18.4118 12.959C16.7788 12.959 15.4551 14.2802 15.4551 15.91C15.4551 17.5398 16.7788 18.861 18.4118 18.861Z" fill="#2BBF60"/>
<path d="M20.2259 14.1303C19.9873 13.8922 19.7041 13.7033 19.3924 13.5744C19.0806 13.4455 18.7465 13.3792 18.4091 13.3792C18.0717 13.3792 17.7376 13.4455 17.4259 13.5744C17.1141 13.7033 16.8309 13.8922 16.5923 14.1303C16.3537 14.3684 16.1645 14.6511 16.0353 14.9622C15.9062 15.2734 15.8398 15.6068 15.8398 15.9436C15.8398 16.2803 15.9062 16.6138 16.0353 16.9249C16.1645 17.2361 16.3537 17.5188 16.5923 17.7569C17.5976 18.7589 21.2299 15.1323 20.2259 14.1303Z" fill="#3CCE6C"/>
<path d="M18.4118 11.4654C20.0447 11.4654 21.3685 10.1442 21.3685 8.51444C21.3685 6.88466 20.0447 5.56346 18.4118 5.56346C16.7788 5.56346 15.4551 6.88466 15.4551 8.51444C15.4551 10.1442 16.7788 11.4654 18.4118 11.4654Z" fill="#2BBF60"/>
<path d="M20.2259 6.73606C19.9873 6.49794 19.7041 6.30904 19.3924 6.18017C19.0806 6.0513 18.7465 5.98497 18.4091 5.98497C18.0717 5.98497 17.7376 6.0513 17.4259 6.18017C17.1141 6.30904 16.8309 6.49794 16.5923 6.73606C16.3537 6.97419 16.1645 7.25688 16.0353 7.56801C15.9062 7.87914 15.8398 8.2126 15.8398 8.54936C15.8398 8.88612 15.9062 9.21958 16.0353 9.53071C16.1645 9.84184 16.3537 10.1245 16.5923 10.3627C17.5976 11.362 21.2299 7.73673 20.2259 6.73606Z" fill="#3CCE6C"/>
<path d="M20.2259 21.5259C20.8598 22.1585 19.6445 23.8361 18.4105 24.7347V26.2552C18.8117 26.2762 19.2131 26.2153 19.5901 26.0765C19.967 25.9377 20.3117 25.7237 20.6032 25.4476C20.8946 25.1715 21.1267 24.8391 21.2854 24.4706C21.444 24.1021 21.5258 23.7053 21.5258 23.3042C21.5258 22.9032 21.444 22.5063 21.2854 22.1379C21.1267 21.7694 20.8946 21.437 20.6032 21.1609C20.3117 20.8848 19.967 20.6708 19.5901 20.532C19.2131 20.3931 18.8117 20.3323 18.4105 20.3533V20.7737C18.7478 20.7733 19.0819 20.8396 19.3935 20.9687C19.7051 21.0978 19.988 21.2872 20.2259 21.5259Z" fill="#29A553"/>
<path d="M20.2259 21.5259C19.9879 21.2874 19.7049 21.0983 19.3934 20.9694C19.0818 20.8406 18.7477 20.7745 18.4105 20.775V24.7347C19.6445 23.8361 20.8598 22.1585 20.2259 21.5259Z" fill="#39B75D"/>
<path d="M20.2259 14.1303C20.8598 14.7629 19.6445 16.4406 18.4105 17.3405V18.861C19.1704 18.8248 19.8872 18.498 20.4122 17.9484C20.9372 17.3989 21.2301 16.6687 21.2301 15.9093C21.2301 15.15 20.9372 14.4198 20.4122 13.8702C19.8872 13.3207 19.1704 12.9939 18.4105 12.9577V13.3862C18.7473 13.3848 19.081 13.4498 19.3926 13.5775C19.7041 13.7052 19.9873 13.893 20.2259 14.1303Z" fill="#29A553"/>
<path d="M20.2259 14.1303C19.9878 13.8921 19.7048 13.7032 19.3932 13.5746C19.0816 13.4459 18.7476 13.3801 18.4105 13.3808V17.3405C19.6445 16.4406 20.8598 14.7629 20.2259 14.1303Z" fill="#39B75D"/>
<path d="M20.2259 6.73606C20.8598 7.3687 19.6445 9.04634 18.4105 9.94493V11.4654C19.1704 11.4292 19.8872 11.1024 20.4122 10.5529C20.9372 10.0033 21.2301 9.2731 21.2301 8.51376C21.2301 7.75443 20.9372 7.02424 20.4122 6.47466C19.8872 5.92509 19.1704 5.59831 18.4105 5.56212V5.98522C18.7477 5.98469 19.0818 6.05076 19.3934 6.17962C19.7049 6.30848 19.9879 6.49759 20.2259 6.73606Z" fill="#29A553"/>
<path d="M20.2259 6.73606C19.9879 6.49759 19.7049 6.30848 19.3934 6.17962C19.0818 6.05076 18.7477 5.98469 18.4105 5.98522V9.94492C19.6445 9.04633 20.8598 7.3687 20.2259 6.73606Z" fill="#39B75D"/>
</g>
<defs>
<clipPath id="clip0_846_3998">
<rect width="36" height="36" fill="white"/>
</clipPath>
</defs>
</svg>
