<svg width="38" height="38" viewBox="0 0 38 38" fill="none" xmlns="http://www.w3.org/2000/svg">
<g filter="url(#filter0_d_576_2597)">
<path d="M23.4469 19.5614L21.2293 15.5571C20.4108 14.0929 18.8006 13.1836 17.0266 13.1836H11.5966C9.82413 13.1836 8.2144 14.0918 7.3934 15.558L5.19202 19.5255C5.16959 19.566 5.15059 19.6072 5.13342 19.649C4.42824 20.4048 4 21.3906 4 22.4684V28.8281C4 29.4754 4.5246 30 5.17188 30H8.27048C8.91753 30 9.44235 29.4754 9.44235 28.8281V28.2422H19.1826V28.8281C19.1826 29.4754 19.7075 30 20.3545 30H23.4531C24.1004 30 24.625 29.4754 24.625 28.8281V22.4414C24.625 21.3787 24.2155 20.3831 23.4671 19.6028C23.4602 19.5891 23.4545 19.5749 23.4469 19.5614ZM11.5966 15.5273H17.0266C17.9384 15.5273 18.7851 15.9879 19.181 16.6965L19.9938 18.1641H8.62776L9.44052 16.699C9.839 15.9874 10.6854 15.5273 11.5966 15.5273ZM22.2812 25.8984H18.0186L16.9675 24.4489C16.7471 24.1447 16.3944 23.9648 16.0188 23.9648H12.6526C12.2661 23.9648 11.9042 24.1557 11.6859 24.4748L10.711 25.8984H6.34375V22.4684C6.34375 21.3874 7.36433 20.5078 8.61906 20.5078H20.0062C21.2607 20.5078 22.2812 21.3753 22.2812 22.4414V25.8984ZM20.6992 23.2617C20.6992 23.909 20.1746 24.4336 19.5273 24.4336C18.8801 24.4336 18.3555 23.909 18.3555 23.2617C18.3555 22.6144 18.8801 22.0898 19.5273 22.0898C20.1746 22.0898 20.6992 22.6144 20.6992 23.2617ZM10.2109 23.2617C10.2109 23.909 9.68634 24.4336 9.03906 24.4336C8.39178 24.4336 7.86719 23.909 7.86719 23.2617C7.86719 22.6144 8.39178 22.0898 9.03906 22.0898C9.68634 22.0898 10.2109 22.6144 10.2109 23.2617ZM6.34375 11.1914V9.28482C6.34375 8.20702 6.77199 7.22122 7.47717 6.46545C7.49434 6.4238 7.51334 6.38237 7.53577 6.34186L9.73715 2.37442C10.5582 0.908203 12.1679 0 13.9403 0H19.3703C20.563 0 21.6704 0.362549 22.4884 1.02036C22.9926 1.42616 23.0727 2.16385 22.6669 2.66808C22.2613 3.1723 21.5237 3.25241 21.0194 2.84683C20.6161 2.52251 20.0304 2.34375 19.3703 2.34375H13.9403C13.0292 2.34375 12.1828 2.8038 11.7843 3.5154L10.9715 4.98047H13.8438C14.491 4.98047 15.0156 5.50507 15.0156 6.15234C15.0156 6.79962 14.491 7.32422 13.8438 7.32422H10.9628C9.70808 7.32422 8.6875 8.20381 8.6875 9.28482V11.1914C8.6875 11.8387 8.1629 12.3633 7.51562 12.3633C6.86835 12.3633 6.34375 11.8387 6.34375 11.1914ZM11.3828 8.90625C12.0301 8.90625 12.5547 9.43085 12.5547 10.0781C12.5547 10.7254 12.0301 11.25 11.3828 11.25C10.7355 11.25 10.2109 10.7254 10.2109 10.0781C10.2109 9.43085 10.7355 8.90625 11.3828 8.90625ZM28.9023 16.4062C28.2551 16.4062 27.7305 15.8817 27.7305 15.2344C27.7305 14.5871 28.2551 14.0625 28.9023 14.0625C29.5496 14.0625 30.0742 14.5871 30.0742 15.2344C30.0742 15.8817 29.5496 16.4062 28.9023 16.4062ZM34 14.1211V21.0938C34 21.741 33.4754 22.2656 32.8281 22.2656H29.7295C29.0825 22.2656 28.5576 21.741 28.5576 21.0938V20.5078H27.2031C26.5558 20.5078 26.0312 19.9832 26.0312 19.3359C26.0312 18.6887 26.5558 18.1641 27.2031 18.1641H31.6562V14.2383C31.6562 13.1721 30.6357 12.3047 29.3809 12.3047H21.0508C20.4026 12.3047 19.8773 11.7783 19.8789 11.1301C19.8803 10.4839 20.4046 9.96094 21.0508 9.96094H29.3688L28.556 8.49335C28.1601 7.78473 27.3134 7.32422 26.4016 7.32422H20.9716C20.0604 7.32422 19.214 7.78427 18.8155 8.49586L17.9812 10.0195C17.6523 10.5469 17.3594 10.8398 16.8162 10.8398C15.927 10.8398 15.4045 9.88472 15.8359 9.10721L16.7684 7.35489C17.5894 5.88867 19.1991 4.98047 20.9716 4.98047H26.4016C28.1756 4.98047 29.7858 5.88982 30.6043 7.35397L32.8219 11.3583C32.8295 11.3718 32.8352 11.386 32.8421 11.3997C33.5312 12.1181 33.9325 13.0193 33.9918 13.9872C33.9968 14.0311 34 14.0758 34 14.1211Z" fill="url(#paint0_linear_576_2597)"/>
</g>
<defs>
<filter id="filter0_d_576_2597" x="0" y="0" width="38" height="38" filterUnits="userSpaceOnUse" color-interpolation-filters="sRGB">
<feFlood flood-opacity="0" result="BackgroundImageFix"/>
<feColorMatrix in="SourceAlpha" type="matrix" values="0 0 0 0 0 0 0 0 0 0 0 0 0 0 0 0 0 0 127 0" result="hardAlpha"/>
<feOffset dy="4"/>
<feGaussianBlur stdDeviation="2"/>
<feComposite in2="hardAlpha" operator="out"/>
<feColorMatrix type="matrix" values="0 0 0 0 0 0 0 0 0 0 0 0 0 0 0 0 0 0 0.25 0"/>
<feBlend mode="normal" in2="BackgroundImageFix" result="effect1_dropShadow_576_2597"/>
<feBlend mode="normal" in="SourceGraphic" in2="effect1_dropShadow_576_2597" result="shape"/>
</filter>
<linearGradient id="paint0_linear_576_2597" x1="4" y1="15" x2="34" y2="15" gradientUnits="userSpaceOnUse">
<stop stop-color="#00F2FE"/>
<stop offset="0.0208" stop-color="#03EFFE"/>
<stop offset="0.2931" stop-color="#24D2FE"/>
<stop offset="0.5538" stop-color="#3CBDFE"/>
<stop offset="0.7956" stop-color="#4AB0FE"/>
<stop offset="1" stop-color="#4FACFE"/>
</linearGradient>
</defs>
</svg>
