<?xml version="1.0" standalone="no"?><!DOCTYPE svg PUBLIC "-//W3C//DTD SVG 1.1//EN" "http://www.w3.org/Graphics/SVG/1.1/DTD/svg11.dtd"><svg t="1643596771663" class="icon" viewBox="0 0 1024 1024" version="1.1" xmlns="http://www.w3.org/2000/svg" p-id="16311" xmlns:xlink="http://www.w3.org/1999/xlink" width="200" height="200"><defs><style type="text/css"></style></defs><path d="M511.535326 0.941983C229.023569 0.941983 0.000903 229.962844 0.000903 512.472796c0 282.508147 229.020862 511.529009 511.532618 511.529009 282.506342 0 511.527204-229.020862 511.527204-511.529009C1023.06253 229.962844 794.041668 0.941983 511.535326 0.941983z m133.736258 430.689942c0 2.042767-2.143822 5.617609-6.433271 10.724526-4.291254 5.106917-8.887479 11.134162-13.790481 18.079929-4.904806 6.945768-9.501031 14.505088-13.79048 22.676155-4.291254 8.169262-6.435076 16.549659-6.435076 25.128558 0 8.580703 2.143822 16.85463 6.435076 24.819977 4.289449 7.968956 8.885675 15.2215 13.79048 21.759436 4.903001 6.536132 9.499226 11.949825 13.790481 16.241078 4.289449 4.287645 6.433272 7.046824 6.433271 8.273927V643.688078c0 6.942159-2.555263 14.810059-7.660375 23.591069-5.105112 8.786423-11.440938 17.058546-18.998453 24.823586-7.557515 7.763236-15.936107 14.200116-25.128557 19.305229-9.194255 5.105112-17.874209 7.660375-26.048886 7.660375H262.841104c-11.031301 0-21.14408-1.938102-30.338335-5.825133-9.19245-3.876204-17.262462-9.293506-24.208229-16.239274-6.945768-6.945768-12.359461-15.11503-16.241079-24.515006-3.881618-9.396366-5.821524-19.6102-5.821524-30.643306V377.698913c0-8.172872 1.837046-16.650715 5.514748-25.435334 3.677702-8.784619 8.885675-16.852826 15.629331-24.20823 6.740048-7.355404 14.707199-13.483704 23.901454-18.386705 9.19245-4.903001 19.305229-7.353599 30.33653-7.3536h304.597819c11.029497 0 21.344386 1.939907 30.946472 5.821525 9.603891 3.881618 17.977069 9.194255 25.130363 15.936107 7.151488 6.740048 12.765488 14.810059 16.852825 24.20823 4.089143 9.396366 6.1283 19.408089 6.128301 30.029754v53.321265zM835.875077 374.021211v280.082812c0 8.988535-2.349543 16.957491-7.046823 23.901454-4.699085 6.949377-11.749518 10.41775-21.145885 10.41775-3.268066 0-7.458264-1.227104-12.563376-3.677702a143.688431 143.688431 0 0 1-15.320751-8.578899 288.784422 288.784422 0 0 1-14.402227-9.807807c-4.49517-3.268066-7.766845-5.920775-9.807807-7.965346-5.310833-4.49517-13.382649-12.258405-24.20823-23.291512-10.827386-11.029497-21.757632-23.491818-32.787128-37.381549-11.033106-13.891536-20.738053-28.192708-29.111231-42.901711-8.380397-14.710808-12.566986-28.192708-12.566986-40.449308s4.49517-26.250997 13.485509-41.983188c8.98673-15.730387 19.812311-31.153998 32.480352-46.272637 12.669846-15.116835 25.946025-29.111231 39.837561-41.981384 13.89334-12.870152 25.534585-22.573295 34.932756-29.111231 3.677702-2.452403 8.683563-5.413693 15.013974-8.887479 6.332216-3.471982 11.951629-5.207973 16.854631-5.207972 11.033106 0 18.180985 3.06415 21.450855 9.19245 3.268066 6.1283 4.904806 13.685815 4.904806 22.676155v1.227104z" fill="#009944" p-id="16312"></path></svg>